Bodoni-96-Fatface-Italic.ufo
<glyph name="dollar" format="2">
  <advance width="1289"/>
  <unicode hex="0024"/>
  <outline>
    <contour>
      <point x="961" y="1660" type="line"/>
      <point x="965" y="1660" type="line"/>
      <point x="550" y="-160" type="line"/>
      <point x="546" y="-160" type="line"/>
    </contour>
    <contour>
      <point x="828" y="1660" type="line"/>
      <point x="832" y="1660" type="line"/>
      <point x="417" y="-160" type="line"/>
      <point x="413" y="-160" type="line"/>
    </contour>
    <contour>
      <point x="1306" y="1220" type="line"/>
      <point x="1306" y="1371"/>
      <point x="1122" y="1516"/>
      <point x="894" y="1516" type="curve" smooth="yes"/>
      <point x="732" y="1516"/>
      <point x="613" y="1414"/>
      <point x="613" y="1286" type="curve" smooth="yes"/>
      <point x="613" y="926"/>
      <point x="1229" y="1100"/>
      <point x="1229" y="560" type="curve" smooth="yes"/>
      <point x="1229" y="221"/>
      <point x="872" y="-29"/>
      <point x="560" y="-29" type="curve" smooth="yes"/>
      <point x="208" y="-29"/>
      <point x="61" y="220"/>
      <point x="61" y="350" type="curve" smooth="yes"/>
      <point x="61" y="472"/>
      <point x="142" y="574"/>
      <point x="260" y="574" type="curve" smooth="yes"/>
      <point x="351" y="574"/>
      <point x="448" y="500"/>
      <point x="448" y="382" type="curve" smooth="yes"/>
      <point x="448" y="272"/>
      <point x="351" y="191"/>
      <point x="253" y="191" type="curve" smooth="yes"/>
      <point x="158" y="191"/>
      <point x="63" y="240"/>
      <point x="63" y="350" type="curve"/>
      <point x="65" y="350" type="line"/>
      <point x="65" y="222"/>
      <point x="211" y="-25"/>
      <point x="560" y="-25" type="curve" smooth="yes"/>
      <point x="722" y="-25"/>
      <point x="895" y="90"/>
      <point x="895" y="248" type="curve" smooth="yes"/>
      <point x="895" y="608"/>
      <point x="260" y="470"/>
      <point x="260" y="990" type="curve" smooth="yes"/>
      <point x="260" y="1280"/>
      <point x="592" y="1520"/>
      <point x="894" y="1520" type="curve" smooth="yes"/>
      <point x="1110" y="1520"/>
      <point x="1310" y="1382"/>
      <point x="1310" y="1220" type="curve" smooth="yes"/>
      <point x="1310" y="1088"/>
      <point x="1228" y="996"/>
      <point x="1110" y="996" type="curve" smooth="yes"/>
      <point x="1019" y="996"/>
      <point x="923" y="1060"/>
      <point x="923" y="1188" type="curve" smooth="yes"/>
      <point x="923" y="1298"/>
      <point x="1017" y="1379"/>
      <point x="1115" y="1379" type="curve" smooth="yes"/>
      <point x="1209" y="1379"/>
      <point x="1308" y="1290"/>
      <point x="1308" y="1220" type="curve"/>
    </contour>
  </outline>
</glyph>
<glyph name="ampersand" format="2">
  <advance width="1733"/>
  <unicode hex="0026"/>
  <outline>
    <contour>
      <point x="907" y="930" type="line"/>
      <point x="964" y="959"/>
      <point x="983" y="1092"/>
      <point x="983" y="1256" type="curve" smooth="yes"/>
      <point x="983" y="1379"/>
      <point x="968" y="1516"/>
      <point x="918" y="1516" type="curve" smooth="yes"/>
      <point x="849" y="1516"/>
      <point x="826" y="1366"/>
      <point x="826" y="1260" type="curve" smooth="yes"/>
      <point x="826" y="1190"/>
      <point x="845.26" y="1065.19"/>
      <point x="924" y="939" type="curve" smooth="yes"/>
      <point x="1392" y="189" type="line" smooth="yes"/>
      <point x="1436.39" y="117.854"/>
      <point x="1504" y="15"/>
      <point x="1574" y="15" type="curve" smooth="yes"/>
      <point x="1616" y="15"/>
      <point x="1697" y="57"/>
      <point x="1734" y="142" type="curve"/>
      <point x="1738" y="141" type="line"/>
      <point x="1700" y="53"/>
      <point x="1608" y="-20"/>
      <point x="1420" y="-20" type="curve" smooth="yes"/>
      <point x="1224" y="-20"/>
      <point x="1060.33" y="62.2151"/>
      <point x="982" y="182" type="curve" smooth="yes"/>
      <point x="487" y="939" type="line" smooth="yes"/>
      <point x="438.341" y="1013.41"/>
      <point x="417" y="1096"/>
      <point x="417" y="1166" type="curve" smooth="yes"/>
      <point x="417" y="1366"/>
      <point x="667" y="1520"/>
      <point x="938" y="1520" type="curve" smooth="yes"/>
      <point x="1152" y="1520"/>
      <point x="1389" y="1413"/>
      <point x="1389" y="1253" type="curve" smooth="yes"/>
      <point x="1389" y="1051"/>
      <point x="1161" y="1028"/>
      <point x="907" y="926" type="curve"/>
    </contour>
    <contour>
      <point x="587" y="830" type="curve"/>
      <point x="587" y="826" type="line"/>
      <point x="492" y="763"/>
      <point x="450" y="588"/>
      <point x="450" y="429" type="curve" smooth="yes"/>
      <point x="450" y="261"/>
      <point x="580" y="25"/>
      <point x="838" y="25" type="curve" smooth="yes"/>
      <point x="1204" y="25"/>
      <point x="1708" y="326"/>
      <point x="1708" y="647" type="curve"/>
      <point x="1710" y="647" type="line"/>
      <point x="1710" y="557"/>
      <point x="1591" y="470"/>
      <point x="1472" y="470" type="curve" smooth="yes"/>
      <point x="1322" y="470"/>
      <point x="1236" y="579"/>
      <point x="1236" y="689" type="curve" smooth="yes"/>
      <point x="1236" y="790"/>
      <point x="1346" y="898"/>
      <point x="1460" y="898" type="curve" smooth="yes"/>
      <point x="1606" y="898"/>
      <point x="1712" y="779"/>
      <point x="1712" y="647" type="curve" smooth="yes"/>
      <point x="1712" y="318"/>
      <point x="1199" y="-20"/>
      <point x="579" y="-20" type="curve" smooth="yes"/>
      <point x="293" y="-20"/>
      <point x="40" y="74"/>
      <point x="40" y="320" type="curve" smooth="yes"/>
      <point x="40" y="604"/>
      <point x="300" y="716"/>
    </contour>
  </outline>
</glyph>
<glyph name="parenleft" format="2">
  <advance width="769"/>
  <unicode hex="0028"/>
  <outline>
    <contour>
      <point x="574" y="-338" type="curve"/>
      <point x="572" y="-340" type="line"/>
      <point x="346" y="-240"/>
      <point x="170" y="24"/>
      <point x="170" y="370" type="curve" smooth="yes"/>
      <point x="170" y="956"/>
      <point x="626" y="1440"/>
      <point x="1012" y="1600" type="curve"/>
      <point x="1014" y="1598" type="line"/>
      <point x="706" y="1358"/>
      <point x="528" y="434"/>
      <point x="528" y="-10" type="curve" smooth="yes"/>
      <point x="528" y="-154"/>
      <point x="542" y="-278"/>
    </contour>
  </outline>
</glyph>
<glyph name="asterisk" format="2">
	<advance width="1269"/>
	<unicode hex="002A"/>
	<outline>
		<contour>
			<point x="766" y="898" type="line"/>
			<point x="956" y="1008"/>
			<point x="1120" y="904"/>
			<point x="1268" y="934" type="curve" smooth="yes"/>
			<point x="1424" y="966"/>
			<point x="1492" y="1150"/>
			<point x="1422" y="1258" type="curve" smooth="yes"/>
			<point x="1360" y="1356"/>
			<point x="1226" y="1386"/>
			<point x="1110" y="1290" type="curve" smooth="yes"/>
			<point x="984" y="1186"/>
			<point x="954" y="1010"/>
			<point x="764" y="900" type="curve"/>
		</contour>
		<contour>
			<point x="420" y="510" type="curve" smooth="yes"/>
			<point x="546" y="614"/>
			<point x="576" y="788"/>
			<point x="766" y="898" type="curve"/>
			<point x="764" y="900" type="line"/>
			<point x="574" y="790"/>
			<point x="410" y="896"/>
			<point x="262" y="866" type="curve" smooth="yes"/>
			<point x="106" y="834"/>
			<point x="38" y="650"/>
			<point x="108" y="542" type="curve" smooth="yes"/>
			<point x="170" y="444"/>
			<point x="304" y="414"/>
		</contour>
		<contour>
			<point x="646" y="216" type="curve" smooth="yes"/>
			<point x="776" y="216"/>
			<point x="898" y="320"/>
			<point x="898" y="434" type="curve" smooth="yes"/>
			<point x="898" y="584"/>
			<point x="728" y="640"/>
			<point x="768" y="900" type="curve"/>
			<point x="764" y="900" type="line"/>
			<point x="734" y="680"/>
			<point x="510" y="608"/>
			<point x="462" y="454" type="curve" smooth="yes"/>
			<point x="411" y="289"/>
			<point x="536" y="216"/>
		</contour>
		<contour>
			<point x="764" y="898" type="curve"/>
			<point x="768" y="900" type="line"/>
			<point x="598" y="990"/>
			<point x="698" y="1208"/>
			<point x="566" y="1304" type="curve" smooth="yes"/>
			<point x="450" y="1388"/>
			<point x="284" y="1342"/>
			<point x="216" y="1234" type="curve" smooth="yes"/>
			<point x="154" y="1132"/>
			<point x="158" y="988"/>
			<point x="276" y="934" type="curve" smooth="yes"/>
			<point x="414" y="872"/>
			<point x="574" y="1008"/>
		</contour>
		<contour>
			<point x="964" y="496" type="curve" smooth="yes"/>
			<point x="1080" y="412"/>
			<point x="1246" y="458"/>
			<point x="1314" y="566" type="curve" smooth="yes"/>
			<point x="1376" y="668"/>
			<point x="1372" y="812"/>
			<point x="1254" y="866" type="curve" smooth="yes"/>
			<point x="1116" y="928"/>
			<point x="958" y="790"/>
			<point x="768" y="900" type="curve"/>
			<point x="764" y="898" type="line"/>
			<point x="934" y="808"/>
			<point x="832" y="592"/>
		</contour>
		<contour>
			<point x="764" y="900" type="curve"/>
			<point x="768" y="900" type="line"/>
			<point x="798" y="1120"/>
			<point x="1040" y="1192"/>
			<point x="1068" y="1346" type="curve" smooth="yes"/>
			<point x="1100" y="1516"/>
			<point x="994" y="1584"/>
			<point x="884" y="1584" type="curve" smooth="yes"/>
			<point x="754" y="1584"/>
			<point x="632" y="1480"/>
			<point x="632" y="1366" type="curve" smooth="yes"/>
			<point x="632" y="1216"/>
			<point x="804" y="1160"/>
		</contour>
	</outline>
</glyph>
<glyph name="hyphen" format="2">
	<advance width="719"/>
	<unicode hex="002D"/>
	<outline>
		<contour>
			<point x="166" y="548" type="line"/>
			<point x="646" y="548" type="line"/>
			<point x="646" y="552" type="line"/>
			<point x="166" y="552" type="line"/>
		</contour>
	</outline>
</glyph>
<glyph name="hyphen" format="2">
	<advance width="719"/>
	<unicode hex="002D"/>
	<outline>
		<contour>
			<point x="166" y="548" type="line"/>
			<point x="646" y="548" type="line"/>
			<point x="646" y="552" type="line"/>
			<point x="166" y="552" type="line"/>
		</contour>
	</outline>
</glyph>
<glyph name="period" format="2">
	<advance width="639"/>
	<unicode hex="002E"/>
	<outline>
		<contour>
			<point x="320" y="-20" type="curve" smooth="yes"/>
			<point x="452" y="-20"/>
			<point x="561" y="89"/>
			<point x="561" y="221" type="curve" smooth="yes"/>
			<point x="561" y="353"/>
			<point x="452" y="460"/>
			<point x="320" y="460" type="curve" smooth="yes"/>
			<point x="188" y="460"/>
			<point x="80" y="353"/>
			<point x="80" y="221" type="curve" smooth="yes"/>
			<point x="80" y="89"/>
			<point x="188" y="-20"/>
		</contour>
	</outline>
</glyph>
<glyph name="slash" format="2">
	<advance width="1039"/>
	<unicode hex="002F"/>
	<outline>
		<contour>
			<point x="-60" y="-300" type="line"/>
			<point x="-54" y="-300" type="line"/>
			<point x="1240" y="1560" type="line"/>
			<point x="1234" y="1560" type="line"/>
		</contour>
	</outline>
</glyph>
<glyph name="four" format="2">
	<advance width="1451"/>
	<unicode hex="0034"/>
	<outline>
		<contour>
			<point x="600" y="0" type="line"/>
			<point x="1030" y="0" type="line"/>
			<point x="1432" y="1500" type="line"/>
			<point x="1092" y="1500" type="line"/>
			<point x="110" y="428" type="line"/>
			<point x="1350" y="428" type="line"/>
			<point x="1350" y="432" type="line"/>
			<point x="120" y="432" type="line"/>
			<point x="928" y="1314" type="line"/>
		</contour>
		<contour>
			<point x="430" y="0" type="line"/>
			<point x="1200" y="0" type="line"/>
			<point x="1200" y="4" type="line"/>
			<point x="430" y="4" type="line"/>
		</contour>
	</outline>
</glyph>
<glyph name="five" format="2">
	<advance width="1253"/>
	<unicode hex="0035"/>
	<outline>
		<contour>
			<point x="187" y="694" type="line"/>
			<point x="190" y="694" type="line"/>
			<point x="321" y="1080" type="line"/>
			<point x="1242" y="1080" type="line"/>
			<point x="1363" y="1609" type="line"/>
			<point x="1359" y="1609" type="line"/>
			<point x="1333" y="1500" type="line"/>
			<point x="457" y="1500" type="line"/>
		</contour>
		<contour>
			<point x="452" y="-20" type="curve" smooth="yes"/>
			<point x="804" y="-20"/>
			<point x="1171" y="211"/>
			<point x="1171" y="541" type="curve" smooth="yes"/>
			<point x="1171" y="801"/>
			<point x="936" y="879"/>
			<point x="654" y="879" type="curve" smooth="yes"/>
			<point x="472" y="879"/>
			<point x="261" y="807"/>
			<point x="189" y="694" type="curve"/>
			<point x="193" y="694" type="line"/>
			<point x="267" y="798"/>
			<point x="443" y="861"/>
			<point x="570" y="861" type="curve" smooth="yes"/>
			<point x="668" y="861"/>
			<point x="740" y="769"/>
			<point x="740" y="621" type="curve" smooth="yes"/>
			<point x="740" y="392"/>
			<point x="670" y="-5"/>
			<point x="382" y="-5" type="curve" smooth="yes"/>
			<point x="218" y="-5"/>
			<point x="3" y="88"/>
			<point x="3" y="318" type="curve"/>
			<point x="2" y="318" type="line"/>
			<point x="2" y="218"/>
			<point x="113.443" y="120"/>
			<point x="223" y="120" type="curve" smooth="yes"/>
			<point x="332" y="120"/>
			<point x="439" y="210"/>
			<point x="439" y="330" type="curve" smooth="yes"/>
			<point x="439" y="450"/>
			<point x="333" y="542"/>
			<point x="223" y="542" type="curve" smooth="yes"/>
			<point x="102" y="542"/>
			<point x="0" y="440"/>
			<point x="0" y="318" type="curve" smooth="yes"/>
			<point x="0" y="93"/>
			<point x="198" y="-20"/>
		</contour>
	</outline>
</glyph>
<glyph name="six" format="2">
	<advance width="1319"/>
	<unicode hex="0036"/>
	<outline>
		<contour>
			<point x="568" y="-20" type="curve" smooth="yes"/>
			<point x="910" y="-20"/>
			<point x="1280" y="220"/>
			<point x="1280" y="600" type="curve" smooth="yes"/>
			<point x="1280" y="880"/>
			<point x="1054" y="990"/>
			<point x="852" y="990" type="curve" smooth="yes"/>
			<point x="508" y="990"/>
			<point x="502" y="334"/>
			<point x="502" y="160" type="curve"/>
			<point x="506" y="160" type="line"/>
			<point x="506" y="356"/>
			<point x="528" y="932"/>
			<point x="776" y="932" type="curve" smooth="yes"/>
			<point x="824" y="932"/>
			<point x="840" y="888"/>
			<point x="840" y="780" type="curve" smooth="yes"/>
			<point x="840" y="572"/>
			<point x="722" y="-16"/>
			<point x="582" y="-16" type="curve" smooth="yes"/>
			<point x="530" y="-16"/>
			<point x="506" y="72"/>
			<point x="506" y="160" type="curve"/>
			<point x="506" y="160" type="line"/>
			<point x="506" y="764"/>
			<point x="682" y="1516"/>
			<point x="1330" y="1516" type="curve"/>
			<point x="1330" y="1520" type="line"/>
			<point x="644" y="1520"/>
			<point x="100" y="946"/>
			<point x="100" y="440" type="curve" smooth="yes"/>
			<point x="100" y="120"/>
			<point x="306" y="-20"/>
		</contour>
	</outline>
</glyph>
<glyph name="eight" format="2">
	<advance width="1339"/>
	<unicode hex="0038"/>
	<outline>
		<contour>
			<point x="590" y="-20" type="curve" smooth="yes"/>
			<point x="992" y="-20"/>
			<point x="1200" y="220"/>
			<point x="1200" y="460" type="curve" smooth="yes"/>
			<point x="1200" y="660"/>
			<point x="1012" y="772"/>
			<point x="670" y="772" type="curve" smooth="yes"/>
			<point x="268" y="772"/>
			<point x="60" y="540"/>
			<point x="60" y="300" type="curve" smooth="yes"/>
			<point x="60" y="100"/>
			<point x="248" y="-20"/>
		</contour>
		<contour>
			<point x="530" y="-16" type="curve" smooth="yes"/>
			<point x="472" y="-16"/>
			<point x="460" y="72"/>
			<point x="460" y="160" type="curve" smooth="yes"/>
			<point x="460" y="348"/>
			<point x="572" y="768"/>
			<point x="710" y="768" type="curve" smooth="yes"/>
			<point x="768" y="768"/>
			<point x="780" y="688"/>
			<point x="780" y="600" type="curve" smooth="yes"/>
			<point x="780" y="412"/>
			<point x="668" y="-16"/>
		</contour>
		<contour>
			<point x="710" y="768" type="curve" smooth="yes"/>
			<point x="992" y="768"/>
			<point x="1340" y="930"/>
			<point x="1340" y="1190" type="curve" smooth="yes"/>
			<point x="1340" y="1350"/>
			<point x="1172" y="1520"/>
			<point x="870" y="1520" type="curve" smooth="yes"/>
			<point x="528" y="1520"/>
			<point x="240" y="1290"/>
			<point x="240" y="1050" type="curve" smooth="yes"/>
			<point x="240" y="890"/>
			<point x="468" y="768"/>
		</contour>
		<contour>
			<point x="704" y="772" type="curve" smooth="yes"/>
			<point x="662" y="772"/>
			<point x="660" y="852"/>
			<point x="660" y="900" type="curve" smooth="yes"/>
			<point x="660" y="1088"/>
			<point x="788" y="1516"/>
			<point x="866" y="1516" type="curve" smooth="yes"/>
			<point x="918" y="1516"/>
			<point x="920" y="1408"/>
			<point x="920" y="1380" type="curve" smooth="yes"/>
			<point x="920" y="1192"/>
			<point x="822" y="772"/>
		</contour>
	</outline>
</glyph>
<glyph name="less" format="2">
	<advance width="1119"/>
	<unicode hex="003C"/>
	<outline>
		<contour>
			<point x="220" y="774" type="line"/>
			<point x="1180" y="1196" type="line"/>
			<point x="1180" y="1200" type="line"/>
			<point x="220" y="778" type="line"/>
		</contour>
		<contour>
			<point x="1000" y="350" type="line"/>
			<point x="1000" y="354" type="line"/>
			<point x="220" y="776" type="line"/>
			<point x="220" y="772" type="line"/>
		</contour>
	</outline>
</glyph>
<glyph name="question" format="2">
  <advance width="1240"/>
  <unicode hex="003F"/>
  <outline>
    <contour>
      <point x="618" y="744" type="line"/>
      <point x="832" y="806"/>
      <point x="908" y="1044"/>
      <point x="908" y="1280" type="curve" smooth="yes"/>
      <point x="908" y="1408"/>
      <point x="870" y="1507"/>
      <point x="752" y="1507" type="curve" smooth="yes"/>
      <point x="574" y="1507"/>
      <point x="304" y="1342"/>
      <point x="304" y="1132" type="curve"/>
      <point x="302" y="1132" type="line"/>
      <point x="302" y="1232"/>
      <point x="397" y="1319"/>
      <point x="504" y="1319" type="curve" smooth="yes"/>
      <point x="613" y="1319"/>
      <point x="708" y="1230"/>
      <point x="708" y="1120" type="curve" smooth="yes"/>
      <point x="708" y="1000"/>
      <point x="604" y="919"/>
      <point x="504" y="919" type="curve" smooth="yes"/>
      <point x="393" y="919"/>
      <point x="300" y="1010"/>
      <point x="300" y="1132" type="curve" smooth="yes"/>
      <point x="300" y="1316"/>
      <point x="527" y="1520"/>
      <point x="822" y="1520" type="curve" smooth="yes"/>
      <point x="1044" y="1520"/>
      <point x="1330" y="1430"/>
      <point x="1330" y="1190" type="curve" smooth="yes"/>
      <point x="1330" y="840"/>
      <point x="903" y="759"/>
      <point x="621" y="741" type="curve"/>
      <point x="586" y="558" type="line"/>
      <point x="582" y="558" type="line"/>
    </contour>
    <component base="period" xOffset="298"/>
  </outline>
</glyph>
<glyph name="A" format="2">
	<advance width="1639"/>
	<unicode hex="0041"/>
	<anchor x="1126" y="0" name="cedilla"/>
	<anchor x="546" y="0" name="bottom"/>
	<anchor x="1014" y="1500" name="top"/>
	<outline>
		<contour>
			<point x="88" y="0" type="line"/>
			<point x="92" y="0" type="line"/>
			<point x="786" y="1200" type="line"/>
			<point x="910" y="0" type="line"/>
			<point x="1360" y="0" type="line"/>
			<point x="1170" y="1530" type="line"/>
			<point x="970" y="1530" type="line"/>
		</contour>
		<contour>
			<point x="-100" y="0" type="line"/>
			<point x="340" y="0" type="line"/>
			<point x="340" y="4" type="line"/>
			<point x="-100" y="4" type="line"/>
		</contour>
		<contour>
			<point x="680" y="0" type="line"/>
			<point x="1500" y="0" type="line"/>
			<point x="1500" y="4" type="line"/>
			<point x="680" y="4" type="line"/>
		</contour>
		<contour>
			<point x="374" y="488" type="line"/>
			<point x="1020" y="488" type="line"/>
			<point x="1020" y="492" type="line"/>
			<point x="374" y="492" type="line"/>
		</contour>
	</outline>
</glyph>
<glyph name="C" format="2">
  <advance width="1455"/>
  <unicode hex="0043"/>
  <anchor x="686" y="0" name="cedilla"/>
  <anchor x="686" y="0" name="_top"/>
  <anchor x="686" y="0" name="bottom"/>
  <anchor x="1006" y="1501" name="top"/>
  <outline>
    <contour>
      <point x="710" y="-20" type="curve" smooth="yes"/>
      <point x="344" y="-20"/>
      <point x="100" y="184"/>
      <point x="100" y="510" type="curve" smooth="yes"/>
      <point x="100" y="1056"/>
      <point x="504" y="1520"/>
      <point x="1010" y="1520" type="curve" smooth="yes"/>
      <point x="1286" y="1520"/>
      <point x="1424" y="1316"/>
      <point x="1480" y="1030" type="curve"/>
      <point x="1476" y="1030" type="line"/>
      <point x="1410" y="1382"/>
      <point x="1218" y="1500"/>
      <point x="1090" y="1500" type="curve" smooth="yes"/>
      <point x="722" y="1500"/>
      <point x="540" y="714"/>
      <point x="540" y="350" type="curve" smooth="yes"/>
      <point x="540" y="166"/>
      <point x="558" y="-4"/>
      <point x="766" y="-4" type="curve" smooth="yes"/>
      <point x="974" y="-4"/>
      <point x="1186" y="196"/>
      <point x="1366" y="470" type="curve"/>
      <point x="1370" y="470" type="line"/>
      <point x="1210" y="224"/>
      <point x="996" y="-20"/>
    </contour>
    <contour>
      <point x="1476" y="1030" type="line"/>
      <point x="1462" y="1106" type="line"/>
      <point x="1426" y="1222"/>
      <point x="1396" y="1294"/>
      <point x="1338" y="1364" type="curve"/>
      <point x="1582" y="1500" type="line"/>
      <point x="1586" y="1500" type="line"/>
      <point x="1480" y="1030" type="line"/>
    </contour>
    <contour>
      <point x="1366" y="470" type="line"/>
      <point x="1370" y="470" type="line"/>
      <point x="1260" y="0" type="line"/>
      <point x="1256" y="0" type="line"/>
      <point x="1074" y="126" type="line"/>
      <point x="1154" y="192"/>
      <point x="1235" y="281"/>
      <point x="1318" y="396" type="curve"/>
    </contour>
  </outline>
</glyph>
<glyph name="D" format="2">
  <advance width="1639"/>
  <unicode hex="0044"/>
  <anchor x="613" y="0" name="cedilla"/>
  <anchor x="613" y="0" name="bottom"/>
  <anchor x="904" y="1500" name="top"/>
  <outline>
    <contour>
      <point x="440" y="1500" type="line"/>
      <point x="870" y="1500" type="line"/>
      <point x="530" y="0" type="line"/>
      <point x="100" y="0" type="line"/>
    </contour>
    <contour>
      <point x="730" y="0" type="curve" smooth="yes"/>
      <point x="-80" y="0" type="line"/>
      <point x="-80" y="4" type="line"/>
      <point x="650" y="4" type="line" smooth="yes"/>
      <point x="1018" y="4"/>
      <point x="1182" y="806"/>
      <point x="1182" y="1130" type="curve" smooth="yes"/>
      <point x="1182" y="1314"/>
      <point x="1158" y="1496"/>
      <point x="970" y="1496" type="curve" smooth="yes"/>
      <point x="240" y="1496" type="line"/>
      <point x="240" y="1500" type="line"/>
      <point x="1030" y="1500" type="line" smooth="yes"/>
      <point x="1356" y="1500"/>
      <point x="1640" y="1336"/>
      <point x="1640" y="950" type="curve" smooth="yes"/>
      <point x="1640" y="464"/>
      <point x="1276" y="0"/>
    </contour>
  </outline>
</glyph>
<glyph name="F" format="2">
  <advance width="1257"/>
  <unicode hex="0046"/>
  <anchor x="286" y="0" name="bottom"/>
  <anchor x="894" y="1500" name="top"/>
  <outline>
    <contour>
      <point x="678" y="744" type="curve" smooth="yes"/>
      <point x="608" y="744" type="line"/>
      <point x="608" y="748" type="line"/>
      <point x="678" y="748" type="line" smooth="yes"/>
      <point x="810" y="748"/>
      <point x="966" y="892"/>
      <point x="1052" y="1026" type="curve"/>
      <point x="1056" y="1026" type="line"/>
      <point x="926" y="456" type="line"/>
      <point x="922" y="456" type="line"/>
      <point x="892" y="590"/>
      <point x="812" y="744"/>
    </contour>
    <contour>
      <point x="-100" y="4" type="line"/>
      <point x="700" y="4" type="line"/>
      <point x="700" y="0" type="line"/>
      <point x="-100" y="0" type="line"/>
    </contour>
    <contour>
      <point x="418" y="1500" type="line"/>
      <point x="848" y="1500" type="line"/>
      <point x="500" y="0" type="line"/>
      <point x="70" y="0" type="line"/>
    </contour>
    <contour>
      <point x="238" y="1500" type="line"/>
      <point x="1428" y="1500" type="line"/>
      <point x="1332" y="1090" type="line"/>
      <point x="1328" y="1090" type="line"/>
      <point x="1318" y="1304"/>
      <point x="1192" y="1496"/>
      <point x="958" y="1496" type="curve" smooth="yes"/>
      <point x="238" y="1496" type="line"/>
    </contour>
  </outline>
</glyph>
<glyph name="F" format="2">
	<advance width="1257"/>
	<unicode hex="0046"/>
	<anchor x="894" y="1500" name="top"/>
	<anchor x="286" y="0" name="bottom"/>
	<outline>
		<contour>
			<point x="70" y="0" type="line"/>
			<point x="500" y="0" type="line"/>
			<point x="848" y="1500" type="line"/>
			<point x="418" y="1500" type="line"/>
		</contour>
		<contour>
			<point x="-100" y="0" type="line"/>
			<point x="700" y="0" type="line"/>
			<point x="700" y="4" type="line"/>
			<point x="-100" y="4" type="line"/>
		</contour>
		<contour>
			<point x="922" y="456" type="curve"/>
			<point x="926" y="456" type="line"/>
			<point x="1056" y="1026" type="line"/>
			<point x="1052" y="1026" type="line"/>
			<point x="966" y="892"/>
			<point x="810" y="748"/>
			<point x="678" y="748" type="curve" smooth="yes"/>
			<point x="608" y="748" type="line"/>
			<point x="608" y="744" type="line"/>
			<point x="678" y="744" type="line" smooth="yes"/>
			<point x="812" y="744"/>
			<point x="892" y="590"/>
		</contour>
		<contour>
			<point x="1328" y="1090" type="curve"/>
			<point x="1332" y="1090" type="line"/>
			<point x="1428" y="1500" type="line"/>
			<point x="238" y="1500" type="line"/>
			<point x="238" y="1496" type="line"/>
			<point x="958" y="1496" type="line" smooth="yes"/>
			<point x="1192" y="1496"/>
			<point x="1318" y="1304"/>
		</contour>
	</outline>
</glyph>
<glyph name="G" format="2">
	<advance width="1665"/>
	<unicode hex="0047"/>
	<anchor x="716" y="0" name="cedilla"/>
	<anchor x="717" y="0" name="bottom"/>
	<anchor x="1076" y="1500" name="top"/>
	<outline>
		<contour>
			<point x="710" y="-20" type="curve" smooth="yes"/>
			<point x="1036" y="-20"/>
			<point x="1354" y="204"/>
			<point x="1444" y="330" type="curve"/>
			<point x="1506" y="568" type="line"/>
			<point x="1058" y="568" type="line"/>
			<point x="974" y="250" type="line"/>
			<point x="904" y="126"/>
			<point x="828" y="-16"/>
			<point x="720" y="-16" type="curve" smooth="yes"/>
			<point x="572" y="-16"/>
			<point x="540" y="186"/>
			<point x="540" y="390" type="curve" smooth="yes"/>
			<point x="540" y="794"/>
			<point x="762" y="1496"/>
			<point x="1150" y="1496" type="curve" smooth="yes"/>
			<point x="1338" y="1496"/>
			<point x="1510" y="1322"/>
			<point x="1554" y="1030" type="curve"/>
			<point x="1558" y="1030" type="line"/>
			<point x="1514" y="1316"/>
			<point x="1346" y="1520"/>
			<point x="1070" y="1520" type="curve" smooth="yes"/>
			<point x="584" y="1520"/>
			<point x="100" y="1096"/>
			<point x="100" y="510" type="curve" smooth="yes"/>
			<point x="100" y="144"/>
			<point x="364" y="-20"/>
		</contour>
		<contour>
			<point x="840" y="568" type="line"/>
			<point x="1580" y="568" type="line"/>
			<point x="1580" y="572" type="line"/>
			<point x="840" y="572" type="line"/>
		</contour>
		<contour>
			<point x="1558" y="1030" type="line"/>
			<point x="1558" y="1030" type="line"/>
			<point x="1666" y="1500" type="line"/>
			<point x="1662" y="1500" type="line"/>
			<point x="1394" y="1388" type="line"/>
			<point x="1472" y="1312"/>
			<point x="1526" y="1182"/>
			<point x="1544" y="1096" type="curve"/>
		</contour>
	</outline>
</glyph>
<glyph name="H" format="2">
  <advance width="1669"/>
  <unicode hex="0048"/>
  <anchor x="278" y="0" name="cedilla"/>
  <anchor x="721" y="0" name="bottom"/>
  <anchor x="1049" y="1500" name="top"/>
  <outline>
    <contour>
      <point x="770" y="4" type="line"/>
      <point x="1530" y="4" type="line"/>
      <point x="1530" y="0" type="line"/>
      <point x="770" y="0" type="line"/>
    </contour>
    <contour>
      <point x="1100" y="1500" type="line"/>
      <point x="1860" y="1500" type="line"/>
      <point x="1860" y="1496" type="line"/>
      <point x="1100" y="1496" type="line"/>
    </contour>
    <contour>
      <point x="1260" y="1500" type="line"/>
      <point x="1690" y="1500" type="line"/>
      <point x="1350" y="0" type="line"/>
      <point x="920" y="0" type="line"/>
    </contour>
    <contour>
      <point x="-90" y="4" type="line"/>
      <point x="670" y="4" type="line"/>
      <point x="670" y="0" type="line"/>
      <point x="-90" y="0" type="line"/>
    </contour>
    <contour>
      <point x="240" y="1500" type="line"/>
      <point x="1000" y="1500" type="line"/>
      <point x="1000" y="1496" type="line"/>
      <point x="240" y="1496" type="line"/>
    </contour>
    <contour>
      <point x="420" y="1500" type="line"/>
      <point x="850" y="1500" type="line"/>
      <point x="510" y="0" type="line"/>
      <point x="80" y="0" type="line"/>
    </contour>
    <contour>
      <point x="464" y="742" type="line"/>
      <point x="1184" y="742" type="line"/>
      <point x="1184" y="738" type="line"/>
      <point x="464" y="738" type="line"/>
    </contour>
  </outline>
</glyph>
<glyph name="J" format="2">
	<advance width="1251"/>
	<unicode hex="004A"/>
	<anchor x="946" y="1500" name="top"/>
	<anchor x="308" y="0" name="bottom"/>
	<outline>
		<contour>
			<point x="338" y="-61" type="curve" smooth="yes"/>
			<point x="596" y="-61"/>
			<point x="832" y="109"/>
			<point x="982" y="340" type="curve"/>
			<point x="1242" y="1500" type="line"/>
			<point x="814" y="1500" type="line"/>
			<point x="554" y="380" type="line" smooth="yes"/>
			<point x="492.428" y="114.764"/>
			<point x="382" y="-42"/>
			<point x="269" y="-42" type="curve" smooth="yes"/>
			<point x="113" y="-42"/>
			<point x="-58" y="58"/>
			<point x="-60" y="255" type="curve"/>
			<point x="-62" y="255" type="line"/>
			<point x="-62" y="145"/>
			<point x="54" y="43"/>
			<point x="175" y="43" type="curve" smooth="yes"/>
			<point x="294" y="43"/>
			<point x="413" y="142"/>
			<point x="413" y="268" type="curve" smooth="yes"/>
			<point x="413" y="410"/>
			<point x="285" y="500"/>
			<point x="175" y="500" type="curve" smooth="yes"/>
			<point x="54" y="500"/>
			<point x="-64" y="399"/>
			<point x="-64" y="255" type="curve" smooth="yes"/>
			<point x="-64" y="55"/>
			<point x="114" y="-61"/>
		</contour>
		<contour>
			<point x="544" y="1496" type="line"/>
			<point x="1442" y="1496" type="line"/>
			<point x="1442" y="1500" type="line"/>
			<point x="544" y="1500" type="line"/>
		</contour>
	</outline>
</glyph>
<glyph name="L" format="2">
	<advance width="1303"/>
	<unicode hex="004C"/>
	<anchor x="516" y="0" name="cedilla"/>
	<anchor x="516" y="0" name="bottom"/>
	<anchor x="614" y="1500" name="top"/>
	<outline>
		<contour>
			<point x="70" y="0" type="line"/>
			<point x="500" y="0" type="line"/>
			<point x="848" y="1500" type="line"/>
			<point x="418" y="1500" type="line"/>
		</contour>
		<contour>
			<point x="-100" y="0" type="line"/>
			<point x="1140" y="0" type="line"/>
			<point x="1244" y="450" type="line"/>
			<point x="1240" y="450" type="line"/>
			<point x="1122" y="196"/>
			<point x="904" y="4"/>
			<point x="590" y="4" type="curve" smooth="yes"/>
			<point x="-100" y="4" type="line"/>
		</contour>
		<contour>
			<point x="238" y="1496" type="line"/>
			<point x="1028" y="1496" type="line"/>
			<point x="1028" y="1500" type="line"/>
			<point x="238" y="1500" type="line"/>
		</contour>
	</outline>
</glyph>
<glyph name="N" format="2">
	<advance width="1539"/>
	<unicode hex="004E"/>
	<anchor x="966" y="1500" name="top"/>
	<anchor x="656" y="0" name="bottom"/>
	<outline>
		<contour>
			<point x="1124" y="-20" type="line"/>
			<point x="1154" y="-20" type="line"/>
			<point x="1500" y="1500" type="line"/>
			<point x="1496" y="1500" type="line"/>
			<point x="1318" y="718" type="line"/>
			<point x="950" y="1500" type="line"/>
			<point x="440" y="1500" type="line"/>
		</contour>
		<contour>
			<point x="-80" y="0" type="line"/>
			<point x="344" y="0" type="line"/>
			<point x="344" y="4" type="line"/>
			<point x="-80" y="4" type="line"/>
		</contour>
		<contour>
			<point x="108" y="0" type="line"/>
			<point x="112" y="0" type="line"/>
			<point x="444" y="1500" type="line"/>
			<point x="240" y="1500" type="line"/>
			<point x="240" y="1496" type="line"/>
			<point x="440" y="1496" type="line"/>
		</contour>
		<contour>
			<point x="1256" y="1496" type="line"/>
			<point x="1730" y="1496" type="line"/>
			<point x="1730" y="1500" type="line"/>
			<point x="1256" y="1500" type="line"/>
		</contour>
	</outline>
</glyph>
<glyph name="O" format="2">
	<advance width="1579"/>
	<unicode hex="004F"/>
	<anchor x="1006" y="1500" name="top"/>
	<anchor x="656" y="0" name="bottom"/>
	<outline>
		<contour>
			<point x="670" y="-20" type="curve" smooth="yes"/>
			<point x="1116" y="-20"/>
			<point x="1580" y="364"/>
			<point x="1580" y="990" type="curve" smooth="yes"/>
			<point x="1580" y="1316"/>
			<point x="1356" y="1520"/>
			<point x="1010" y="1520" type="curve" smooth="yes"/>
			<point x="584" y="1520"/>
			<point x="100" y="1136"/>
			<point x="100" y="510" type="curve" smooth="yes"/>
			<point x="100" y="184"/>
			<point x="304" y="-20"/>
		</contour>
		<contour>
			<point x="670" y="-16" type="curve" smooth="yes"/>
			<point x="562" y="-16"/>
			<point x="520" y="46"/>
			<point x="520" y="270" type="curve" smooth="yes"/>
			<point x="520" y="734"/>
			<point x="762" y="1516"/>
			<point x="1010" y="1516" type="curve" smooth="yes"/>
			<point x="1118" y="1516"/>
			<point x="1160" y="1414"/>
			<point x="1160" y="1230" type="curve" smooth="yes"/>
			<point x="1160" y="766"/>
			<point x="938" y="-16"/>
		</contour>
	</outline>
</glyph>
<glyph name="P" format="2">
	<advance width="1469"/>
	<unicode hex="0050"/>
	<anchor x="836" y="1500" name="top"/>
	<anchor x="279" y="0" name="bottom"/>
	<outline>
		<contour>
			<point x="70" y="0" type="line"/>
			<point x="500" y="0" type="line"/>
			<point x="850" y="1500" type="line"/>
			<point x="420" y="1500" type="line"/>
		</contour>
		<contour>
			<point x="-90" y="0" type="line"/>
			<point x="700" y="0" type="line"/>
			<point x="700" y="4" type="line"/>
			<point x="-90" y="4" type="line"/>
		</contour>
		<contour>
			<point x="630" y="678" type="line"/>
			<point x="850" y="678" type="line" smooth="yes"/>
			<point x="1252" y="678"/>
			<point x="1530" y="880"/>
			<point x="1530" y="1180" type="curve" smooth="yes"/>
			<point x="1530" y="1420"/>
			<point x="1312" y="1500"/>
			<point x="1050" y="1500" type="curve" smooth="yes"/>
			<point x="240" y="1500" type="line"/>
			<point x="240" y="1496" type="line"/>
			<point x="950" y="1496" type="line" smooth="yes"/>
			<point x="1042" y="1496"/>
			<point x="1074" y="1378"/>
			<point x="1074" y="1260" type="curve" smooth="yes"/>
			<point x="1074" y="1042"/>
			<point x="982" y="682"/>
			<point x="750" y="682" type="curve" smooth="yes"/>
			<point x="630" y="682" type="line"/>
		</contour>
	</outline>
</glyph>
<glyph name="T" format="2">
	<advance width="1443"/>
	<unicode hex="0054"/>
	<anchor x="626" y="0" name="cedilla"/>
	<anchor x="625" y="0" name="bottom"/>
	<anchor x="965" y="1500" name="top"/>
	<outline>
		<contour>
			<point x="386" y="0" type="line"/>
			<point x="816" y="0" type="line"/>
			<point x="1164" y="1500" type="line"/>
			<point x="734" y="1500" type="line"/>
		</contour>
		<contour>
			<point x="186" y="0" type="line"/>
			<point x="1056" y="0" type="line"/>
			<point x="1056" y="4" type="line"/>
			<point x="186" y="4" type="line"/>
		</contour>
		<contour>
			<point x="140" y="990" type="line"/>
			<point x="144" y="990" type="line"/>
			<point x="262" y="1242"/>
			<point x="470" y="1496"/>
			<point x="664" y="1496" type="curve" smooth="yes"/>
			<point x="1214" y="1496" type="line" smooth="yes"/>
			<point x="1408" y="1496"/>
			<point x="1524" y="1244"/>
			<point x="1526" y="990" type="curve"/>
			<point x="1530" y="990" type="line"/>
			<point x="1644" y="1500" type="line"/>
			<point x="254" y="1500" type="line"/>
		</contour>
	</outline>
</glyph>
<glyph name="V" format="2">
	<advance width="1629"/>
	<unicode hex="0056"/>
	<anchor x="1106" y="1500" name="top"/>
	<anchor x="702" y="0" name="bottom"/>
	<outline>
		<contour>
			<point x="560" y="0" type="line"/>
			<point x="760" y="0" type="line"/>
			<point x="1638" y="1500" type="line"/>
			<point x="1632" y="1500" type="line"/>
			<point x="944" y="326" type="line"/>
			<point x="820" y="1500" type="line"/>
			<point x="370" y="1500" type="line"/>
		</contour>
		<contour>
			<point x="230" y="1496" type="line"/>
			<point x="1050" y="1496" type="line"/>
			<point x="1050" y="1500" type="line"/>
			<point x="230" y="1500" type="line"/>
		</contour>
		<contour>
			<point x="1390" y="1496" type="line"/>
			<point x="1830" y="1496" type="line"/>
			<point x="1830" y="1500" type="line"/>
			<point x="1390" y="1500" type="line"/>
		</contour>
	</outline>
</glyph>
<glyph name="W" format="2">
	<advance width="2455"/>
	<unicode hex="0057"/>
	<anchor x="1526" y="1500" name="top"/>
	<anchor x="1196" y="0" name="bottom"/>
	<outline>
		<contour>
			<point x="1418" y="-20" type="line"/>
			<point x="1528" y="-20" type="line"/>
			<point x="2464" y="1500" type="line"/>
			<point x="2460" y="1500" type="line"/>
			<point x="1782" y="400" type="line"/>
			<point x="1576" y="1500" type="line"/>
			<point x="1136" y="1500" type="line"/>
		</contour>
		<contour>
			<point x="656" y="-20" type="line"/>
			<point x="826" y="-20" type="line"/>
			<point x="1412" y="954" type="line"/>
			<point x="1408" y="954" type="line"/>
			<point x="1074" y="398" type="line"/>
			<point x="878" y="1500" type="line"/>
			<point x="374" y="1500" type="line"/>
		</contour>
		<contour>
			<point x="230" y="1496" type="line"/>
			<point x="2180" y="1496" type="line"/>
			<point x="2180" y="1500" type="line"/>
			<point x="230" y="1500" type="line"/>
		</contour>
		<contour>
			<point x="1544" y="834" type="line"/>
			<point x="1548" y="834" type="line"/>
			<point x="1958" y="1500" type="line"/>
			<point x="1954" y="1500" type="line"/>
		</contour>
		<contour>
			<point x="2256" y="1496" type="line"/>
			<point x="2656" y="1496" type="line"/>
			<point x="2656" y="1500" type="line"/>
			<point x="2256" y="1500" type="line"/>
		</contour>
	</outline>
</glyph>
<glyph name="X" format="2">
	<advance width="1659"/>
	<unicode hex="0058"/>
	<anchor x="1146" y="1500" name="top"/>
	<anchor x="596" y="0" name="bottom"/>
	<outline>
		<contour>
			<point x="942" y="0" type="line"/>
			<point x="1412" y="0" type="line"/>
			<point x="902" y="1500" type="line"/>
			<point x="440" y="1500" type="line"/>
		</contour>
		<contour>
			<point x="-110" y="0" type="line"/>
			<point x="370" y="0" type="line"/>
			<point x="370" y="4" type="line"/>
			<point x="-110" y="4" type="line"/>
		</contour>
		<contour>
			<point x="96" y="0" type="line"/>
			<point x="102" y="0" type="line"/>
			<point x="886" y="834" type="line"/>
			<point x="880" y="834" type="line"/>
		</contour>
		<contour>
			<point x="750" y="0" type="line"/>
			<point x="1550" y="0" type="line"/>
			<point x="1550" y="4" type="line"/>
			<point x="750" y="4" type="line"/>
		</contour>
		<contour>
			<point x="300" y="1496" type="line"/>
			<point x="1100" y="1496" type="line"/>
			<point x="1100" y="1500" type="line"/>
			<point x="300" y="1500" type="line"/>
		</contour>
		<contour>
			<point x="902" y="754" type="line"/>
			<point x="910" y="754" type="line"/>
			<point x="1572" y="1496" type="line"/>
			<point x="1566" y="1496" type="line"/>
		</contour>
		<contour>
			<point x="1340" y="1496" type="line"/>
			<point x="1780" y="1496" type="line"/>
			<point x="1780" y="1500" type="line"/>
			<point x="1340" y="1500" type="line"/>
		</contour>
	</outline>
</glyph>
<glyph name="Y" format="2">
  <advance width="1559"/>
  <unicode hex="0059"/>
  <anchor x="683" y="0" name="bottom"/>
  <anchor x="1086" y="1500" name="top"/>
  <outline>
    <contour>
      <point x="1760" y="1496" type="line"/>
      <point x="1340" y="1496" type="line"/>
      <point x="1340" y="1500" type="line"/>
      <point x="1760" y="1500" type="line"/>
    </contour>
    <contour>
      <point x="1030" y="1496" type="line"/>
      <point x="230" y="1496" type="line"/>
      <point x="230" y="1500" type="line"/>
      <point x="1030" y="1500" type="line"/>
    </contour>
    <contour>
      <point x="280" y="4" type="line"/>
      <point x="1090" y="4" type="line"/>
      <point x="1090" y="0" type="line"/>
      <point x="280" y="0" type="line"/>
    </contour>
    <contour>
      <point x="1056" y="808" type="line"/>
      <point x="1594" y="1496" type="line"/>
      <point x="1600" y="1496" type="line"/>
      <point x="1058" y="802" type="line"/>
      <point x="890" y="0" type="line"/>
      <point x="460" y="0" type="line"/>
      <point x="630" y="754" type="line"/>
      <point x="370" y="1500" type="line"/>
      <point x="830" y="1500" type="line"/>
    </contour>
  </outline>
</glyph>
<glyph name="asciicircum" format="2">
	<advance width="1089"/>
	<unicode hex="005E"/>
	<outline>
		<contour>
			<point x="440" y="1240" type="line"/>
			<point x="816" y="1446" type="line"/>
			<point x="1090" y="1240" type="line"/>
			<point x="1110" y="1260" type="line"/>
			<point x="890" y="1540" type="line"/>
			<point x="760" y="1540" type="line"/>
			<point x="420" y="1260" type="line"/>
		</contour>
	</outline>
</glyph>
<glyph name="grave" format="2">
	<advance width="829"/>
	<unicode hex="0060"/>
	<outline>
		<contour>
			<point x="568" y="1360" type="curve" smooth="yes"/>
			<point x="1000" y="1458" type="line"/>
			<point x="1002" y="1462" type="line"/>
			<point x="588" y="1656" type="line" smooth="yes"/>
			<point x="490" y="1702"/>
			<point x="378" y="1608"/>
			<point x="378" y="1510" type="curve" smooth="yes"/>
			<point x="378" y="1412"/>
			<point x="471" y="1338"/>
		</contour>
	</outline>
</glyph>
<glyph name="a" format="2">
	<advance width="1359"/>
	<unicode hex="0061"/>
	<anchor x="863" y="0" name="cedilla"/>
	<anchor x="416" y="0" name="bottom"/>
	<anchor x="686" y="920" name="top"/>
	<outline>
		<contour>
			<point x="348" y="-20" type="curve" smooth="yes"/>
			<point x="630" y="-20"/>
			<point x="762" y="412"/>
			<point x="762" y="628" type="curve" smooth="yes"/>
			<point x="762" y="812"/>
			<point x="714" y="938"/>
			<point x="562" y="938" type="curve" smooth="yes"/>
			<point x="344" y="938"/>
			<point x="30" y="720"/>
			<point x="30" y="320" type="curve" smooth="yes"/>
			<point x="30" y="60"/>
			<point x="210" y="-20"/>
		</contour>
		<contour>
			<point x="508" y="78" type="curve" smooth="yes"/>
			<point x="466" y="78"/>
			<point x="438" y="132"/>
			<point x="438" y="220" type="curve" smooth="yes"/>
			<point x="438" y="488"/>
			<point x="588" y="842"/>
			<point x="676" y="842" type="curve" smooth="yes"/>
			<point x="738" y="842"/>
			<point x="758" y="734"/>
			<point x="758" y="628" type="curve" smooth="yes"/>
			<point x="758" y="420"/>
			<point x="636" y="78"/>
		</contour>
		<contour>
			<point x="864" y="-20" type="curve" smooth="yes"/>
			<point x="1086" y="-20"/>
			<point x="1244" y="126"/>
			<point x="1320" y="326" type="curve"/>
			<point x="1318" y="328" type="line"/>
			<point x="1264" y="184"/>
			<point x="1136" y="32"/>
			<point x="1022" y="32" type="curve" smooth="yes"/>
			<point x="996" y="32"/>
			<point x="984" y="54"/>
			<point x="984" y="76" type="curve" smooth="yes"/>
			<point x="984" y="86"/>
			<point x="986" y="100"/>
			<point x="988" y="112" type="curve" smooth="yes"/>
			<point x="1216" y="920" type="line"/>
			<point x="850" y="920" type="line"/>
			<point x="760" y="606" type="line"/>
			<point x="746" y="480" type="line"/>
			<point x="714" y="356" type="line"/>
			<point x="670" y="210" type="line" smooth="yes"/>
			<point x="664" y="191"/>
			<point x="662" y="156"/>
			<point x="662" y="146" type="curve" smooth="yes"/>
			<point x="662" y="44"/>
			<point x="710" y="-20"/>
		</contour>
	</outline>
</glyph>
<glyph name="b" format="2">
  <advance width="1090"/>
  <unicode hex="0062"/>
  <anchor x="396" y="0" name="bottom"/>
  <anchor x="826" y="920" name="top"/>
  <outline>
    <contour>
      <point x="357" y="1496" type="line"/>
      <point x="210" y="1496" type="line"/>
      <point x="210" y="1500" type="line"/>
      <point x="717" y="1500" type="line"/>
      <point x="332" y="69" type="line"/>
      <point x="332" y="39"/>
      <point x="338" y="-4"/>
      <point x="363" y="-4" type="curve" smooth="yes"/>
      <point x="479" y="-4"/>
      <point x="675" y="534"/>
      <point x="675" y="772" type="curve" smooth="yes"/>
      <point x="675" y="835"/>
      <point x="660" y="871"/>
      <point x="630" y="871" type="curve" smooth="yes"/>
      <point x="528" y="871"/>
      <point x="461" y="549"/>
      <point x="410" y="360" type="curve"/>
      <point x="406" y="360" type="line"/>
      <point x="504" y="714"/>
      <point x="534" y="938"/>
      <point x="766" y="938" type="curve" smooth="yes"/>
      <point x="960" y="938"/>
      <point x="1045" y="811"/>
      <point x="1045" y="615" type="curve" smooth="yes"/>
      <point x="1045" y="303"/>
      <point x="779" y="-20"/>
      <point x="461" y="-20" type="curve" smooth="yes"/>
      <point x="299" y="-20"/>
      <point x="120" y="74"/>
      <point x="20" y="240" type="curve"/>
    </contour>
  </outline>
</glyph>
<glyph name="c" format="2">
	<advance width="1047"/>
	<unicode hex="0063"/>
	<anchor x="391" y="0" name="cedilla"/>
	<anchor x="391" y="0" name="bottom"/>
	<anchor x="691" y="920" name="top"/>
	<outline>
		<contour>
			<point x="393" y="-20" type="curve" smooth="yes"/>
			<point x="625" y="-20"/>
			<point x="776" y="117"/>
			<point x="888" y="286" type="curve"/>
			<point x="884" y="286" type="line"/>
			<point x="790" y="147"/>
			<point x="666" y="28"/>
			<point x="544" y="28" type="curve" smooth="yes"/>
			<point x="461" y="28"/>
			<point x="437" y="141"/>
			<point x="437" y="280" type="curve" smooth="yes"/>
			<point x="437" y="538"/>
			<point x="569" y="925"/>
			<point x="742" y="925" type="curve" smooth="yes"/>
			<point x="919" y="925"/>
			<point x="1027" y="783"/>
			<point x="1027" y="666" type="curve"/>
			<point x="1029" y="666" type="line"/>
			<point x="1029" y="786"/>
			<point x="930" y="872"/>
			<point x="823" y="872" type="curve" smooth="yes"/>
			<point x="712" y="872"/>
			<point x="609" y="784"/>
			<point x="609" y="664" type="curve" smooth="yes"/>
			<point x="609" y="534"/>
			<point x="733" y="452"/>
			<point x="823" y="452" type="curve" smooth="yes"/>
			<point x="924" y="452"/>
			<point x="1031" y="544"/>
			<point x="1031" y="666" type="curve" smooth="yes"/>
			<point x="1031" y="786"/>
			<point x="923" y="940"/>
			<point x="689" y="940" type="curve" smooth="yes"/>
			<point x="417" y="940"/>
			<point x="31" y="730"/>
			<point x="31" y="320" type="curve" smooth="yes"/>
			<point x="31" y="70"/>
			<point x="191" y="-20"/>
		</contour>
	</outline>
</glyph>
<glyph name="d" format="2">
	<advance width="1399"/>
	<unicode hex="0064"/>
	<anchor x="826" y="0" name="cedilla"/>
	<anchor x="486" y="0" name="bottom"/>
	<anchor x="496" y="920" name="top"/>
	<outline>
		<contour>
			<point x="904" y="-20" type="curve" smooth="yes"/>
			<point x="1126" y="-20"/>
			<point x="1284" y="126"/>
			<point x="1360" y="326" type="curve"/>
			<point x="1358" y="328" type="line"/>
			<point x="1306" y="178"/>
			<point x="1168" y="28"/>
			<point x="1062" y="28" type="curve" smooth="yes"/>
			<point x="1032" y="28"/>
			<point x="1026" y="54"/>
			<point x="1026" y="76" type="curve" smooth="yes"/>
			<point x="1026" y="86"/>
			<point x="1028" y="100"/>
			<point x="1030" y="112" type="curve" smooth="yes"/>
			<point x="1350" y="1500" type="line"/>
			<point x="784" y="1500" type="line"/>
			<point x="784" y="1496" type="line"/>
			<point x="970" y="1496" type="line"/>
			<point x="760" y="596" type="line"/>
			<point x="748" y="496" type="line"/>
			<point x="716" y="362" type="line"/>
			<point x="676" y="210" type="line" smooth="yes"/>
			<point x="673" y="198"/>
			<point x="670" y="176"/>
			<point x="670" y="166" type="curve" smooth="yes"/>
			<point x="670" y="26"/>
			<point x="750" y="-20"/>
		</contour>
		<contour>
			<point x="348" y="-20" type="curve" smooth="yes"/>
			<point x="630" y="-20"/>
			<point x="762" y="412"/>
			<point x="762" y="628" type="curve" smooth="yes"/>
			<point x="762" y="812"/>
			<point x="714" y="938"/>
			<point x="562" y="938" type="curve" smooth="yes"/>
			<point x="344" y="938"/>
			<point x="30" y="720"/>
			<point x="30" y="320" type="curve" smooth="yes"/>
			<point x="30" y="60"/>
			<point x="210" y="-20"/>
		</contour>
		<contour>
			<point x="508" y="78" type="curve" smooth="yes"/>
			<point x="466" y="78"/>
			<point x="438" y="132"/>
			<point x="438" y="220" type="curve" smooth="yes"/>
			<point x="438" y="488"/>
			<point x="588" y="842"/>
			<point x="676" y="842" type="curve" smooth="yes"/>
			<point x="738" y="842"/>
			<point x="758" y="734"/>
			<point x="758" y="628" type="curve" smooth="yes"/>
			<point x="758" y="420"/>
			<point x="636" y="78"/>
		</contour>
	</outline>
</glyph>
<glyph name="f" format="2">
  <advance width="917"/>
  <unicode hex="0066"/>
  <anchor x="-134" y="-500" name="bottom"/>
  <anchor x="896" y="1497" name="top"/>
  <outline>
    <contour>
      <point x="133" y="920" type="line"/>
      <point x="944" y="920" type="line"/>
      <point x="944" y="916" type="line"/>
      <point x="133" y="916" type="line"/>
    </contour>
    <contour>
      <point x="1233" y="1277" type="line"/>
      <point x="1233" y="1392"/>
      <point x="1120" y="1500"/>
      <point x="970" y="1500" type="curve" smooth="yes"/>
      <point x="769" y="1500"/>
      <point x="747.833" y="1204.37"/>
      <point x="675" y="897" type="curve" smooth="yes"/>
      <point x="465" y="-23" type="line" smooth="yes"/>
      <point x="387.385" y="-363.026"/>
      <point x="227" y="-520"/>
      <point x="-85" y="-520" type="curve" smooth="yes"/>
      <point x="-301" y="-520"/>
      <point x="-432" y="-406"/>
      <point x="-432" y="-277" type="curve" smooth="yes"/>
      <point x="-432" y="-155"/>
      <point x="-334" y="-68"/>
      <point x="-228" y="-68" type="curve" smooth="yes"/>
      <point x="-108" y="-68"/>
      <point x="-24" y="-155"/>
      <point x="-24" y="-267" type="curve" smooth="yes"/>
      <point x="-24" y="-382"/>
      <point x="-121" y="-468"/>
      <point x="-240" y="-468" type="curve" smooth="yes"/>
      <point x="-337" y="-468"/>
      <point x="-430" y="-385"/>
      <point x="-430" y="-277" type="curve"/>
      <point x="-428" y="-277" type="line"/>
      <point x="-428" y="-392"/>
      <point x="-314" y="-500"/>
      <point x="-165" y="-500" type="curve" smooth="yes"/>
      <point x="36" y="-500"/>
      <point x="65.2676" y="-203.946"/>
      <point x="138" y="103" type="curve" smooth="yes"/>
      <point x="348" y="1023" type="line" smooth="yes"/>
      <point x="428.872" y="1364.29"/>
      <point x="580" y="1520"/>
      <point x="890" y="1520" type="curve" smooth="yes"/>
      <point x="1107" y="1520"/>
      <point x="1237" y="1406"/>
      <point x="1237" y="1277" type="curve" smooth="yes"/>
      <point x="1237" y="1160"/>
      <point x="1144" y="1068"/>
      <point x="1033" y="1068" type="curve" smooth="yes"/>
      <point x="923" y="1068"/>
      <point x="829" y="1154"/>
      <point x="829" y="1267" type="curve" smooth="yes"/>
      <point x="829" y="1382"/>
      <point x="926" y="1468"/>
      <point x="1045" y="1468" type="curve" smooth="yes"/>
      <point x="1142" y="1468"/>
      <point x="1235" y="1385"/>
      <point x="1235" y="1277" type="curve"/>
    </contour>
  </outline>
</glyph>
<glyph name="g" format="2">
  <advance width="1270"/>
  <unicode hex="0067"/>
  <anchor x="326" y="-500" name="cedilla"/>
  <anchor x="325" y="-500" name="bottom"/>
  <anchor x="680" y="920" name="top"/>
  <outline>
    <contour>
      <point x="1336" y="739" type="line"/>
      <point x="1336" y="842"/>
      <point x="1251" y="926"/>
      <point x="1133" y="926" type="curve" smooth="yes"/>
      <point x="1006" y="926"/>
      <point x="916" y="858"/>
      <point x="842" y="708" type="curve"/>
      <point x="839" y="709" type="line"/>
      <point x="909" y="857"/>
      <point x="1003" y="930"/>
      <point x="1133" y="930" type="curve" smooth="yes"/>
      <point x="1251" y="930"/>
      <point x="1340" y="845"/>
      <point x="1340" y="739" type="curve" smooth="yes"/>
      <point x="1340" y="644"/>
      <point x="1283" y="569"/>
      <point x="1178" y="569" type="curve" smooth="yes"/>
      <point x="1098" y="569"/>
      <point x="1033" y="632"/>
      <point x="1033" y="718" type="curve" smooth="yes"/>
      <point x="1033" y="800"/>
      <point x="1107" y="863"/>
      <point x="1195" y="863" type="curve" smooth="yes"/>
      <point x="1264" y="863"/>
      <point x="1338" y="814"/>
      <point x="1338" y="739" type="curve"/>
    </contour>
    <contour>
      <point x="203" y="-110" type="line"/>
      <point x="159" y="-136"/>
      <point x="87" y="-230"/>
      <point x="87" y="-334" type="curve" smooth="yes"/>
      <point x="87" y="-470"/>
      <point x="193" y="-504"/>
      <point x="370" y="-504" type="curve" smooth="yes"/>
      <point x="576" y="-504"/>
      <point x="859" y="-368"/>
      <point x="859" y="-228" type="curve" smooth="yes"/>
      <point x="859" y="-170"/>
      <point x="830" y="-118"/>
      <point x="740" y="-118" type="curve" smooth="yes"/>
      <point x="678" y="-118"/>
      <point x="337" y="-118"/>
      <point x="293" y="-118" type="curve" smooth="yes"/>
      <point x="113" y="-118"/>
      <point x="-54" y="-41"/>
      <point x="-54" y="93" type="curve" smooth="yes"/>
      <point x="-54" y="260"/>
      <point x="190" y="337"/>
      <point x="390" y="337" type="curve"/>
      <point x="390" y="333" type="line"/>
      <point x="244" y="333"/>
      <point x="179" y="289"/>
      <point x="179" y="251" type="curve" smooth="yes"/>
      <point x="179" y="206"/>
      <point x="235" y="199"/>
      <point x="354" y="199" type="curve" smooth="yes"/>
      <point x="424" y="199"/>
      <point x="559" y="201"/>
      <point x="616" y="201" type="curve" smooth="yes"/>
      <point x="796" y="201"/>
      <point x="921" y="108"/>
      <point x="921" y="-84" type="curve" smooth="yes"/>
      <point x="921" y="-376"/>
      <point x="589" y="-520"/>
      <point x="280" y="-520" type="curve" smooth="yes"/>
      <point x="33" y="-520"/>
      <point x="-170" y="-461"/>
      <point x="-170" y="-301" type="curve" smooth="yes"/>
      <point x="-170" y="-199"/>
      <point x="-33" y="-110"/>
      <point x="198" y="-110" type="curve" smooth="yes"/>
    </contour>
    <contour>
      <point x="458" y="328" type="curve" smooth="yes"/>
      <point x="516" y="328"/>
      <point x="651" y="803"/>
      <point x="651" y="901" type="curve" smooth="yes"/>
      <point x="651" y="919"/>
      <point x="651" y="933"/>
      <point x="638" y="933" type="curve" smooth="yes"/>
      <point x="580" y="933"/>
      <point x="445" y="459"/>
      <point x="445" y="361" type="curve" smooth="yes"/>
      <point x="445" y="343"/>
      <point x="447" y="328"/>
    </contour>
    <contour>
      <point x="498" y="320" type="curve" smooth="yes"/>
      <point x="266" y="320"/>
      <point x="95" y="423"/>
      <point x="95" y="593" type="curve" smooth="yes"/>
      <point x="95" y="784"/>
      <point x="325" y="939"/>
      <point x="598" y="939" type="curve" smooth="yes"/>
      <point x="830" y="939"/>
      <point x="1001" y="827"/>
      <point x="1001" y="657" type="curve" smooth="yes"/>
      <point x="1001" y="466"/>
      <point x="771" y="320"/>
    </contour>
  </outline>
</glyph>
<glyph name="g" format="2">
	<advance width="1419"/>
	<unicode hex="0067"/>
	<anchor x="476" y="-500" name="cedilla"/>
	<anchor x="475" y="-500" name="bottom"/>
	<anchor x="780" y="920" name="top"/>
	<outline>
		<contour>
			<point x="486" y="-520" type="curve" smooth="yes"/>
			<point x="746" y="-520"/>
			<point x="1080" y="-406"/>
			<point x="1080" y="-84" type="curve" smooth="yes"/>
			<point x="1080" y="88"/>
			<point x="982" y="200"/>
			<point x="772" y="200" type="curve" smooth="yes"/>
			<point x="716" y="200"/>
			<point x="560" y="198"/>
			<point x="490" y="198" type="curve" smooth="yes"/>
			<point x="380" y="198"/>
			<point x="310" y="218"/>
			<point x="310" y="252" type="curve" smooth="yes"/>
			<point x="310" y="314"/>
			<point x="498" y="320"/>
			<point x="564" y="320" type="curve"/>
			<point x="564" y="324" type="line"/>
			<point x="354" y="324"/>
			<point x="72" y="266"/>
			<point x="72" y="98" type="curve" smooth="yes"/>
			<point x="72" y="-26"/>
			<point x="218" y="-118"/>
			<point x="398" y="-118" type="curve" smooth="yes"/>
			<point x="442" y="-118"/>
			<point x="744" y="-118"/>
			<point x="786" y="-118" type="curve" smooth="yes"/>
			<point x="896" y="-118"/>
			<point x="970" y="-146"/>
			<point x="970" y="-254" type="curve" smooth="yes"/>
			<point x="970" y="-462"/>
			<point x="644" y="-516"/>
			<point x="486" y="-516" type="curve" smooth="yes"/>
			<point x="294" y="-516"/>
			<point x="206" y="-420"/>
			<point x="206" y="-284" type="curve" smooth="yes"/>
			<point x="206" y="-180"/>
			<point x="264" y="-120"/>
			<point x="314" y="-110" type="curve"/>
			<point x="294" y="-110" type="line" smooth="yes"/>
			<point x="204" y="-110"/>
			<point x="-90" y="-128"/>
			<point x="-90" y="-310" type="curve" smooth="yes"/>
			<point x="-90" y="-480"/>
			<point x="240" y="-520"/>
		</contour>
		<contour>
			<point x="564" y="320" type="curve" smooth="yes"/>
			<point x="846" y="320"/>
			<point x="1100" y="470"/>
			<point x="1100" y="690" type="curve" smooth="yes"/>
			<point x="1100" y="870"/>
			<point x="926" y="940"/>
			<point x="704" y="940" type="curve" smooth="yes"/>
			<point x="422" y="940"/>
			<point x="168" y="790"/>
			<point x="168" y="570" type="curve" smooth="yes"/>
			<point x="168" y="390"/>
			<point x="342" y="320"/>
		</contour>
		<contour>
			<point x="574" y="324" type="curve" smooth="yes"/>
			<point x="536" y="324"/>
			<point x="536" y="402"/>
			<point x="536" y="450" type="curve" smooth="yes"/>
			<point x="536" y="638"/>
			<point x="636" y="936"/>
			<point x="694" y="936" type="curve" smooth="yes"/>
			<point x="732" y="936"/>
			<point x="732" y="858"/>
			<point x="732" y="810" type="curve" smooth="yes"/>
			<point x="732" y="622"/>
			<point x="632" y="324"/>
		</contour>
		<contour>
			<point x="1309" y="569" type="curve" smooth="yes"/>
			<point x="1389" y="569"/>
			<point x="1465" y="644"/>
			<point x="1465" y="729" type="curve" smooth="yes"/>
			<point x="1465" y="855"/>
			<point x="1381" y="930"/>
			<point x="1263" y="930" type="curve" smooth="yes"/>
			<point x="1155" y="930"/>
			<point x="1029" y="847"/>
			<point x="959" y="699" type="curve"/>
			<point x="963" y="699" type="line"/>
			<point x="1033" y="844"/>
			<point x="1160" y="926"/>
			<point x="1263" y="926" type="curve" smooth="yes"/>
			<point x="1381" y="926"/>
			<point x="1461" y="851"/>
			<point x="1461" y="729" type="curve"/>
			<point x="1463" y="729" type="line"/>
			<point x="1463" y="814"/>
			<point x="1388" y="863"/>
			<point x="1309" y="863" type="curve" smooth="yes"/>
			<point x="1231" y="863"/>
			<point x="1158" y="817"/>
			<point x="1158" y="720" type="curve" smooth="yes"/>
			<point x="1158" y="624"/>
			<point x="1229" y="569"/>
		</contour>
	</outline>
</glyph>
<glyph name="i" format="2">
  <advance width="705"/>
  <unicode hex="0069"/>
  <anchor x="275" y="0" name="cedilla"/>
  <anchor x="275" y="0" name="bottom"/>
  <outline>
    <contour>
      <point x="296" y="1300" type="curve" smooth="yes"/>
      <point x="296" y="1416"/>
      <point x="389" y="1520"/>
      <point x="515" y="1520" type="curve" smooth="yes"/>
      <point x="641" y="1520"/>
      <point x="736" y="1416"/>
      <point x="736" y="1300" type="curve" smooth="yes"/>
      <point x="736" y="1184"/>
      <point x="641" y="1079"/>
      <point x="515" y="1079" type="curve" smooth="yes"/>
      <point x="389" y="1079"/>
      <point x="296" y="1184"/>
    </contour>
    <contour>
      <point x="639" y="329" type="line"/>
      <point x="538" y="119"/>
      <point x="450" y="-20"/>
      <point x="267" y="-20" type="curve" smooth="yes"/>
      <point x="113" y="-20"/>
      <point x="62" y="38"/>
      <point x="62" y="134" type="curve" smooth="yes"/>
      <point x="62" y="184"/>
      <point x="77.2254" y="237.976"/>
      <point x="83" y="260" type="curve" smooth="yes"/>
      <point x="255" y="916" type="line"/>
      <point x="121" y="916" type="line"/>
      <point x="121" y="920" type="line"/>
      <point x="614" y="920" type="line"/>
      <point x="389" y="71" type="line" smooth="yes"/>
      <point x="385.988" y="59.7236"/>
      <point x="385" y="51"/>
      <point x="385" y="42" type="curve" smooth="yes"/>
      <point x="385" y="32"/>
      <point x="390" y="27"/>
      <point x="398" y="27" type="curve" smooth="yes"/>
      <point x="413" y="27"/>
      <point x="504" y="46"/>
      <point x="635" y="330" type="curve"/>
    </contour>
  </outline>
</glyph>
<glyph name="i" format="2">
	<advance width="827"/>
	<unicode hex="0069"/>
	<anchor x="325" y="0" name="cedilla"/>
	<anchor x="325" y="0" name="bottom"/>
	<outline>
		<contour>
			<point x="332" y="-20" type="curve" smooth="yes"/>
			<point x="554" y="-20"/>
			<point x="712" y="126"/>
			<point x="788" y="326" type="curve"/>
			<point x="786" y="328" type="line"/>
			<point x="718" y="144"/>
			<point x="580" y="28"/>
			<point x="492" y="28" type="curve" smooth="yes"/>
			<point x="466" y="28"/>
			<point x="456" y="54"/>
			<point x="456" y="76" type="curve" smooth="yes"/>
			<point x="456" y="86"/>
			<point x="458" y="100"/>
			<point x="460" y="112" type="curve" smooth="yes"/>
			<point x="664" y="920" type="line"/>
			<point x="120" y="920" type="line"/>
			<point x="120" y="916" type="line"/>
			<point x="284" y="916" type="line"/>
			<point x="104" y="210" type="line" smooth="yes"/>
			<point x="100" y="198"/>
			<point x="100" y="176"/>
			<point x="100" y="166" type="curve" smooth="yes"/>
			<point x="100" y="26"/>
			<point x="178" y="-20"/>
		</contour>
		<contour>
			<point x="500" y="1080" type="curve" smooth="yes"/>
			<point x="626" y="1080"/>
			<point x="720" y="1174"/>
			<point x="720" y="1300" type="curve" smooth="yes"/>
			<point x="720" y="1426"/>
			<point x="626" y="1520"/>
			<point x="500" y="1520" type="curve" smooth="yes"/>
			<point x="374" y="1520"/>
			<point x="280" y="1426"/>
			<point x="280" y="1300" type="curve" smooth="yes"/>
			<point x="280" y="1174"/>
			<point x="374" y="1080"/>
		</contour>
	</outline>
</glyph>
<glyph name="j" format="2">
  <advance width="670"/>
  <unicode hex="006A"/>
  <anchor x="-141" y="-500" name="bottom"/>
  <outline>
    <contour>
      <point x="331" y="1300" type="curve" smooth="yes"/>
      <point x="331" y="1426"/>
      <point x="425" y="1520"/>
      <point x="551" y="1520" type="curve" smooth="yes"/>
      <point x="677" y="1520"/>
      <point x="770" y="1426"/>
      <point x="770" y="1300" type="curve" smooth="yes"/>
      <point x="770" y="1174"/>
      <point x="677" y="1079"/>
      <point x="551" y="1079" type="curve" smooth="yes"/>
      <point x="425" y="1079"/>
      <point x="331" y="1174"/>
    </contour>
    <contour>
      <point x="653" y="920" type="line"/>
      <point x="411" y="-23" type="line" smooth="yes"/>
      <point x="322.503" y="-367.847"/>
      <point x="11" y="-520"/>
      <point x="-209" y="-520" type="curve" smooth="yes"/>
      <point x="-422" y="-520"/>
      <point x="-515" y="-380"/>
      <point x="-515" y="-277" type="curve" smooth="yes"/>
      <point x="-515" y="-155"/>
      <point x="-427" y="-68"/>
      <point x="-311" y="-68" type="curve" smooth="yes"/>
      <point x="-191" y="-68"/>
      <point x="-107" y="-146"/>
      <point x="-107" y="-266" type="curve" smooth="yes"/>
      <point x="-107" y="-357"/>
      <point x="-190" y="-445"/>
      <point x="-307" y="-445" type="curve" smooth="yes"/>
      <point x="-415" y="-445"/>
      <point x="-513" y="-377"/>
      <point x="-513" y="-277" type="curve"/>
      <point x="-511" y="-277" type="line"/>
      <point x="-511" y="-379"/>
      <point x="-419" y="-516"/>
      <point x="-209" y="-516" type="curve" smooth="yes"/>
      <point x="-69" y="-516"/>
      <point x="-19.8542" y="-338.173"/>
      <point x="42" y="-87" type="curve" smooth="yes"/>
      <point x="289" y="916" type="line"/>
      <point x="167" y="916" type="line"/>
      <point x="167" y="920" type="line"/>
    </contour>
  </outline>
</glyph>
<glyph name="l" format="2">
	<advance width="807"/>
	<unicode hex="006C"/>
	<anchor x="246" y="0" name="cedilla"/>
	<anchor x="244" y="0" name="bottom"/>
	<anchor x="398" y="1500" name="top"/>
	<outline>
		<contour>
			<point x="312" y="-20" type="curve" smooth="yes"/>
			<point x="534" y="-20"/>
			<point x="692" y="126"/>
			<point x="768" y="326" type="curve"/>
			<point x="766" y="328" type="line"/>
			<point x="698" y="142"/>
			<point x="554" y="28"/>
			<point x="472" y="28" type="curve" smooth="yes"/>
			<point x="446" y="28"/>
			<point x="436" y="54"/>
			<point x="436" y="76" type="curve" smooth="yes"/>
			<point x="436" y="86"/>
			<point x="438" y="100"/>
			<point x="440" y="112" type="curve" smooth="yes"/>
			<point x="758" y="1500" type="line"/>
			<point x="192" y="1500" type="line"/>
			<point x="192" y="1496" type="line"/>
			<point x="378" y="1496" type="line"/>
			<point x="84" y="210" type="line" smooth="yes"/>
			<point x="82" y="198"/>
			<point x="80" y="176"/>
			<point x="80" y="166" type="curve" smooth="yes"/>
			<point x="80" y="26"/>
			<point x="158" y="-20"/>
		</contour>
	</outline>
</glyph>
<glyph name="m" format="2">
  <advance width="1669"/>
  <unicode hex="006D"/>
  <anchor x="695" y="0" name="bottom"/>
  <anchor x="966" y="920" name="top"/>
  <outline>
    <contour>
      <point x="1217" y="616" type="line" smooth="yes"/>
      <point x="1262.47" y="771.904"/>
      <point x="1273" y="825"/>
      <point x="1257" y="825" type="curve" smooth="yes"/>
      <point x="1211" y="825"/>
      <point x="1044" y="573"/>
      <point x="960" y="266" type="curve"/>
      <point x="956" y="266" type="line"/>
      <point x="1039" y="574"/>
      <point x="1235" y="939"/>
      <point x="1434" y="939" type="curve" smooth="yes"/>
      <point x="1603" y="939"/>
      <point x="1629.78" y="800.504"/>
      <point x="1583" y="639" type="curve" smooth="yes"/>
      <point x="1423" y="86" type="line" smooth="yes"/>
      <point x="1416.82" y="64.6309"/>
      <point x="1410" y="37"/>
      <point x="1410" y="27" type="curve" smooth="yes"/>
      <point x="1410" y="19"/>
      <point x="1412" y="14"/>
      <point x="1420" y="14" type="curve" smooth="yes"/>
      <point x="1434" y="14"/>
      <point x="1540" y="38"/>
      <point x="1665" y="330" type="curve"/>
      <point x="1669" y="329" type="line"/>
      <point x="1561" y="77"/>
      <point x="1464" y="-20"/>
      <point x="1307" y="-20" type="curve" smooth="yes"/>
      <point x="1164" y="-20"/>
      <point x="1098" y="58"/>
      <point x="1098" y="164" type="curve" smooth="yes"/>
      <point x="1098" y="193"/>
      <point x="1107.35" y="241.012"/>
      <point x="1117" y="274" type="curve" smooth="yes"/>
    </contour>
    <contour>
      <point x="889" y="0" type="line"/>
      <point x="530" y="0" type="line"/>
      <point x="695" y="616" type="line" smooth="yes"/>
      <point x="733" y="774"/>
      <point x="754" y="837"/>
      <point x="736" y="837" type="curve" smooth="yes"/>
      <point x="690" y="837"/>
      <point x="513" y="573"/>
      <point x="430" y="266" type="curve"/>
      <point x="426" y="266" type="line"/>
      <point x="508" y="561"/>
      <point x="702" y="939"/>
      <point x="899" y="939" type="curve" smooth="yes"/>
      <point x="1052" y="939"/>
      <point x="1104.29" y="799.844"/>
      <point x="1061" y="639" type="curve" smooth="yes"/>
    </contour>
    <contour>
      <point x="246" y="916" type="line"/>
      <point x="105" y="916" type="line"/>
      <point x="105" y="920" type="line"/>
      <point x="605" y="920" type="line"/>
      <point x="360" y="0" type="line"/>
      <point x="0" y="0" type="line"/>
    </contour>
  </outline>
</glyph>
<glyph name="n" format="2">
  <advance width="1165"/>
  <unicode hex="006E"/>
  <anchor x="146" y="0" name="cedilla"/>
  <anchor x="486" y="0" name="bottom"/>
  <anchor x="682" y="920" name="top"/>
  <outline>
    <contour>
      <point x="245" y="916" type="line"/>
      <point x="100" y="916" type="line"/>
      <point x="100" y="920" type="line"/>
      <point x="610" y="920" type="line"/>
      <point x="359" y="0" type="line"/>
      <point x="0" y="0" type="line"/>
    </contour>
    <contour>
      <point x="719" y="656" type="line" smooth="yes"/>
      <point x="762.888" y="812.349"/>
      <point x="756" y="841"/>
      <point x="734" y="841" type="curve" smooth="yes"/>
      <point x="698" y="841"/>
      <point x="528" y="623"/>
      <point x="431" y="266" type="curve"/>
      <point x="426" y="266" type="line"/>
      <point x="511" y="569"/>
      <point x="695" y="939"/>
      <point x="902" y="939" type="curve" smooth="yes"/>
      <point x="1055" y="939"/>
      <point x="1129.12" y="818.956"/>
      <point x="1077" y="639" type="curve" smooth="yes"/>
      <point x="930" y="126" type="line" smooth="yes"/>
      <point x="927.034" y="115.702"/>
      <point x="923" y="96"/>
      <point x="923" y="86" type="curve" smooth="yes"/>
      <point x="923" y="63"/>
      <point x="930" y="56"/>
      <point x="943" y="56" type="curve" smooth="yes"/>
      <point x="990" y="56"/>
      <point x="1084" y="159"/>
      <point x="1161" y="330" type="curve"/>
      <point x="1165" y="329" type="line"/>
      <point x="1054" y="77"/>
      <point x="918" y="-20"/>
      <point x="771" y="-20" type="curve" smooth="yes"/>
      <point x="657" y="-20"/>
      <point x="592" y="58"/>
      <point x="592" y="164" type="curve" smooth="yes"/>
      <point x="592" y="195"/>
      <point x="601.429" y="241.185"/>
      <point x="611" y="274" type="curve" smooth="yes"/>
    </contour>
  </outline>
</glyph>
<glyph name="n" format="2">
	<advance width="1349"/>
	<unicode hex="006E"/>
	<anchor x="146" y="0" name="cedilla"/>
	<anchor x="486" y="0" name="bottom"/>
	<anchor x="636" y="920" name="top"/>
	<outline>
		<contour>
			<point x="884" y="-20" type="curve" smooth="yes"/>
			<point x="1106" y="-20"/>
			<point x="1224" y="126"/>
			<point x="1300" y="326" type="curve"/>
			<point x="1298" y="328" type="line"/>
			<point x="1230" y="138"/>
			<point x="1108" y="14"/>
			<point x="1002" y="14" type="curve" smooth="yes"/>
			<point x="976" y="14"/>
			<point x="964" y="26"/>
			<point x="964" y="48" type="curve" smooth="yes"/>
			<point x="964" y="58"/>
			<point x="966" y="72"/>
			<point x="970" y="84" type="curve" smooth="yes"/>
			<point x="1144" y="594" type="line" smooth="yes"/>
			<point x="1216" y="808"/>
			<point x="1090" y="940"/>
			<point x="876" y="940" type="curve" smooth="yes"/>
			<point x="630" y="940"/>
			<point x="576" y="664"/>
			<point x="488" y="346" type="curve"/>
			<point x="492" y="346" type="line"/>
			<point x="568" y="652"/>
			<point x="652" y="904"/>
			<point x="788" y="904" type="curve" smooth="yes"/>
			<point x="840" y="904"/>
			<point x="806" y="762"/>
			<point x="754" y="610" type="curve" smooth="yes"/>
			<point x="628" y="244" type="line" smooth="yes"/>
			<point x="622" y="222"/>
			<point x="618" y="198"/>
			<point x="618" y="168" type="curve" smooth="yes"/>
			<point x="618" y="42"/>
			<point x="710" y="-20"/>
		</contour>
		<contour>
			<point x="30" y="0" type="line"/>
			<point x="410" y="0" type="line"/>
			<point x="632" y="920" type="line"/>
			<point x="112" y="920" type="line"/>
			<point x="112" y="916" type="line"/>
			<point x="250" y="916" type="line"/>
		</contour>
	</outline>
</glyph>
<glyph name="o" format="2">
  <advance width="1128"/>
  <unicode hex="006F"/>
  <anchor x="420" y="0" name="bottom"/>
  <anchor x="694" y="920" name="top"/>
  <outline>
    <contour>
      <point x="417" y="-20" type="curve" smooth="yes"/>
      <point x="185" y="-20"/>
      <point x="40" y="69"/>
      <point x="40" y="289" type="curve" smooth="yes"/>
      <point x="40" y="609"/>
      <point x="344" y="940"/>
      <point x="696" y="940" type="curve" smooth="yes"/>
      <point x="928" y="940"/>
      <point x="1083" y="840"/>
      <point x="1083" y="620" type="curve" smooth="yes"/>
      <point x="1083" y="310"/>
      <point x="799" y="-20"/>
    </contour>
    <contour>
      <point x="407" y="-16" type="curve" smooth="yes"/>
      <point x="515" y="-16"/>
      <point x="735" y="638"/>
      <point x="735" y="876" type="curve" smooth="yes"/>
      <point x="735" y="914"/>
      <point x="728" y="936"/>
      <point x="706" y="936" type="curve" smooth="yes"/>
      <point x="598" y="936"/>
      <point x="378" y="282"/>
      <point x="378" y="44" type="curve" smooth="yes"/>
      <point x="378" y="6"/>
      <point x="385" y="-16"/>
    </contour>
  </outline>
</glyph>
<glyph name="o" format="2">
	<advance width="1163"/>
	<unicode hex="006F"/>
	<anchor x="629" y="920" name="top"/>
	<anchor x="396" y="0" name="bottom"/>
	<outline>
		<contour>
			<point x="468" y="-20" type="curve" smooth="yes"/>
			<point x="790" y="-20"/>
			<point x="1104" y="200"/>
			<point x="1104" y="580" type="curve" smooth="yes"/>
			<point x="1104" y="820"/>
			<point x="868" y="940"/>
			<point x="666" y="940" type="curve" smooth="yes"/>
			<point x="344" y="940"/>
			<point x="30" y="720"/>
			<point x="30" y="340" type="curve" smooth="yes"/>
			<point x="30" y="100"/>
			<point x="266" y="-20"/>
		</contour>
		<contour>
			<point x="468" y="-16" type="curve" smooth="yes"/>
			<point x="420" y="-16"/>
			<point x="398" y="32"/>
			<point x="398" y="140" type="curve" smooth="yes"/>
			<point x="398" y="388"/>
			<point x="528" y="936"/>
			<point x="666" y="936" type="curve" smooth="yes"/>
			<point x="714" y="936"/>
			<point x="736" y="888"/>
			<point x="736" y="780" type="curve" smooth="yes"/>
			<point x="736" y="532"/>
			<point x="606" y="-16"/>
		</contour>
	</outline>
</glyph>
<glyph name="p" format="2">
	<advance width="1299"/>
	<unicode hex="0070"/>
	<anchor x="706" y="920" name="top"/>
	<anchor x="716" y="0" name="bottom"/>
	<outline>
		<contour>
			<point x="-60" y="-500" type="line"/>
			<point x="320" y="-500" type="line"/>
			<point x="526" y="382" type="line"/>
			<point x="538" y="454" type="line"/>
			<point x="558" y="536" type="line"/>
			<point x="648" y="920" type="line"/>
			<point x="124" y="920" type="line"/>
			<point x="124" y="916" type="line"/>
			<point x="266" y="916" type="line"/>
		</contour>
		<contour>
			<point x="-190" y="-500" type="line"/>
			<point x="460" y="-500" type="line"/>
			<point x="460" y="-496" type="line"/>
			<point x="-190" y="-496" type="line"/>
		</contour>
		<contour>
			<point x="604" y="76" type="curve" smooth="yes"/>
			<point x="542" y="76"/>
			<point x="522" y="184"/>
			<point x="522" y="290" type="curve" smooth="yes"/>
			<point x="522" y="498"/>
			<point x="644" y="840"/>
			<point x="772" y="840" type="curve" smooth="yes"/>
			<point x="814" y="840"/>
			<point x="842" y="786"/>
			<point x="842" y="698" type="curve" smooth="yes"/>
			<point x="842" y="430"/>
			<point x="692" y="76"/>
		</contour>
		<contour>
			<point x="718" y="-20" type="curve" smooth="yes"/>
			<point x="936" y="-20"/>
			<point x="1250" y="198"/>
			<point x="1250" y="598" type="curve" smooth="yes"/>
			<point x="1250" y="858"/>
			<point x="1070" y="938"/>
			<point x="932" y="938" type="curve" smooth="yes"/>
			<point x="650" y="938"/>
			<point x="518" y="506"/>
			<point x="518" y="290" type="curve" smooth="yes"/>
			<point x="518" y="106"/>
			<point x="566" y="-20"/>
		</contour>
	</outline>
</glyph>
<glyph name="q" format="2">
  <advance width="1250"/>
  <unicode hex="0071"/>
  <anchor x="246" y="0" name="bottom"/>
  <anchor x="536" y="920" name="top"/>
  <outline>
    <contour>
      <point x="988" y="-496" type="line"/>
      <point x="988" y="-500" type="line"/>
      <point x="378" y="-500" type="line"/>
      <point x="378" y="-496" type="line"/>
    </contour>
    <contour>
      <point x="848" y="-500" type="line"/>
      <point x="508" y="-500" type="line"/>
      <point x="696" y="304" type="line"/>
      <point x="715" y="356"/>
      <point x="731" y="418"/>
      <point x="746" y="486" type="curve"/>
      <point x="760" y="598" type="line"/>
      <point x="832" y="900" type="line"/>
      <point x="1180" y="940" type="line"/>
    </contour>
    <contour>
      <point x="758" y="628" type="curve" smooth="yes"/>
      <point x="758" y="734"/>
      <point x="738" y="842"/>
      <point x="676" y="842" type="curve" smooth="yes"/>
      <point x="588" y="842"/>
      <point x="438" y="488"/>
      <point x="438" y="220" type="curve" smooth="yes"/>
      <point x="438" y="132"/>
      <point x="466" y="78"/>
      <point x="508" y="78" type="curve" smooth="yes"/>
      <point x="636" y="78"/>
      <point x="758" y="420"/>
    </contour>
    <contour>
      <point x="762" y="628" type="curve" smooth="yes"/>
      <point x="762" y="412"/>
      <point x="630" y="-20"/>
      <point x="348" y="-20" type="curve" smooth="yes"/>
      <point x="210" y="-20"/>
      <point x="30" y="60"/>
      <point x="30" y="320" type="curve" smooth="yes"/>
      <point x="30" y="720"/>
      <point x="344" y="938"/>
      <point x="562" y="938" type="curve" smooth="yes"/>
      <point x="714" y="938"/>
      <point x="762" y="812"/>
    </contour>
  </outline>
</glyph>
<glyph name="r" format="2">
	<advance width="1123"/>
	<unicode hex="0072"/>
	<anchor x="236" y="0" name="cedilla"/>
	<anchor x="236" y="0" name="bottom"/>
	<anchor x="723" y="920" name="top"/>
	<outline>
		<contour>
			<point x="52" y="0" type="line"/>
			<point x="430" y="0" type="line"/>
			<point x="640" y="920" type="line"/>
			<point x="122" y="920" type="line"/>
			<point x="122" y="916" type="line"/>
			<point x="268" y="916" type="line"/>
		</contour>
		<contour>
			<point x="504" y="346" type="curve"/>
			<point x="508" y="346" type="line"/>
			<point x="562" y="582"/>
			<point x="683" y="935"/>
			<point x="905" y="935" type="curve" smooth="yes"/>
			<point x="1064" y="935"/>
			<point x="1156" y="827"/>
			<point x="1156" y="683" type="curve"/>
			<point x="1158" y="683" type="line"/>
			<point x="1158" y="783"/>
			<point x="1057" y="865"/>
			<point x="950" y="865" type="curve" smooth="yes"/>
			<point x="843" y="865"/>
			<point x="736" y="780"/>
			<point x="736" y="661" type="curve" smooth="yes"/>
			<point x="736" y="551"/>
			<point x="833" y="460"/>
			<point x="949" y="460" type="curve" smooth="yes"/>
			<point x="1065" y="460"/>
			<point x="1160" y="565"/>
			<point x="1160" y="683" type="curve" smooth="yes"/>
			<point x="1160" y="831"/>
			<point x="1066" y="939"/>
			<point x="905" y="939" type="curve" smooth="yes"/>
			<point x="678" y="939"/>
			<point x="559" y="586"/>
		</contour>
	</outline>
</glyph>
<glyph name="s" format="2">
	<advance width="1023"/>
	<unicode hex="0073"/>
	<anchor x="388" y="0" name="cedilla"/>
	<anchor x="388" y="0" name="bottom"/>
	<anchor x="567" y="920" name="top"/>
	<outline>
		<contour>
			<point x="390" y="-23" type="curve" smooth="yes"/>
			<point x="633" y="-23"/>
			<point x="864" y="106"/>
			<point x="864" y="314" type="curve" smooth="yes"/>
			<point x="864" y="610"/>
			<point x="394" y="619"/>
			<point x="394" y="819" type="curve" smooth="yes"/>
			<point x="394" y="895"/>
			<point x="476" y="934"/>
			<point x="568" y="934" type="curve" smooth="yes"/>
			<point x="775" y="934"/>
			<point x="930" y="850"/>
			<point x="930" y="730" type="curve"/>
			<point x="932" y="730" type="line"/>
			<point x="932" y="810"/>
			<point x="854" y="857"/>
			<point x="784" y="857" type="curve" smooth="yes"/>
			<point x="695.982" y="857"/>
			<point x="640" y="810"/>
			<point x="640" y="718" type="curve" smooth="yes"/>
			<point x="640" y="648"/>
			<point x="704" y="577"/>
			<point x="784" y="577" type="curve" smooth="yes"/>
			<point x="875" y="577"/>
			<point x="934" y="648"/>
			<point x="934" y="730" type="curve" smooth="yes"/>
			<point x="934" y="854"/>
			<point x="774" y="938"/>
			<point x="568" y="938" type="curve" smooth="yes"/>
			<point x="362" y="938"/>
			<point x="141" y="812"/>
			<point x="141" y="614" type="curve" smooth="yes"/>
			<point x="141" y="322"/>
			<point x="638" y="258"/>
			<point x="638" y="115" type="curve" smooth="yes"/>
			<point x="638" y="13"/>
			<point x="531" y="-19"/>
			<point x="390" y="-19" type="curve" smooth="yes"/>
			<point x="189" y="-19"/>
			<point x="-6" y="67"/>
			<point x="-6" y="230" type="curve"/>
			<point x="-8" y="230" type="line"/>
			<point x="-8" y="140"/>
			<point x="79.3838" y="94"/>
			<point x="152" y="94" type="curve" smooth="yes"/>
			<point x="232" y="94"/>
			<point x="308" y="162"/>
			<point x="308" y="243" type="curve" smooth="yes"/>
			<point x="308" y="343"/>
			<point x="224" y="394"/>
			<point x="154" y="394" type="curve" smooth="yes"/>
			<point x="73" y="394"/>
			<point x="-10" y="332"/>
			<point x="-10" y="230" type="curve" smooth="yes"/>
			<point x="-10" y="61"/>
			<point x="192" y="-23"/>
		</contour>
	</outline>
</glyph>
<glyph name="t" format="2">
  <advance width="744"/>
  <unicode hex="0074"/>
  <anchor x="296" y="0" name="cedilla"/>
  <anchor x="296" y="0" name="bottom"/>
  <anchor x="483" y="1120" name="top"/>
  <outline>
    <contour>
      <point x="64" y="920" type="line"/>
      <point x="804" y="920" type="line"/>
      <point x="804" y="916" type="line"/>
      <point x="64" y="916" type="line"/>
    </contour>
    <contour>
      <point x="690" y="326" type="line"/>
      <point x="585" y="84"/>
      <point x="497" y="-20"/>
      <point x="294" y="-20" type="curve" smooth="yes"/>
      <point x="110" y="-20"/>
      <point x="60" y="58"/>
      <point x="60" y="137" type="curve" smooth="yes"/>
      <point x="60" y="178"/>
      <point x="77.5566" y="229.835"/>
      <point x="88" y="270" type="curve" smooth="yes"/>
      <point x="309" y="1120" type="line"/>
      <point x="669" y="1120" type="line"/>
      <point x="393" y="82" type="line" smooth="yes"/>
      <point x="389.141" y="67.4844"/>
      <point x="384" y="49"/>
      <point x="384" y="31" type="curve" smooth="yes"/>
      <point x="384" y="13"/>
      <point x="393" y="7"/>
      <point x="405" y="7" type="curve" smooth="yes"/>
      <point x="428" y="7"/>
      <point x="556" y="11"/>
      <point x="686" y="327" type="curve"/>
    </contour>
  </outline>
</glyph>
<glyph name="u" format="2">
  <advance width="1176"/>
  <unicode hex="0075"/>
  <anchor x="792" y="0" name="cedilla"/>
  <anchor x="456" y="0" name="bottom"/>
  <anchor x="696" y="920" name="top"/>
  <outline>
    <contour>
      <point x="612" y="920" type="line"/>
      <point x="431" y="263" type="line" smooth="yes"/>
      <point x="388.021" y="106.994"/>
      <point x="394" y="78"/>
      <point x="416" y="78" type="curve" smooth="yes"/>
      <point x="452" y="78"/>
      <point x="622" y="296"/>
      <point x="719" y="653" type="curve"/>
      <point x="724" y="653" type="line"/>
      <point x="639" y="350"/>
      <point x="455" y="-20"/>
      <point x="248" y="-20" type="curve" smooth="yes"/>
      <point x="95" y="-20"/>
      <point x="29.1021" y="97.7445"/>
      <point x="73" y="282" type="curve" smooth="yes"/>
      <point x="244" y="916" type="line"/>
      <point x="121" y="916" type="line"/>
      <point x="121" y="920" type="line"/>
    </contour>
    <contour>
      <point x="1176" y="329" type="line"/>
      <point x="1075" y="119"/>
      <point x="987" y="-20"/>
      <point x="804" y="-20" type="curve" smooth="yes"/>
      <point x="650" y="-20"/>
      <point x="593" y="37"/>
      <point x="593" y="140" type="curve" smooth="yes"/>
      <point x="593" y="166"/>
      <point x="597.927" y="197.019"/>
      <point x="604" y="220" type="curve" smooth="yes"/>
      <point x="789" y="920" type="line"/>
      <point x="1154" y="920" type="line"/>
      <point x="926" y="71" type="line" smooth="yes"/>
      <point x="922.542" y="58.123"/>
      <point x="922" y="50"/>
      <point x="922" y="42" type="curve" smooth="yes"/>
      <point x="922" y="33"/>
      <point x="926" y="27"/>
      <point x="935" y="27" type="curve" smooth="yes"/>
      <point x="950" y="27"/>
      <point x="1041" y="46"/>
      <point x="1172" y="330" type="curve"/>
    </contour>
  </outline>
</glyph>
<glyph name="v" format="2">
  <advance width="1153"/>
  <unicode hex="0076"/>
  <anchor x="486" y="0" name="bottom"/>
  <anchor x="746" y="920" name="top"/>
  <outline>
    <contour>
      <point x="552" y="247" type="line" smooth="yes"/>
      <point x="501" y="23"/>
      <point x="505" y="6"/>
      <point x="562" y="6" type="curve" smooth="yes"/>
      <point x="795" y="6"/>
      <point x="1149" y="362"/>
      <point x="1149" y="668" type="curve" smooth="yes"/>
      <point x="1149" y="797"/>
      <point x="1071" y="934"/>
      <point x="917" y="934" type="curve"/>
      <point x="917" y="936" type="line"/>
      <point x="1041" y="936"/>
      <point x="1115" y="834"/>
      <point x="1115" y="714" type="curve" smooth="yes"/>
      <point x="1115" y="600"/>
      <point x="1030" y="510"/>
      <point x="917" y="510" type="curve" smooth="yes"/>
      <point x="787" y="510"/>
      <point x="705" y="594"/>
      <point x="705" y="724" type="curve" smooth="yes"/>
      <point x="705" y="845"/>
      <point x="793" y="938"/>
      <point x="917" y="938" type="curve" smooth="yes"/>
      <point x="1073" y="938"/>
      <point x="1153" y="800"/>
      <point x="1153" y="668" type="curve" smooth="yes"/>
      <point x="1153" y="363"/>
      <point x="802" y="-20"/>
      <point x="496" y="-20" type="curve" smooth="yes"/>
      <point x="303" y="-20"/>
      <point x="137" y="60"/>
      <point x="185" y="262" type="curve" smooth="yes"/>
      <point x="320" y="825" type="line" smooth="yes"/>
      <point x="322" y="837"/>
      <point x="326" y="860"/>
      <point x="326" y="870" type="curve" smooth="yes"/>
      <point x="326" y="884"/>
      <point x="320" y="889"/>
      <point x="307" y="889" type="curve" smooth="yes"/>
      <point x="293" y="889"/>
      <point x="215" y="888"/>
      <point x="90" y="603" type="curve"/>
      <point x="86" y="604" type="line"/>
      <point x="149" y="744"/>
      <point x="236" y="939"/>
      <point x="418" y="939" type="curve" smooth="yes"/>
      <point x="562" y="939"/>
      <point x="657" y="844"/>
      <point x="657" y="738" type="curve" smooth="yes"/>
      <point x="657" y="709"/>
      <point x="649" y="668"/>
      <point x="639" y="626" type="curve" smooth="yes"/>
    </contour>
  </outline>
</glyph>
<glyph name="w" format="2">
  <advance width="2007"/>
  <unicode hex="0077"/>
  <anchor x="956" y="0" name="bottom"/>
  <anchor x="1186" y="920" name="top"/>
  <outline>
    <contour>
      <point x="546" y="232" type="line" smooth="yes"/>
      <point x="494" y="78"/>
      <point x="510" y="28"/>
      <point x="602" y="28" type="curve" smooth="yes"/>
      <point x="758" y="28"/>
      <point x="852" y="267"/>
      <point x="928" y="574" type="curve"/>
      <point x="932" y="574" type="line"/>
      <point x="832" y="207"/>
      <point x="771" y="-20"/>
      <point x="474" y="-20" type="curve" smooth="yes"/>
      <point x="281" y="-20"/>
      <point x="108.702" y="78.3154"/>
      <point x="179" y="282" type="curve" smooth="yes"/>
      <point x="358" y="809" type="line" smooth="yes"/>
      <point x="362" y="821"/>
      <point x="363" y="836"/>
      <point x="363" y="846" type="curve" smooth="yes"/>
      <point x="363" y="867"/>
      <point x="351" y="883"/>
      <point x="326" y="883" type="curve" smooth="yes"/>
      <point x="218" y="883"/>
      <point x="121" y="805"/>
      <point x="23" y="592" type="curve"/>
      <point x="19" y="594" type="line"/>
      <point x="116" y="808"/>
      <point x="229" y="940"/>
      <point x="461" y="940" type="curve" smooth="yes"/>
      <point x="615" y="940"/>
      <point x="713" y="891"/>
      <point x="713" y="765" type="curve" smooth="yes"/>
      <point x="713" y="736"/>
      <point x="707" y="714"/>
      <point x="701" y="696" type="curve" smooth="yes"/>
    </contour>
    <contour>
      <point x="1010" y="920" type="line"/>
      <point x="1390" y="920" type="line"/>
      <point x="1270" y="411" type="line" smooth="yes"/>
      <point x="1230" y="243"/>
      <point x="1214" y="12"/>
      <point x="1377" y="12" type="curve" smooth="yes"/>
      <point x="1691" y="12"/>
      <point x="1954" y="434"/>
      <point x="1954" y="688" type="curve" smooth="yes"/>
      <point x="1954" y="855.358"/>
      <point x="1843.72" y="933.61"/>
      <point x="1720" y="934" type="curve"/>
      <point x="1720" y="936" type="line"/>
      <point x="1879.71" y="935.438"/>
      <point x="1954" y="809"/>
      <point x="1954" y="714" type="curve" smooth="yes"/>
      <point x="1954" y="583.786"/>
      <point x="1836" y="510"/>
      <point x="1715" y="510" type="curve" smooth="yes"/>
      <point x="1585" y="510"/>
      <point x="1488" y="599"/>
      <point x="1488" y="719" type="curve" smooth="yes"/>
      <point x="1488" y="840"/>
      <point x="1586" y="938"/>
      <point x="1720" y="938" type="curve" smooth="yes"/>
      <point x="1846" y="938"/>
      <point x="1958" y="860"/>
      <point x="1958" y="688" type="curve" smooth="yes"/>
      <point x="1958" y="461"/>
      <point x="1728" y="-20"/>
      <point x="1278" y="-20" type="curve" smooth="yes"/>
      <point x="1100" y="-20"/>
      <point x="792" y="46"/>
      <point x="872" y="365" type="curve"/>
    </contour>
  </outline>
</glyph>
<glyph name="x" format="2">
	<advance width="1411"/>
	<unicode hex="0078"/>
	<anchor x="616" y="920" name="top"/>
	<anchor x="576" y="0" name="bottom"/>
	<outline>
		<contour>
			<point x="950" y="-20" type="curve" smooth="yes"/>
			<point x="1134" y="-20"/>
			<point x="1246" y="58"/>
			<point x="1310" y="218" type="curve"/>
			<point x="1307" y="219" type="line"/>
			<point x="1250" y="77"/>
			<point x="1172" y="39"/>
			<point x="1134" y="39" type="curve" smooth="yes"/>
			<point x="1092" y="39"/>
			<point x="1077" y="66"/>
			<point x="1069" y="87" type="curve" smooth="yes"/>
			<point x="999" y="280"/>
			<point x="914" y="564"/>
			<point x="844" y="738" type="curve" smooth="yes"/>
			<point x="787" y="875"/>
			<point x="733" y="940"/>
			<point x="540" y="940" type="curve" smooth="yes"/>
			<point x="336" y="940"/>
			<point x="236" y="858"/>
			<point x="174" y="698" type="curve"/>
			<point x="178" y="697" type="line"/>
			<point x="231" y="825"/>
			<point x="294" y="882"/>
			<point x="354" y="882" type="curve" smooth="yes"/>
			<point x="400" y="882"/>
			<point x="416" y="844"/>
			<point x="424" y="823" type="curve" smooth="yes"/>
			<point x="476" y="678"/>
			<point x="570" y="352"/>
			<point x="638" y="186" type="curve" smooth="yes"/>
			<point x="694.248" y="48.6894"/>
			<point x="757" y="-20"/>
		</contour>
		<contour>
			<point x="232" y="-20" type="curve" smooth="yes"/>
			<point x="450" y="-20"/>
			<point x="548" y="249"/>
			<point x="664" y="437" type="curve"/>
			<point x="660" y="438" type="line"/>
			<point x="553" y="245"/>
			<point x="503.916" y="165.691"/>
			<point x="452" y="103" type="curve" smooth="yes"/>
			<point x="399" y="39"/>
			<point x="329" y="-16"/>
			<point x="232" y="-16" type="curve" smooth="yes"/>
			<point x="79" y="-16"/>
			<point x="-7" y="112"/>
			<point x="-7" y="212" type="curve"/>
			<point x="-9" y="212" type="line"/>
			<point x="-9" y="117"/>
			<point x="76" y="32"/>
			<point x="186" y="32" type="curve" smooth="yes"/>
			<point x="314" y="32"/>
			<point x="376" y="127"/>
			<point x="376" y="218" type="curve" smooth="yes"/>
			<point x="376" y="308"/>
			<point x="306" y="412"/>
			<point x="186" y="412" type="curve" smooth="yes"/>
			<point x="70" y="412"/>
			<point x="-11" y="324"/>
			<point x="-11" y="212" type="curve" smooth="yes"/>
			<point x="-11" y="118"/>
			<point x="70" y="-20"/>
		</contour>
		<contour>
			<point x="781" y="481" type="line"/>
			<point x="888" y="674"/>
			<point x="937.084" y="753.309"/>
			<point x="989" y="816" type="curve" smooth="yes"/>
			<point x="1042" y="880"/>
			<point x="1112" y="935"/>
			<point x="1209" y="935" type="curve" smooth="yes"/>
			<point x="1362" y="935"/>
			<point x="1448" y="807"/>
			<point x="1448" y="707" type="curve"/>
			<point x="1450" y="707" type="line"/>
			<point x="1450" y="802"/>
			<point x="1365" y="887"/>
			<point x="1255" y="887" type="curve" smooth="yes"/>
			<point x="1127" y="887"/>
			<point x="1065" y="792"/>
			<point x="1065" y="701" type="curve" smooth="yes"/>
			<point x="1065" y="611"/>
			<point x="1135" y="507"/>
			<point x="1255" y="507" type="curve" smooth="yes"/>
			<point x="1371" y="507"/>
			<point x="1452" y="595"/>
			<point x="1452" y="707" type="curve" smooth="yes"/>
			<point x="1452" y="801"/>
			<point x="1371" y="939"/>
			<point x="1209" y="939" type="curve" smooth="yes"/>
			<point x="991" y="939"/>
			<point x="893" y="670"/>
			<point x="777" y="482" type="curve"/>
		</contour>
	</outline>
</glyph>
<glyph name="y" format="2">
	<advance width="1401"/>
	<unicode hex="0079"/>
	<anchor x="736" y="920" name="top"/>
	<anchor x="506" y="-500" name="bottom"/>
	<outline>
		<contour>
			<point x="311" y="-520" type="curve" smooth="yes"/>
			<point x="771" y="-520"/>
			<point x="1372" y="462"/>
			<point x="1372" y="722" type="curve" smooth="yes"/>
			<point x="1372" y="824"/>
			<point x="1298" y="939"/>
			<point x="1146" y="939" type="curve" smooth="yes"/>
			<point x="1032" y="939"/>
			<point x="942" y="857"/>
			<point x="942" y="746" type="curve" smooth="yes"/>
			<point x="942" y="626"/>
			<point x="1038" y="552"/>
			<point x="1158" y="552" type="curve" smooth="yes"/>
			<point x="1266" y="552"/>
			<point x="1370" y="629"/>
			<point x="1370" y="736" type="curve" smooth="yes"/>
			<point x="1370" y="832"/>
			<point x="1280" y="937"/>
			<point x="1146" y="937" type="curve"/>
			<point x="1146" y="935" type="line"/>
			<point x="1291" y="935"/>
			<point x="1368" y="824"/>
			<point x="1368" y="722" type="curve" smooth="yes"/>
			<point x="1368" y="456"/>
			<point x="759" y="-516"/>
			<point x="311" y="-516" type="curve" smooth="yes"/>
			<point x="140" y="-516"/>
			<point x="27" y="-379"/>
			<point x="27" y="-222" type="curve"/>
			<point x="25" y="-222" type="line"/>
			<point x="25" y="-312"/>
			<point x="115" y="-387"/>
			<point x="227" y="-387" type="curve" smooth="yes"/>
			<point x="337" y="-387"/>
			<point x="418" y="-303"/>
			<point x="418" y="-197" type="curve" smooth="yes"/>
			<point x="418" y="-81"/>
			<point x="316" y="-10"/>
			<point x="226" y="-10" type="curve" smooth="yes"/>
			<point x="110" y="-10"/>
			<point x="23" y="-116"/>
			<point x="23" y="-222" type="curve" smooth="yes"/>
			<point x="23" y="-382"/>
			<point x="137" y="-520"/>
		</contour>
		<contour>
			<point x="735" y="-304" type="curve"/>
			<point x="870" y="-175"/>
			<point x="928" y="-106"/>
			<point x="1015" y="10" type="curve"/>
			<point x="885" y="203"/>
			<point x="791" y="550"/>
			<point x="738" y="731" type="curve" smooth="yes"/>
			<point x="701.097" y="857.028"/>
			<point x="627" y="939"/>
			<point x="434" y="939" type="curve" smooth="yes"/>
			<point x="290" y="939"/>
			<point x="133" y="873"/>
			<point x="67" y="693" type="curve"/>
			<point x="71" y="691" type="line"/>
			<point x="120" y="825"/>
			<point x="217" y="880"/>
			<point x="258" y="880" type="curve" smooth="yes"/>
			<point x="300" y="880"/>
			<point x="313" y="830"/>
			<point x="321" y="809" type="curve" smooth="yes"/>
			<point x="376.208" y="664.079"/>
			<point x="589" y="-52"/>
		</contour>
	</outline>
</glyph>
<glyph name="z" format="2">
	<advance width="1061"/>
	<unicode hex="007A"/>
	<anchor x="586" y="920" name="top"/>
	<anchor x="406" y="0" name="bottom"/>
	<outline>
		<contour>
			<point x="-14" y="-18" type="line"/>
			<point x="54" y="40" type="line"/>
			<point x="966" y="938" type="line"/>
			<point x="956" y="934" type="line"/>
		</contour>
		<contour>
			<point x="-12" y="-20" type="line"/>
			<point x="52" y="44"/>
			<point x="138" y="78"/>
			<point x="234" y="78" type="curve" smooth="yes"/>
			<point x="366" y="78"/>
			<point x="453" y="-20"/>
			<point x="605" y="-20" type="curve" smooth="yes"/>
			<point x="819" y="-20"/>
			<point x="1038" y="200"/>
			<point x="1038" y="420" type="curve" smooth="yes"/>
			<point x="1038" y="532"/>
			<point x="940" y="614"/>
			<point x="849" y="614" type="curve" smooth="yes"/>
			<point x="749" y="614"/>
			<point x="664" y="532"/>
			<point x="664" y="432" type="curve" smooth="yes"/>
			<point x="664" y="341"/>
			<point x="752" y="252"/>
			<point x="838" y="252" type="curve" smooth="yes"/>
			<point x="936" y="252"/>
			<point x="1036" y="330"/>
			<point x="1036" y="420" type="curve"/>
			<point x="1034" y="420" type="line"/>
			<point x="1034" y="260"/>
			<point x="942" y="204"/>
			<point x="837" y="204" type="curve" smooth="yes"/>
			<point x="667" y="204"/>
			<point x="662" y="350"/>
			<point x="515" y="350" type="curve" smooth="yes"/>
			<point x="390" y="350"/>
			<point x="214" y="192"/>
			<point x="-14" y="-18" type="curve"/>
		</contour>
		<contour>
			<point x="55" y="380" type="line"/>
			<point x="60" y="380" type="line"/>
			<point x="107" y="575" type="line"/>
			<point x="159" y="545"/>
			<point x="249" y="510"/>
			<point x="337" y="510" type="curve" smooth="yes"/>
			<point x="498" y="510"/>
			<point x="748" y="758"/>
			<point x="966" y="938" type="curve"/>
			<point x="964" y="940" type="line"/>
			<point x="870" y="876"/>
			<point x="644" y="861"/>
			<point x="548" y="861" type="curve" smooth="yes"/>
			<point x="456" y="861"/>
			<point x="296" y="878"/>
			<point x="189" y="939" type="curve"/>
		</contour>
	</outline>
</glyph>
<glyph name="braceleft" format="2">
	<advance width="743"/>
	<unicode hex="007B"/>
	<outline>
		<contour>
			<point x="170" y="620" type="line"/>
			<point x="378" y="640"/>
			<point x="728" y="716"/>
			<point x="728" y="942" type="curve" smooth="yes"/>
			<point x="728" y="1062"/>
			<point x="700" y="1122"/>
			<point x="700" y="1234" type="curve" smooth="yes"/>
			<point x="700" y="1420"/>
			<point x="840" y="1520"/>
			<point x="964" y="1520" type="curve"/>
			<point x="964" y="1560" type="line"/>
			<point x="634" y="1560"/>
			<point x="304" y="1420"/>
			<point x="304" y="1142" type="curve" smooth="yes"/>
			<point x="304" y="968"/>
			<point x="360" y="940"/>
			<point x="360" y="814" type="curve" smooth="yes"/>
			<point x="360" y="712"/>
			<point x="230" y="670"/>
			<point x="170" y="650" type="curve"/>
		</contour>
		<contour>
			<point x="544" y="-300" type="curve"/>
			<point x="544" y="-260" type="line"/>
			<point x="420" y="-260"/>
			<point x="396" y="-178"/>
			<point x="396" y="-92" type="curve" smooth="yes"/>
			<point x="396" y="60"/>
			<point x="584" y="200"/>
			<point x="584" y="400" type="curve" smooth="yes"/>
			<point x="584" y="586"/>
			<point x="378" y="620"/>
			<point x="170" y="640" type="curve"/>
			<point x="170" y="610" type="line"/>
			<point x="230" y="590"/>
			<point x="270" y="572"/>
			<point x="270" y="490" type="curve" smooth="yes"/>
			<point x="270" y="364"/>
			<point x="10" y="234"/>
			<point x="10" y="-20" type="curve" smooth="yes"/>
			<point x="10" y="-238"/>
			<point x="214" y="-300"/>
		</contour>
	</outline>
</glyph>
<glyph name="asciitilde" format="2">
	<advance width="1375"/>
	<unicode hex="007E"/>
	<outline>
		<contour>
			<point x="978" y="626" type="curve" smooth="yes"/>
			<point x="1176" y="626"/>
			<point x="1256" y="790"/>
			<point x="1316" y="1020" type="curve"/>
			<point x="1276" y="1020" type="line"/>
			<point x="1246" y="936"/>
			<point x="1196" y="892"/>
			<point x="1070" y="892" type="curve" smooth="yes"/>
			<point x="878" y="892"/>
			<point x="858" y="1080"/>
			<point x="638" y="1080" type="curve" smooth="yes"/>
			<point x="440" y="1080"/>
			<point x="360" y="916"/>
			<point x="300" y="686" type="curve"/>
			<point x="340" y="686" type="line"/>
			<point x="370" y="770"/>
			<point x="420" y="814"/>
			<point x="526" y="814" type="curve" smooth="yes"/>
			<point x="732" y="814"/>
			<point x="724" y="626"/>
		</contour>
	</outline>
</glyph>
<glyph name="cent" format="2">
	<advance width="1047"/>
	<unicode hex="00A2"/>
	<outline>
		<contour>
			<point x="384" y="-170" type="line"/>
			<point x="388" y="-170" type="line"/>
			<point x="728" y="1110" type="line"/>
			<point x="724" y="1110" type="line"/>
		</contour>
		<component base="c"/>
	</outline>
</glyph>
<glyph name="sterling" format="2">
	<advance width="1250"/>
	<unicode hex="00A3"/>
	<outline>
		<contour>
			<point x="64" y="-40" type="curve"/>
			<point x="68" y="-40" type="line"/>
			<point x="62" y="390"/>
			<point x="860" y="440"/>
			<point x="860" y="860" type="curve" smooth="yes"/>
			<point x="860" y="1010"/>
			<point x="818" y="1042"/>
			<point x="818" y="1160" type="curve" smooth="yes"/>
			<point x="818" y="1308"/>
			<point x="932" y="1506"/>
			<point x="1130" y="1506" type="curve" smooth="yes"/>
			<point x="1318" y="1506"/>
			<point x="1478" y="1396"/>
			<point x="1490" y="1180" type="curve"/>
			<point x="1474" y="1262"/>
			<point x="1388" y="1350"/>
			<point x="1266" y="1350" type="curve" smooth="yes"/>
			<point x="1148" y="1350"/>
			<point x="1032" y="1270"/>
			<point x="1032" y="1140" type="curve" smooth="yes"/>
			<point x="1032" y="1000"/>
			<point x="1136" y="908"/>
			<point x="1266" y="908" type="curve" smooth="yes"/>
			<point x="1386" y="908"/>
			<point x="1494" y="1010"/>
			<point x="1494" y="1152" type="curve" smooth="yes"/>
			<point x="1494" y="1356"/>
			<point x="1374" y="1520"/>
			<point x="1050" y="1520" type="curve" smooth="yes"/>
			<point x="688" y="1520"/>
			<point x="316" y="1340"/>
			<point x="316" y="1040" type="curve" smooth="yes"/>
			<point x="316" y="870"/>
			<point x="378" y="750"/>
			<point x="378" y="622" type="curve" smooth="yes"/>
			<point x="378" y="374"/>
			<point x="46" y="238"/>
		</contour>
		<contour>
			<point x="864" y="-60" type="curve" smooth="yes"/>
			<point x="1162" y="-60"/>
			<point x="1344" y="244"/>
			<point x="1384" y="554" type="curve"/>
			<point x="1380" y="554" type="line"/>
			<point x="1340" y="390"/>
			<point x="1222" y="366"/>
			<point x="1076" y="366" type="curve" smooth="yes"/>
			<point x="904" y="366"/>
			<point x="844" y="434"/>
			<point x="644" y="434" type="curve" smooth="yes"/>
			<point x="438" y="434"/>
			<point x="146" y="188"/>
			<point x="66" y="-40" type="curve"/>
			<point x="70" y="-40" type="line"/>
			<point x="90" y="20"/>
			<point x="158" y="60"/>
			<point x="260" y="60" type="curve" smooth="yes"/>
			<point x="386" y="60"/>
			<point x="590" y="-60"/>
		</contour>
		<contour>
			<point x="130" y="806" type="line"/>
			<point x="1230" y="806" type="line"/>
			<point x="1230" y="810" type="line"/>
			<point x="130" y="810" type="line"/>
		</contour>
	</outline>
</glyph>
<glyph name="brokenbar" format="2">
	<advance width="439"/>
	<unicode hex="00A6"/>
	<outline>
		<contour>
			<point x="22" y="-500" type="line"/>
			<point x="26" y="-500" type="line"/>
			<point x="218" y="332" type="line"/>
			<point x="214" y="332" type="line"/>
		</contour>
		<contour>
			<point x="326" y="818" type="line"/>
			<point x="330" y="818" type="line"/>
			<point x="502" y="1560" type="line"/>
			<point x="498" y="1560" type="line"/>
		</contour>
	</outline>
</glyph>
<glyph name="section" format="2">
	<advance width="947"/>
	<unicode hex="00A7"/>
	<outline>
		<contour>
			<point x="350" y="-20" type="curve" smooth="yes"/>
			<point x="620" y="-20"/>
			<point x="880" y="176"/>
			<point x="880" y="384" type="curve" smooth="yes"/>
			<point x="880" y="668"/>
			<point x="334" y="672"/>
			<point x="334" y="874" type="curve" smooth="yes"/>
			<point x="334" y="962"/>
			<point x="378" y="956"/>
			<point x="426" y="980" type="curve"/>
			<point x="424" y="980" type="line"/>
			<point x="316" y="948"/>
			<point x="138" y="794"/>
			<point x="138" y="650" type="curve" smooth="yes"/>
			<point x="138" y="364"/>
			<point x="660" y="394"/>
			<point x="660" y="182" type="curve" smooth="yes"/>
			<point x="660" y="88"/>
			<point x="556" y="-16"/>
			<point x="350" y="-16" type="curve" smooth="yes"/>
			<point x="186" y="-16"/>
			<point x="-14" y="50"/>
			<point x="-32" y="224" type="curve"/>
			<point x="-4" y="156"/>
			<point x="74" y="110"/>
			<point x="156" y="110" type="curve" smooth="yes"/>
			<point x="254" y="110"/>
			<point x="330" y="182"/>
			<point x="330" y="286" type="curve" smooth="yes"/>
			<point x="330" y="378"/>
			<point x="258" y="432"/>
			<point x="158" y="432" type="curve" smooth="yes"/>
			<point x="38" y="432"/>
			<point x="-38" y="350"/>
			<point x="-38" y="248" type="curve" smooth="yes"/>
			<point x="-38" y="56"/>
			<point x="174" y="-20"/>
		</contour>
		<contour>
			<point x="682" y="528" type="curve"/>
			<point x="682" y="528" type="line"/>
			<point x="782" y="590"/>
			<point x="976" y="696"/>
			<point x="976" y="840" type="curve" smooth="yes"/>
			<point x="976" y="1126"/>
			<point x="502" y="1076"/>
			<point x="502" y="1308" type="curve" smooth="yes"/>
			<point x="502" y="1422"/>
			<point x="610" y="1516"/>
			<point x="756" y="1516" type="curve" smooth="yes"/>
			<point x="950" y="1516"/>
			<point x="1066" y="1408"/>
			<point x="1086" y="1300" type="curve"/>
			<point x="1066" y="1346"/>
			<point x="1012" y="1402"/>
			<point x="910" y="1402" type="curve" smooth="yes"/>
			<point x="810" y="1402"/>
			<point x="736" y="1336"/>
			<point x="736" y="1252" type="curve" smooth="yes"/>
			<point x="736" y="1140"/>
			<point x="804" y="1080"/>
			<point x="904" y="1080" type="curve" smooth="yes"/>
			<point x="1014" y="1080"/>
			<point x="1090" y="1150"/>
			<point x="1090" y="1272" type="curve" smooth="yes"/>
			<point x="1090" y="1404"/>
			<point x="952" y="1520"/>
			<point x="756" y="1520" type="curve" smooth="yes"/>
			<point x="526" y="1520"/>
			<point x="276" y="1334"/>
			<point x="276" y="1126" type="curve" smooth="yes"/>
			<point x="276" y="782"/>
			<point x="784" y="868"/>
			<point x="784" y="666" type="curve" smooth="yes"/>
			<point x="784" y="586"/>
			<point x="750" y="572"/>
		</contour>
	</outline>
</glyph>
<glyph name="degree" format="2">
	<advance width="639"/>
	<unicode hex="00B0"/>
	<outline>
		<contour>
			<point x="628" y="1120" type="curve" smooth="yes"/>
			<point x="760" y="1120"/>
			<point x="868" y="1227"/>
			<point x="868" y="1359" type="curve" smooth="yes"/>
			<point x="868" y="1491"/>
			<point x="760" y="1600"/>
			<point x="628" y="1600" type="curve" smooth="yes"/>
			<point x="496" y="1600"/>
			<point x="389" y="1491"/>
			<point x="389" y="1359" type="curve" smooth="yes"/>
			<point x="389" y="1227"/>
			<point x="496" y="1120"/>
		</contour>
		<contour>
			<point x="628" y="1230" type="curve" smooth="yes"/>
			<point x="554" y="1230"/>
			<point x="498" y="1285"/>
			<point x="498" y="1359" type="curve" smooth="yes"/>
			<point x="498" y="1433"/>
			<point x="554" y="1490"/>
			<point x="628" y="1490" type="curve" smooth="yes"/>
			<point x="702" y="1490"/>
			<point x="758" y="1433"/>
			<point x="758" y="1359" type="curve" smooth="yes"/>
			<point x="758" y="1285"/>
			<point x="702" y="1230"/>
		</contour>
	</outline>
</glyph>
<glyph name="mu" format="2">
  <advance width="1407"/>
  <unicode hex="00B5"/>
  <outline>
    <contour>
      <point x="374" y="-146" type="curve" smooth="yes"/>
      <point x="480" y="-146"/>
      <point x="557" y="-224"/>
      <point x="557" y="-330" type="curve" smooth="yes"/>
      <point x="557" y="-438"/>
      <point x="496" y="-520"/>
      <point x="350" y="-520" type="curve" smooth="yes"/>
      <point x="179" y="-520"/>
      <point x="-47.1104" y="-451.401"/>
      <point x="0" y="-242" type="curve" smooth="yes"/>
      <point x="245" y="847" type="line"/>
      <point x="249" y="847" type="line"/>
      <point x="4" y="-242" type="line" smooth="yes"/>
      <point x="-43.1105" y="-451.401"/>
      <point x="185" y="-516"/>
      <point x="356" y="-516" type="curve"/>
      <point x="356" y="-517" type="line"/>
      <point x="276" y="-517"/>
      <point x="191" y="-438"/>
      <point x="191" y="-322" type="curve" smooth="yes"/>
      <point x="191" y="-226"/>
      <point x="268" y="-146"/>
    </contour>
    <component base="u"/>
  </outline>
</glyph>
<glyph name="mu" format="2">
	<advance width="1407"/>
	<unicode hex="00B5"/>
	<outline>
		<contour>
			<point x="350" y="-520" type="curve" smooth="yes"/>
			<point x="496" y="-520"/>
			<point x="557" y="-438"/>
			<point x="557" y="-330" type="curve" smooth="yes"/>
			<point x="557" y="-224"/>
			<point x="480" y="-146"/>
			<point x="374" y="-146" type="curve" smooth="yes"/>
			<point x="268" y="-146"/>
			<point x="191" y="-226"/>
			<point x="191" y="-322" type="curve" smooth="yes"/>
			<point x="191" y="-438"/>
			<point x="276" y="-517"/>
			<point x="356" y="-517" type="curve"/>
			<point x="356" y="-516" type="line"/>
			<point x="185" y="-516"/>
			<point x="-43.1105" y="-451.401"/>
			<point x="4" y="-242" type="curve" smooth="yes"/>
			<point x="249" y="847" type="line"/>
			<point x="245" y="847" type="line"/>
			<point x="0" y="-242" type="line" smooth="yes"/>
			<point x="-47.1104" y="-451.401"/>
			<point x="179" y="-520"/>
		</contour>
		<component base="u"/>
	</outline>
</glyph>
<glyph name="paragraph" format="2">
	<advance width="1422"/>
	<unicode hex="00B6"/>
	<outline>
		<contour>
			<point x="701" y="379" type="curve" smooth="yes"/>
			<point x="863" y="379" type="line"/>
			<point x="1122" y="1496" type="line"/>
			<point x="1461" y="1496" type="line"/>
			<point x="1461" y="1500" type="line"/>
			<point x="981" y="1500" type="line" smooth="yes"/>
			<point x="530" y="1500"/>
			<point x="171" y="1229"/>
			<point x="171" y="799" type="curve" smooth="yes"/>
			<point x="171" y="479"/>
			<point x="460" y="379"/>
		</contour>
		<contour>
			<point x="505" y="-300" type="line"/>
			<point x="1056" y="-300" type="line"/>
			<point x="1056" y="-296" type="line"/>
			<point x="505" y="-296" type="line"/>
		</contour>
		<contour>
			<point x="705" y="-300" type="line"/>
			<point x="709" y="-300" type="line"/>
			<point x="1124" y="1500" type="line"/>
			<point x="1120" y="1500" type="line"/>
		</contour>
		<contour>
			<point x="843" y="-300" type="line"/>
			<point x="847" y="-300" type="line"/>
			<point x="1262" y="1500" type="line"/>
			<point x="1258" y="1500" type="line"/>
		</contour>
	</outline>
</glyph>
<glyph name="cedilla" format="2">
  <advance width="1099"/>
  <unicode hex="00B8"/>
  <anchor x="563" y="0" name="_cedilla"/>
  <outline>
    <contour>
      <point x="440" y="-330" type="curve" smooth="yes"/>
      <point x="440" y="-264"/>
      <point x="406" y="-228"/>
      <point x="316" y="-228" type="curve"/>
      <point x="545" y="2" type="line"/>
      <point x="549" y="2" type="line"/>
      <point x="399.999" y="-148.001" type="line"/>
      <point x="581.243" y="-148.162"/>
      <point x="750" y="-170.439"/>
      <point x="750" y="-290" type="curve" smooth="yes"/>
      <point x="750" y="-450"/>
      <point x="506" y="-510"/>
      <point x="244" y="-510" type="curve"/>
      <point x="244" y="-506" type="line"/>
      <point x="358.381" y="-506"/>
      <point x="440" y="-443.726"/>
    </contour>
  </outline>
</glyph>
<glyph name="onehalf" format="2">
	<advance width="1339"/>
	<unicode hex="00BD"/>
	<outline>
		<contour>
			<point x="-34" y="-200" type="line"/>
			<point x="-30" y="-200" type="line"/>
			<point x="1272" y="1300" type="line"/>
			<point x="1268" y="1300" type="line"/>
		</contour>
		<component base="two" xScale="0.6" yScale="0.6" xOffset="682" yOffset="-202"/>
		<component base="one" xScale="0.6" yScale="0.6" xOffset="204" yOffset="712"/>
	</outline>
</glyph>
<glyph name="AE" format="2">
  <advance width="2212"/>
  <unicode hex="00C6"/>
  <outline>
    <contour>
      <point x="1317" y="1500" type="line"/>
      <point x="2358" y="1500" type="line"/>
      <point x="2262" y="1090" type="line"/>
      <point x="2258" y="1090" type="line"/>
      <point x="2258" y="1304"/>
      <point x="2059" y="1496"/>
      <point x="1825" y="1496" type="curve" smooth="yes"/>
      <point x="1317" y="1496" type="line"/>
    </contour>
    <contour>
      <point x="1576" y="774" type="curve" smooth="yes"/>
      <point x="1464" y="774" type="line"/>
      <point x="1464" y="778" type="line"/>
      <point x="1576" y="778" type="line" smooth="yes"/>
      <point x="1689" y="778"/>
      <point x="1854" y="912"/>
      <point x="1933" y="1046" type="curve"/>
      <point x="1938" y="1046" type="line"/>
      <point x="1809" y="497" type="line"/>
      <point x="1805" y="497" type="line"/>
      <point x="1784" y="631"/>
      <point x="1689" y="774"/>
    </contour>
    <contour>
      <point x="2029" y="0" type="line"/>
      <point x="760" y="0" type="line"/>
      <point x="760" y="4" type="line"/>
      <point x="1477" y="4" type="line" smooth="yes"/>
      <point x="1750" y="4"/>
      <point x="2021" y="196"/>
      <point x="2130" y="450" type="curve"/>
      <point x="2134" y="450" type="line"/>
    </contour>
    <contour>
      <point x="1278" y="1500" type="line"/>
      <point x="1708" y="1500" type="line"/>
      <point x="1360" y="0" type="line"/>
      <point x="931" y="0" type="line"/>
    </contour>
    <contour>
      <point x="503" y="526" type="line"/>
      <point x="1069" y="526" type="line"/>
      <point x="1069" y="522" type="line"/>
      <point x="500" y="522" type="line"/>
    </contour>
    <contour>
      <point x="1275" y="1500" type="line"/>
      <point x="1280" y="1500" type="line"/>
      <point x="87" y="0" type="line"/>
      <point x="82" y="0" type="line"/>
    </contour>
    <contour>
      <point x="-90" y="4" type="line"/>
      <point x="351" y="4" type="line"/>
      <point x="351" y="0" type="line"/>
      <point x="-90" y="0" type="line"/>
    </contour>
  </outline>
</glyph>
<glyph name="eth" format="2">
	<advance width="1319"/>
	<unicode hex="00F0"/>
	<outline>
		<contour>
			<point x="572" y="-20" type="curve" smooth="yes"/>
			<point x="934" y="-20"/>
			<point x="1314" y="340"/>
			<point x="1314" y="760" type="curve" smooth="yes"/>
			<point x="1314" y="1206"/>
			<point x="1036" y="1520"/>
			<point x="490" y="1520" type="curve"/>
			<point x="490" y="1516" type="line"/>
			<point x="818" y="1516"/>
			<point x="868" y="1304"/>
			<point x="848" y="820" type="curve"/>
			<point x="848" y="820" type="line"/>
			<point x="848" y="492"/>
			<point x="684" y="-16"/>
			<point x="566" y="-16" type="curve" smooth="yes"/>
			<point x="508" y="-16"/>
			<point x="494" y="52"/>
			<point x="494" y="180" type="curve" smooth="yes"/>
			<point x="494" y="388"/>
			<point x="624" y="952"/>
			<point x="782" y="952" type="curve" smooth="yes"/>
			<point x="816" y="952"/>
			<point x="848" y="900"/>
			<point x="848" y="820" type="curve"/>
			<point x="848" y="680" type="line"/>
			<point x="868" y="914"/>
			<point x="842" y="980"/>
			<point x="698" y="980" type="curve" smooth="yes"/>
			<point x="456" y="980"/>
			<point x="80" y="760"/>
			<point x="80" y="380" type="curve" smooth="yes"/>
			<point x="80" y="120"/>
			<point x="270" y="-20"/>
		</contour>
		<contour>
			<point x="520" y="1256" type="line"/>
			<point x="1440" y="1256" type="line"/>
			<point x="1440" y="1260" type="line"/>
			<point x="520" y="1260" type="line"/>
		</contour>
	</outline>
</glyph>
<glyph name="divide" format="2">
	<advance width="1219"/>
	<unicode hex="00F7"/>
	<outline>
		<contour>
			<point x="840" y="950" type="curve" smooth="yes"/>
			<point x="972" y="950"/>
			<point x="1080" y="1058"/>
			<point x="1080" y="1190" type="curve" smooth="yes"/>
			<point x="1080" y="1322"/>
			<point x="972" y="1430"/>
			<point x="840" y="1430" type="curve" smooth="yes"/>
			<point x="708" y="1430"/>
			<point x="600" y="1322"/>
			<point x="600" y="1190" type="curve" smooth="yes"/>
			<point x="600" y="1058"/>
			<point x="708" y="950"/>
		</contour>
		<contour>
			<point x="680" y="140" type="curve" smooth="yes"/>
			<point x="812" y="140"/>
			<point x="920" y="248"/>
			<point x="920" y="380" type="curve" smooth="yes"/>
			<point x="920" y="512"/>
			<point x="812" y="620"/>
			<point x="680" y="620" type="curve" smooth="yes"/>
			<point x="548" y="620"/>
			<point x="440" y="512"/>
			<point x="440" y="380" type="curve" smooth="yes"/>
			<point x="440" y="248"/>
			<point x="548" y="140"/>
		</contour>
		<contour>
			<point x="189" y="788" type="line"/>
			<point x="1309" y="788" type="line"/>
			<point x="1309" y="792" type="line"/>
			<point x="189" y="792" type="line"/>
		</contour>
	</outline>
</glyph>
<glyph name="thorn" format="2">
	<advance width="1299"/>
	<unicode hex="00FE"/>
	<outline>
		<contour>
			<point x="-60" y="-500" type="line"/>
			<point x="320" y="-500" type="line"/>
			<point x="524" y="368" type="line"/>
			<point x="536" y="448" type="line"/>
			<point x="566" y="562" type="line"/>
			<point x="782" y="1500" type="line"/>
			<point x="258" y="1500" type="line"/>
			<point x="258" y="1496" type="line"/>
			<point x="400" y="1496" type="line"/>
		</contour>
		<contour>
			<point x="-190" y="-500" type="line"/>
			<point x="460" y="-500" type="line"/>
			<point x="460" y="-496" type="line"/>
			<point x="-190" y="-496" type="line"/>
		</contour>
		<contour>
			<point x="604" y="76" type="curve" smooth="yes"/>
			<point x="542" y="76"/>
			<point x="522" y="184"/>
			<point x="522" y="290" type="curve" smooth="yes"/>
			<point x="522" y="498"/>
			<point x="644" y="840"/>
			<point x="772" y="840" type="curve" smooth="yes"/>
			<point x="814" y="840"/>
			<point x="842" y="786"/>
			<point x="842" y="698" type="curve" smooth="yes"/>
			<point x="842" y="430"/>
			<point x="692" y="76"/>
		</contour>
		<contour>
			<point x="718" y="-20" type="curve" smooth="yes"/>
			<point x="936" y="-20"/>
			<point x="1250" y="198"/>
			<point x="1250" y="598" type="curve" smooth="yes"/>
			<point x="1250" y="858"/>
			<point x="1070" y="939"/>
			<point x="932" y="939" type="curve" smooth="yes"/>
			<point x="650" y="939"/>
			<point x="518" y="506"/>
			<point x="518" y="290" type="curve" smooth="yes"/>
			<point x="518" y="106"/>
			<point x="566" y="-20"/>
		</contour>
	</outline>
</glyph>
<glyph name="dotlessi" format="2">
  <advance width="827"/>
  <unicode hex="0131"/>
  <anchor x="442" y="920" name="top"/>
  <outline>
    <contour>
      <point x="788" y="326" type="line"/>
      <point x="712" y="126"/>
      <point x="554" y="-20"/>
      <point x="332" y="-20" type="curve" smooth="yes"/>
      <point x="178" y="-20"/>
      <point x="100" y="26"/>
      <point x="100" y="166" type="curve" smooth="yes"/>
      <point x="100" y="176"/>
      <point x="100" y="198"/>
      <point x="104" y="210" type="curve" smooth="yes"/>
      <point x="284" y="916" type="line"/>
      <point x="120" y="916" type="line"/>
      <point x="120" y="920" type="line"/>
      <point x="664" y="920" type="line"/>
      <point x="460" y="112" type="line" smooth="yes"/>
      <point x="458" y="100"/>
      <point x="456" y="86"/>
      <point x="456" y="76" type="curve" smooth="yes"/>
      <point x="456" y="54"/>
      <point x="466" y="28"/>
      <point x="492" y="28" type="curve" smooth="yes"/>
      <point x="580" y="28"/>
      <point x="718" y="144"/>
      <point x="786" y="328" type="curve"/>
    </contour>
  </outline>
</glyph>
<glyph name="kgreenlandic" format="2">
  <advance width="1353"/>
  <unicode hex="0138"/>
  <anchor x="986" y="920" name="top"/>
  <anchor x="646" y="0" name="bottom"/>
  <anchor x="268" y="0" name="cedilla"/>
  <outline>
    <contour>
      <point x="1304" y="326" type="line"/>
      <point x="1218" y="106"/>
      <point x="1081" y="-20"/>
      <point x="878" y="-20" type="curve" smooth="yes"/>
      <point x="724" y="-20"/>
      <point x="622" y="42"/>
      <point x="622" y="162" type="curve" smooth="yes"/>
      <point x="622" y="180"/>
      <point x="623" y="200"/>
      <point x="626" y="212" type="curve" smooth="yes"/>
      <point x="649" y="317" type="line" smooth="yes"/>
      <point x="674" y="433"/>
      <point x="733" y="552"/>
      <point x="671" y="552" type="curve" smooth="yes"/>
      <point x="606" y="552"/>
      <point x="576" y="462"/>
      <point x="558" y="380" type="curve"/>
      <point x="554" y="380" type="line"/>
      <point x="595" y="564"/>
      <point x="662" y="588"/>
      <point x="783" y="588" type="curve" smooth="yes"/>
      <point x="919" y="588"/>
      <point x="1057" y="519"/>
      <point x="1009" y="267" type="curve" smooth="yes"/>
      <point x="972" y="72" type="line" smooth="yes"/>
      <point x="971" y="68"/>
      <point x="970" y="59"/>
      <point x="970" y="55" type="curve" smooth="yes"/>
      <point x="970" y="34"/>
      <point x="985" y="22"/>
      <point x="1010" y="22" type="curve" smooth="yes"/>
      <point x="1088" y="22"/>
      <point x="1216" y="108"/>
      <point x="1300" y="327" type="curve"/>
    </contour>
    <contour>
      <point x="595" y="495" type="curve"/>
      <point x="597" y="498" type="line"/>
      <point x="603" y="492"/>
      <point x="608" y="488"/>
      <point x="623" y="488" type="curve" smooth="yes"/>
      <point x="681" y="488"/>
      <point x="734" y="596"/>
      <point x="786" y="724" type="curve" smooth="yes"/>
      <point x="843" y="861"/>
      <point x="939" y="939"/>
      <point x="1054" y="939" type="curve" smooth="yes"/>
      <point x="1144" y="939"/>
      <point x="1324" y="881"/>
      <point x="1324" y="697" type="curve" smooth="yes"/>
      <point x="1324" y="577"/>
      <point x="1231" y="498"/>
      <point x="1131" y="498" type="curve" smooth="yes"/>
      <point x="1051" y="498"/>
      <point x="952" y="582"/>
      <point x="952" y="678" type="curve" smooth="yes"/>
      <point x="952" y="775"/>
      <point x="1041" y="852"/>
      <point x="1138" y="852" type="curve" smooth="yes"/>
      <point x="1220" y="852"/>
      <point x="1322" y="807"/>
      <point x="1322" y="697" type="curve"/>
      <point x="1320" y="697" type="line"/>
      <point x="1320" y="878"/>
      <point x="1143" y="935"/>
      <point x="1054" y="935" type="curve" smooth="yes"/>
      <point x="936" y="935"/>
      <point x="840" y="848"/>
      <point x="788" y="718" type="curve" smooth="yes"/>
      <point x="733" y="581"/>
      <point x="681" y="484"/>
      <point x="623" y="484" type="curve" smooth="yes"/>
      <point x="609" y="484"/>
      <point x="600" y="490"/>
    </contour>
    <contour>
      <point x="302" y="916" type="line"/>
      <point x="124" y="916" type="line"/>
      <point x="124" y="920" type="line"/>
      <point x="684" y="920" type="line"/>
      <point x="470" y="0" type="line"/>
      <point x="90" y="0" type="line"/>
    </contour>
  </outline>
</glyph>
<glyph name="Lslash" format="2">
  <advance width="1303"/>
  <unicode hex="0141"/>
  <outline>
    <contour>
      <point x="90" y="721" type="line"/>
      <point x="1001" y="1160" type="line"/>
      <point x="1001" y="1155" type="line"/>
      <point x="90" y="716" type="line"/>
    </contour>
    <component base="L"/>
  </outline>
</glyph>
<glyph name="lslash" format="2">
  <advance width="807"/>
  <unicode hex="0142"/>
  <outline>
    <contour>
      <point x="94" y="800" type="line"/>
      <point x="824" y="1160" type="line"/>
      <point x="824" y="1155" type="line"/>
      <point x="94" y="795" type="line"/>
    </contour>
    <component base="l"/>
  </outline>
</glyph>
<glyph name="lslash" format="2">
	<advance width="807"/>
	<unicode hex="0142"/>
	<outline>
		<contour>
			<point x="94" y="795" type="line"/>
			<point x="824" y="1155" type="line"/>
			<point x="824" y="1160" type="line"/>
			<point x="94" y="800" type="line"/>
		</contour>
		<component base="l"/>
	</outline>
</glyph>
<glyph name="Eng" format="2">
	<advance width="1587"/>
	<unicode hex="014A"/>
	<outline>
		<contour>
			<point x="658" y="-520" type="curve" smooth="yes"/>
			<point x="918" y="-520"/>
			<point x="1276" y="-283"/>
			<point x="1336" y="-23" type="curve" smooth="yes"/>
			<point x="1589" y="1069" type="line"/>
			<point x="1200" y="1032" type="line"/>
			<point x="971" y="40" type="line" smooth="yes"/>
			<point x="912.346" y="-214.08"/>
			<point x="858" y="-514"/>
			<point x="658" y="-514" type="curve" smooth="yes"/>
			<point x="449" y="-514"/>
			<point x="335" y="-404"/>
			<point x="366" y="-262" type="curve"/>
			<point x="364" y="-262" type="line"/>
			<point x="346" y="-342"/>
			<point x="419" y="-445"/>
			<point x="537" y="-445" type="curve" smooth="yes"/>
			<point x="664" y="-445"/>
			<point x="762" y="-367"/>
			<point x="788" y="-256" type="curve" smooth="yes"/>
			<point x="813" y="-146"/>
			<point x="733" y="-58"/>
			<point x="623" y="-58" type="curve" smooth="yes"/>
			<point x="502" y="-58"/>
			<point x="388" y="-150"/>
			<point x="362" y="-262" type="curve" smooth="yes"/>
			<point x="327" y="-415"/>
			<point x="466" y="-520"/>
		</contour>
		<contour>
			<point x="-88" y="0" type="line"/>
			<point x="571" y="0" type="line"/>
			<point x="571" y="4" type="line"/>
			<point x="-88" y="4" type="line"/>
		</contour>
		<contour>
			<point x="52" y="0" type="line"/>
			<point x="433" y="0" type="line"/>
			<point x="779" y="1500" type="line"/>
			<point x="258" y="1500" type="line"/>
			<point x="258" y="1496" type="line"/>
			<point x="398" y="1496" type="line"/>
		</contour>
		<contour>
			<point x="632" y="881" type="curve"/>
			<point x="636" y="881" type="line"/>
			<point x="698" y="1148"/>
			<point x="852" y="1451"/>
			<point x="1063" y="1451" type="curve" smooth="yes"/>
			<point x="1200" y="1451"/>
			<point x="1260" y="1290"/>
			<point x="1200" y="1032" type="curve"/>
			<point x="1589" y="1069" type="line"/>
			<point x="1652" y="1343"/>
			<point x="1562" y="1519"/>
			<point x="1233" y="1519" type="curve" smooth="yes"/>
			<point x="845" y="1519"/>
			<point x="693" y="1146"/>
		</contour>
	</outline>
</glyph>
<glyph name="eng" format="2">
	<advance width="1287"/>
	<unicode hex="014B"/>
	<outline>
		<contour>
			<point x="358" y="-520" type="curve" smooth="yes"/>
			<point x="618" y="-520"/>
			<point x="976" y="-283"/>
			<point x="1036" y="-23" type="curve" smooth="yes"/>
			<point x="1190" y="639" type="line"/>
			<point x="801" y="602" type="line"/>
			<point x="671" y="40" type="line" smooth="yes"/>
			<point x="612.233" y="-214.054"/>
			<point x="558" y="-516"/>
			<point x="358" y="-516" type="curve" smooth="yes"/>
			<point x="164" y="-516"/>
			<point x="32" y="-409"/>
			<point x="66" y="-262" type="curve"/>
			<point x="64" y="-262" type="line"/>
			<point x="46" y="-342"/>
			<point x="119" y="-445"/>
			<point x="237" y="-445" type="curve" smooth="yes"/>
			<point x="364" y="-445"/>
			<point x="462" y="-367"/>
			<point x="488" y="-256" type="curve" smooth="yes"/>
			<point x="513" y="-146"/>
			<point x="433" y="-58"/>
			<point x="323" y="-58" type="curve" smooth="yes"/>
			<point x="202" y="-58"/>
			<point x="88" y="-150"/>
			<point x="62" y="-262" type="curve" smooth="yes"/>
			<point x="27" y="-415"/>
			<point x="166" y="-520"/>
		</contour>
		<contour>
			<point x="-88" y="0" type="line"/>
			<point x="571" y="0" type="line"/>
			<point x="571" y="4" type="line"/>
			<point x="-88" y="4" type="line"/>
		</contour>
		<contour>
			<point x="52" y="0" type="line"/>
			<point x="433" y="0" type="line"/>
			<point x="645" y="920" type="line"/>
			<point x="124" y="920" type="line"/>
			<point x="124" y="916" type="line"/>
			<point x="264" y="916" type="line"/>
		</contour>
		<contour>
			<point x="533" y="451" type="curve"/>
			<point x="537" y="451" type="line"/>
			<point x="576" y="618"/>
			<point x="666" y="862"/>
			<point x="790" y="862" type="curve" smooth="yes"/>
			<point x="837" y="862"/>
			<point x="837" y="760"/>
			<point x="801" y="602" type="curve"/>
			<point x="1190" y="639" type="line"/>
			<point x="1230" y="813"/>
			<point x="1178" y="939"/>
			<point x="949" y="939" type="curve" smooth="yes"/>
			<point x="661" y="939"/>
			<point x="571" y="616"/>
		</contour>
	</outline>
</glyph>
<glyph name="florin" format="2">
  <advance width="987"/>
  <unicode hex="0192"/>
  <outline>
    <contour>
      <point x="173" y="920" type="line"/>
      <point x="994" y="920" type="line"/>
      <point x="994" y="916" type="line"/>
      <point x="173" y="916" type="line"/>
    </contour>
    <contour>
      <point x="1308" y="1262" type="line"/>
      <point x="1308" y="1372"/>
      <point x="1181" y="1512"/>
      <point x="999" y="1512" type="curve" smooth="yes"/>
      <point x="858" y="1512"/>
      <point x="774.07" y="1322.84"/>
      <point x="734" y="1080" type="curve" smooth="yes"/>
      <point x="542" y="-23" type="line" smooth="yes"/>
      <point x="485.28" y="-348.844"/>
      <point x="276" y="-520"/>
      <point x="-84" y="-520" type="curve" smooth="yes"/>
      <point x="-286" y="-520"/>
      <point x="-410" y="-396"/>
      <point x="-410" y="-252" type="curve" smooth="yes"/>
      <point x="-410" y="-130"/>
      <point x="-307" y="-58"/>
      <point x="-206" y="-58" type="curve" smooth="yes"/>
      <point x="-116" y="-58"/>
      <point x="-4" y="-117"/>
      <point x="-4" y="-237" type="curve" smooth="yes"/>
      <point x="-4" y="-347"/>
      <point x="-101" y="-436"/>
      <point x="-210" y="-436" type="curve" smooth="yes"/>
      <point x="-304" y="-436"/>
      <point x="-408" y="-382"/>
      <point x="-408" y="-252" type="curve"/>
      <point x="-406" y="-252" type="line"/>
      <point x="-406" y="-392"/>
      <point x="-280" y="-512"/>
      <point x="-104" y="-512" type="curve" smooth="yes"/>
      <point x="37" y="-512"/>
      <point x="124.661" y="-321.966"/>
      <point x="167" y="-80" type="curve" smooth="yes"/>
      <point x="360" y="1023" type="line" smooth="yes"/>
      <point x="413.954" y="1331.35"/>
      <point x="595" y="1520"/>
      <point x="965" y="1520" type="curve" smooth="yes"/>
      <point x="1217" y="1520"/>
      <point x="1312" y="1346"/>
      <point x="1312" y="1262" type="curve" smooth="yes"/>
      <point x="1312" y="1150"/>
      <point x="1240" y="1058"/>
      <point x="1119" y="1058" type="curve" smooth="yes"/>
      <point x="1009" y="1058"/>
      <point x="904" y="1137"/>
      <point x="904" y="1247" type="curve" smooth="yes"/>
      <point x="904" y="1347"/>
      <point x="971" y="1448"/>
      <point x="1100" y="1448" type="curve" smooth="yes"/>
      <point x="1207" y="1448"/>
      <point x="1310" y="1372"/>
      <point x="1310" y="1262" type="curve"/>
    </contour>
  </outline>
</glyph>
<glyph name="uni0237" format="2">
  <advance width="673"/>
  <unicode hex="0237"/>
  <outline>
    <contour>
      <point x="676" y="920" type="line"/>
      <point x="481" y="-23" type="line" smooth="yes"/>
      <point x="428.939" y="-274.76"/>
      <point x="141" y="-520"/>
      <point x="-119" y="-520" type="curve" smooth="yes"/>
      <point x="-301" y="-520"/>
      <point x="-470" y="-415"/>
      <point x="-470" y="-262" type="curve" smooth="yes"/>
      <point x="-470" y="-140"/>
      <point x="-357" y="-58"/>
      <point x="-256" y="-58" type="curve" smooth="yes"/>
      <point x="-166" y="-58"/>
      <point x="-45" y="-126"/>
      <point x="-45" y="-246" type="curve" smooth="yes"/>
      <point x="-45" y="-347"/>
      <point x="-145" y="-440"/>
      <point x="-262" y="-440" type="curve" smooth="yes"/>
      <point x="-360" y="-440"/>
      <point x="-468" y="-375"/>
      <point x="-468" y="-262" type="curve"/>
      <point x="-466" y="-262" type="line"/>
      <point x="-466" y="-409"/>
      <point x="-290" y="-512"/>
      <point x="-130" y="-512" type="curve" smooth="yes"/>
      <point x="50" y="-512"/>
      <point x="48.7324" y="-205.647"/>
      <point x="92" y="40" type="curve" smooth="yes"/>
      <point x="292" y="916" type="line"/>
      <point x="102" y="916" type="line"/>
      <point x="102" y="920" type="line"/>
    </contour>
  </outline>
</glyph>
<glyph name="circumflex" format="2">
	<advance width="769"/>
	<unicode hex="02C6"/>
	<anchor x="334" y="1500" name="_top"/>
	<outline>
		<contour>
			<point x="0" y="1717" type="line"/>
			<point x="422" y="1849" type="line"/>
			<point x="766" y="1717" type="line"/>
			<point x="768" y="1719" type="line"/>
			<point x="532" y="2039" type="line"/>
			<point x="322" y="2039" type="line"/>
			<point x="-2" y="1719" type="line"/>
		</contour>
	</outline>
</glyph>
<glyph name="caron" format="2">
	<advance width="769"/>
	<unicode hex="02C7"/>
	<anchor x="334" y="1500" name="_top"/>
	<outline>
		<contour>
			<point x="279" y="1700" type="line"/>
			<point x="489" y="1700" type="line"/>
			<point x="813" y="2020" type="line"/>
			<point x="811" y="2022" type="line"/>
			<point x="389" y="1890" type="line"/>
			<point x="45" y="2022" type="line"/>
			<point x="43" y="2020" type="line"/>
		</contour>
	</outline>
</glyph>
<glyph name="breve" format="2">
	<advance width="559"/>
	<unicode hex="02D8"/>
	<anchor x="229" y="1500" name="_top"/>
	<outline>
		<contour>
			<point x="272" y="1682" type="curve" smooth="yes"/>
			<point x="512" y="1682"/>
			<point x="572" y="1938"/>
			<point x="592" y="2060" type="curve"/>
			<point x="588" y="2060" type="line"/>
			<point x="556" y="1962"/>
			<point x="400" y="1952"/>
			<point x="292" y="1952" type="curve" smooth="yes"/>
			<point x="184" y="1952"/>
			<point x="66" y="1986"/>
			<point x="76" y="2060" type="curve"/>
			<point x="72" y="2060" type="line"/>
			<point x="52" y="1938"/>
			<point x="52" y="1682"/>
		</contour>
	</outline>
</glyph>
<glyph name="ring" format="2">
	<advance width="639"/>
	<unicode hex="02DA"/>
	<anchor x="270" y="1500" name="_top"/>
	<outline>
		<contour>
			<point x="319" y="1679" type="curve" smooth="yes"/>
			<point x="461" y="1679"/>
			<point x="549" y="1757"/>
			<point x="549" y="1859" type="curve" smooth="yes"/>
			<point x="549" y="1961"/>
			<point x="461" y="2039"/>
			<point x="319" y="2039" type="curve" smooth="yes"/>
			<point x="177" y="2039"/>
			<point x="89" y="1961"/>
			<point x="89" y="1859" type="curve" smooth="yes"/>
			<point x="89" y="1757"/>
			<point x="177" y="1679"/>
		</contour>
		<contour>
			<point x="289" y="1685" type="curve" smooth="yes"/>
			<point x="255" y="1685"/>
			<point x="255" y="1725"/>
			<point x="255" y="1749" type="curve" smooth="yes"/>
			<point x="255" y="1813"/>
			<point x="295" y="2033"/>
			<point x="349" y="2033" type="curve" smooth="yes"/>
			<point x="383" y="2033"/>
			<point x="383" y="1993"/>
			<point x="383" y="1969" type="curve" smooth="yes"/>
			<point x="383" y="1905"/>
			<point x="343" y="1685"/>
		</contour>
	</outline>
</glyph>
<glyph name="ogonek" format="2">
	<advance width="1099"/>
	<unicode hex="02DB"/>
	<anchor x="563" y="32" name="_cedilla"/>
	<outline>
		<contour>
			<point x="381" y="-442" type="curve" smooth="yes"/>
			<point x="583" y="-442"/>
			<point x="681" y="-312"/>
			<point x="711" y="-256" type="curve"/>
			<point x="709" y="-254" type="line"/>
			<point x="687" y="-296"/>
			<point x="615" y="-388"/>
			<point x="545" y="-388" type="curve" smooth="yes"/>
			<point x="507" y="-388"/>
			<point x="491" y="-334"/>
			<point x="491" y="-260" type="curve" smooth="yes"/>
			<point x="491" y="-134"/>
			<point x="563" y="12"/>
			<point x="625" y="54" type="curve"/>
			<point x="623" y="56" type="line"/>
			<point x="421" y="-4"/>
			<point x="131" y="-132"/>
			<point x="131" y="-292" type="curve" smooth="yes"/>
			<point x="131" y="-392"/>
			<point x="239" y="-442"/>
		</contour>
	</outline>
</glyph>
<glyph name="tilde" format="2">
  <advance width="895"/>
  <unicode hex="02DC"/>
  <anchor x="394" y="1500" name="_top"/>
  <outline>
    <contour>
      <point x="252" y="1778" type="curve" smooth="yes"/>
      <point x="206" y="1778"/>
      <point x="160" y="1764"/>
      <point x="120" y="1700" type="curve"/>
      <point x="116" y="1700" type="line"/>
      <point x="156" y="1870"/>
      <point x="226" y="2014"/>
      <point x="384" y="2014" type="curve" smooth="yes"/>
      <point x="524" y="2014"/>
      <point x="624" y="1856"/>
      <point x="736" y="1856" type="curve" smooth="yes"/>
      <point x="782" y="1856"/>
      <point x="828" y="1870"/>
      <point x="868" y="1934" type="curve"/>
      <point x="872" y="1934" type="line"/>
      <point x="832" y="1744"/>
      <point x="782" y="1620"/>
      <point x="624" y="1620" type="curve" smooth="yes"/>
      <point x="470" y="1620"/>
      <point x="378" y="1778"/>
    </contour>
  </outline>
</glyph>
<glyph name="gravecomb" format="2">
  <unicode hex="0300"/>
  <anchor x="-228" y="1500" name="_top"/>
  <outline>
    <contour>
      <point x="-290" y="1718" type="line" smooth="yes"/>
      <point x="-449.491" y="1736.83"/>
      <point x="-505.549" y="1905.21"/>
      <point x="-440" y="2001" type="curve" smooth="yes"/>
      <point x="-386.411" y="2079.31"/>
      <point x="-209.277" y="2104.55"/>
      <point x="-135" y="1956" type="curve" smooth="yes"/>
      <point x="0" y="1686" type="line"/>
      <point x="-2" y="1684" type="line"/>
    </contour>
  </outline>
</glyph>
<glyph name="gravecomb" format="2">
	<advance width="0"/>
	<unicode hex="0300"/>
	<anchor x="-228" y="1500" name="_top"/>
	<outline>
		<contour>
			<point x="-2" y="1684" type="line"/>
			<point x="0" y="1686" type="line"/>
			<point x="-135" y="1956" type="line" smooth="yes"/>
			<point x="-209.277" y="2104.55"/>
			<point x="-386.411" y="2079.31"/>
			<point x="-440" y="2001" type="curve" smooth="yes"/>
			<point x="-505.549" y="1905.21"/>
			<point x="-449.491" y="1736.83"/>
			<point x="-290" y="1718" type="curve" smooth="yes"/>
		</contour>
	</outline>
</glyph>
<glyph name="acutecomb" format="2">
  <unicode hex="0301"/>
  <anchor x="-462" y="1500" name="_top"/>
  <outline>
    <contour>
      <point x="-236" y="1718" type="curve" smooth="yes"/>
      <point x="-523" y="1683" type="line"/>
      <point x="-524" y="1685" type="line"/>
      <point x="-391" y="1956" type="line" smooth="yes"/>
      <point x="-317.749" y="2105.26"/>
      <point x="-140" y="2079"/>
      <point x="-86" y="2001" type="curve" smooth="yes"/>
      <point x="-20" y="1905"/>
      <point x="-76.2298" y="1737.48"/>
    </contour>
  </outline>
</glyph>
<glyph name="acutecomb" format="2">
	<advance width="0"/>
	<unicode hex="0301"/>
	<anchor x="-462" y="1500" name="_top"/>
	<outline>
		<contour>
			<point x="-523" y="1683" type="line"/>
			<point x="-236" y="1718" type="line" smooth="yes"/>
			<point x="-76.2298" y="1737.48"/>
			<point x="-20" y="1905"/>
			<point x="-86" y="2001" type="curve" smooth="yes"/>
			<point x="-140" y="2079"/>
			<point x="-317.749" y="2105.26"/>
			<point x="-391" y="1956" type="curve" smooth="yes"/>
			<point x="-524" y="1685" type="line"/>
		</contour>
	</outline>
</glyph>
<glyph name="uni0394" format="2">
	<advance width="1427"/>
	<unicode hex="0394"/>
	<outline>
		<contour>
			<point x="-12" y="0" type="line"/>
			<point x="-8" y="0" type="line"/>
			<point x="641" y="1114" type="line"/>
			<point x="751" y="0" type="line"/>
			<point x="1247" y="0" type="line"/>
			<point x="1070" y="1529" type="line"/>
			<point x="875" y="1529" type="line"/>
		</contour>
		<contour>
			<point x="-9" y="0" type="line"/>
			<point x="1031" y="0" type="line"/>
			<point x="1031" y="4" type="line"/>
			<point x="-9" y="4" type="line"/>
		</contour>
	</outline>
</glyph>
<glyph name="uni03A9" format="2">
  <advance width="1552"/>
  <unicode hex="03A9"/>
  <outline>
    <contour>
      <point x="136" y="500" type="line"/>
      <point x="114" y="406"/>
      <point x="192.003" y="363"/>
      <point x="295" y="363" type="curve" smooth="yes"/>
      <point x="586" y="363" type="line"/>
      <point x="604" y="440" type="line"/>
      <point x="608" y="440" type="line"/>
      <point x="506" y="0" type="line"/>
      <point x="17" y="0" type="line"/>
      <point x="132" y="500" type="line"/>
    </contour>
    <contour>
      <point x="1407" y="500" type="curve"/>
      <point x="1411" y="500" type="line"/>
      <point x="1296" y="0" type="line"/>
      <point x="807" y="0" type="line"/>
      <point x="911" y="449" type="line"/>
      <point x="915" y="449" type="line"/>
      <point x="895" y="363" type="line"/>
      <point x="1186" y="363" type="line" smooth="yes"/>
      <point x="1289" y="363"/>
      <point x="1385" y="406"/>
    </contour>
    <contour>
      <point x="608" y="440" type="curve"/>
      <point x="606" y="437" type="line"/>
      <point x="342" y="487"/>
      <point x="110.591" y="624.094"/>
      <point x="186" y="950" type="curve" smooth="yes"/>
      <point x="273" y="1326"/>
      <point x="570" y="1520"/>
      <point x="1007" y="1520" type="curve" smooth="yes"/>
      <point x="1444" y="1520"/>
      <point x="1651.53" y="1326.11"/>
      <point x="1565" y="950" type="curve" smooth="yes"/>
      <point x="1490" y="624"/>
      <point x="1199" y="495"/>
      <point x="911" y="445" type="curve"/>
      <point x="911" y="449" type="line"/>
      <point x="1043" y="509"/>
      <point x="1125.48" y="686.89"/>
      <point x="1186" y="950" type="curve" smooth="yes"/>
      <point x="1258" y="1263"/>
      <point x="1265" y="1516"/>
      <point x="1007" y="1516" type="curve" smooth="yes"/>
      <point x="749" y="1516"/>
      <point x="637.567" y="1262.87"/>
      <point x="565" y="950" type="curve" smooth="yes"/>
      <point x="504" y="687"/>
      <point x="504" y="500"/>
    </contour>
  </outline>
</glyph>
<glyph name="pi" format="2">
	<advance width="1401"/>
	<unicode hex="03C0"/>
	<outline>
		<contour>
			<point x="86" y="390" type="line"/>
			<point x="90" y="390" type="line"/>
			<point x="126" y="540" type="line"/>
			<point x="1322" y="540" type="line"/>
			<point x="1432" y="920" type="line"/>
			<point x="214" y="920" type="line"/>
		</contour>
		<contour>
			<point x="248" y="-20" type="curve" smooth="yes"/>
			<point x="524" y="-20"/>
			<point x="538" y="190"/>
			<point x="616" y="486" type="curve" smooth="yes"/>
			<point x="726" y="900" type="line"/>
			<point x="614" y="900" type="line"/>
			<point x="520" y="598" type="line" smooth="yes"/>
			<point x="392" y="186"/>
			<point x="70" y="412"/>
			<point x="70" y="136" type="curve" smooth="yes"/>
			<point x="70" y="46"/>
			<point x="146" y="-20"/>
		</contour>
		<contour>
			<point x="936" y="-20" type="curve" smooth="yes"/>
			<point x="1122" y="-20"/>
			<point x="1226" y="66"/>
			<point x="1292" y="206" type="curve"/>
			<point x="1290" y="208" type="line"/>
			<point x="1252" y="136"/>
			<point x="1220" y="90"/>
			<point x="1136" y="90" type="curve" smooth="yes"/>
			<point x="1088" y="90"/>
			<point x="1056" y="128"/>
			<point x="1076" y="202" type="curve" smooth="yes"/>
			<point x="1252" y="840" type="line"/>
			<point x="832" y="840" type="line"/>
			<point x="682" y="258" type="line" smooth="yes"/>
			<point x="650" y="128"/>
			<point x="742" y="-20"/>
		</contour>
	</outline>
</glyph>
<glyph name="uni1E9E" format="2">
	<advance width="1821"/>
	<unicode hex="1E9E"/>
	<outline>
		<contour>
			<point x="130" y="0" type="line"/>
			<point x="550" y="0" type="line"/>
			<point x="770" y="962" type="line" smooth="yes"/>
			<point x="832" y="1232"/>
			<point x="918" y="1516"/>
			<point x="1246" y="1516" type="curve" smooth="yes"/>
			<point x="1374" y="1516"/>
			<point x="1460" y="1406"/>
			<point x="1460" y="1262" type="curve" smooth="yes"/>
			<point x="1460" y="1094"/>
			<point x="1404" y="814"/>
			<point x="1146" y="814" type="curve"/>
			<point x="1146" y="810" type="line"/>
			<point x="1548" y="810"/>
			<point x="1892" y="942"/>
			<point x="1892" y="1202" type="curve" smooth="yes"/>
			<point x="1892" y="1448"/>
			<point x="1592" y="1520"/>
			<point x="1266" y="1520" type="curve" smooth="yes"/>
			<point x="760" y="1520"/>
			<point x="446" y="1366"/>
			<point x="360" y="982" type="curve" smooth="yes"/>
		</contour>
		<contour>
			<point x="-50" y="0" type="line"/>
			<point x="730" y="0" type="line"/>
			<point x="730" y="4" type="line"/>
			<point x="-50" y="4" type="line"/>
		</contour>
		<contour>
			<point x="1112" y="-20" type="curve" smooth="yes"/>
			<point x="1394" y="-20"/>
			<point x="1762" y="100"/>
			<point x="1762" y="480" type="curve" smooth="yes"/>
			<point x="1762" y="740"/>
			<point x="1508" y="812"/>
			<point x="1146" y="812" type="curve"/>
			<point x="1146" y="808" type="line"/>
			<point x="1264" y="808"/>
			<point x="1340" y="688"/>
			<point x="1340" y="500" type="curve" smooth="yes"/>
			<point x="1340" y="312"/>
			<point x="1270" y="-14"/>
			<point x="1092" y="-14" type="curve" smooth="yes"/>
			<point x="918" y="-14"/>
			<point x="768" y="94"/>
			<point x="762" y="304" type="curve"/>
			<point x="796" y="240"/>
			<point x="842" y="180"/>
			<point x="964" y="180" type="curve" smooth="yes"/>
			<point x="1062" y="180"/>
			<point x="1178" y="266"/>
			<point x="1178" y="370" type="curve" smooth="yes"/>
			<point x="1178" y="482"/>
			<point x="1090" y="562"/>
			<point x="970" y="562" type="curve" smooth="yes"/>
			<point x="840" y="562"/>
			<point x="756" y="444"/>
			<point x="756" y="312" type="curve" smooth="yes"/>
			<point x="756" y="132"/>
			<point x="864" y="-20"/>
		</contour>
	</outline>
</glyph>
<glyph name="dagger" format="2">
	<advance width="1288"/>
	<unicode hex="2020"/>
	<outline>
		<contour>
			<point x="407" y="-500" type="curve"/>
			<point x="411" y="-500" type="line"/>
			<point x="550" y="100"/>
			<point x="710" y="350"/>
			<point x="845" y="500" type="curve"/>
			<point x="433" y="500" type="line"/>
			<point x="498" y="350"/>
			<point x="546" y="100"/>
		</contour>
		<contour>
			<point x="433" y="500" type="curve"/>
			<point x="845" y="500" type="line"/>
			<point x="798" y="600"/>
			<point x="689" y="706"/>
			<point x="751" y="976" type="curve"/>
			<point x="747" y="976" type="line"/>
			<point x="685" y="706"/>
			<point x="526" y="600"/>
		</contour>
		<contour>
			<point x="355" y="749" type="curve" smooth="yes"/>
			<point x="367" y="749"/>
			<point x="377" y="749"/>
			<point x="391" y="751" type="curve" smooth="yes"/>
			<point x="514" y="766"/>
			<point x="607" y="967"/>
			<point x="747" y="967" type="curve"/>
			<point x="748" y="971" type="line"/>
			<point x="608" y="971"/>
			<point x="609" y="1172"/>
			<point x="492" y="1187" type="curve" smooth="yes"/>
			<point x="478" y="1189"/>
			<point x="469" y="1189"/>
			<point x="457" y="1189" type="curve" smooth="yes"/>
			<point x="339" y="1189"/>
			<point x="231" y="1087"/>
			<point x="204" y="969" type="curve" smooth="yes"/>
			<point x="177" y="851"/>
			<point x="237" y="749"/>
		</contour>
		<contour>
			<point x="1039" y="749" type="curve" smooth="yes"/>
			<point x="1157" y="749"/>
			<point x="1265" y="851"/>
			<point x="1292" y="969" type="curve" smooth="yes"/>
			<point x="1319" y="1087"/>
			<point x="1259" y="1189"/>
			<point x="1141" y="1189" type="curve" smooth="yes"/>
			<point x="1129" y="1189"/>
			<point x="1118" y="1189"/>
			<point x="1104" y="1187" type="curve" smooth="yes"/>
			<point x="981" y="1172"/>
			<point x="888" y="971"/>
			<point x="748" y="971" type="curve"/>
			<point x="747" y="967" type="line"/>
			<point x="887" y="967"/>
			<point x="886" y="766"/>
			<point x="1003" y="751" type="curve" smooth="yes"/>
			<point x="1017" y="749"/>
			<point x="1027" y="749"/>
		</contour>
		<contour>
			<point x="747" y="976" type="curve"/>
			<point x="751" y="976" type="line"/>
			<point x="783" y="1116"/>
			<point x="995" y="1162"/>
			<point x="1038" y="1282" type="curve" smooth="yes"/>
			<point x="1043" y="1296"/>
			<point x="1045" y="1306"/>
			<point x="1048" y="1318" type="curve" smooth="yes"/>
			<point x="1075" y="1436"/>
			<point x="993" y="1520"/>
			<point x="875" y="1520" type="curve" smooth="yes"/>
			<point x="757" y="1520"/>
			<point x="635" y="1436"/>
			<point x="608" y="1318" type="curve" smooth="yes"/>
			<point x="605" y="1306"/>
			<point x="603" y="1296"/>
			<point x="602" y="1282" type="curve" smooth="yes"/>
			<point x="589" y="1162"/>
			<point x="779" y="1116"/>
		</contour>
	</outline>
</glyph>
<glyph name="daggerdbl" format="2">
	<advance width="1288"/>
	<unicode hex="2021"/>
	<outline>
		<contour>
			<point x="747" y="976" type="curve"/>
			<point x="751" y="976" type="line"/>
			<point x="783" y="1116"/>
			<point x="995" y="1162"/>
			<point x="1038" y="1282" type="curve" smooth="yes"/>
			<point x="1043" y="1296"/>
			<point x="1045" y="1306"/>
			<point x="1048" y="1318" type="curve" smooth="yes"/>
			<point x="1075" y="1436"/>
			<point x="993" y="1520"/>
			<point x="875" y="1520" type="curve" smooth="yes"/>
			<point x="757" y="1520"/>
			<point x="635" y="1436"/>
			<point x="608" y="1318" type="curve" smooth="yes"/>
			<point x="605" y="1306"/>
			<point x="603" y="1296"/>
			<point x="602" y="1282" type="curve" smooth="yes"/>
			<point x="589" y="1162"/>
			<point x="779" y="1116"/>
		</contour>
		<contour>
			<point x="404" y="-520" type="curve" smooth="yes"/>
			<point x="522" y="-520"/>
			<point x="644" y="-436"/>
			<point x="671" y="-318" type="curve" smooth="yes"/>
			<point x="674" y="-306"/>
			<point x="676" y="-296"/>
			<point x="677" y="-282" type="curve" smooth="yes"/>
			<point x="690" y="-162"/>
			<point x="499" y="-116"/>
			<point x="531" y="24" type="curve"/>
			<point x="527" y="24" type="line"/>
			<point x="495" y="-116"/>
			<point x="284" y="-162"/>
			<point x="241" y="-282" type="curve" smooth="yes"/>
			<point x="236" y="-296"/>
			<point x="234" y="-306"/>
			<point x="231" y="-318" type="curve" smooth="yes"/>
			<point x="204" y="-436"/>
			<point x="286" y="-520"/>
		</contour>
		<contour>
			<point x="138" y="-189" type="curve" smooth="yes"/>
			<point x="150" y="-189"/>
			<point x="161" y="-189"/>
			<point x="175" y="-187" type="curve" smooth="yes"/>
			<point x="298" y="-172"/>
			<point x="390" y="29"/>
			<point x="530" y="29" type="curve"/>
			<point x="531" y="33" type="line"/>
			<point x="391" y="33"/>
			<point x="392" y="234"/>
			<point x="275" y="249" type="curve" smooth="yes"/>
			<point x="261" y="251"/>
			<point x="252" y="251"/>
			<point x="240" y="251" type="curve" smooth="yes"/>
			<point x="122" y="251"/>
			<point x="14" y="149"/>
			<point x="-13" y="31" type="curve" smooth="yes"/>
			<point x="-40" y="-87"/>
			<point x="20" y="-189"/>
		</contour>
		<contour>
			<point x="822" y="-189" type="curve" smooth="yes"/>
			<point x="940" y="-189"/>
			<point x="1048" y="-87"/>
			<point x="1075" y="31" type="curve" smooth="yes"/>
			<point x="1102" y="149"/>
			<point x="1042" y="251"/>
			<point x="924" y="251" type="curve" smooth="yes"/>
			<point x="912" y="251"/>
			<point x="901" y="251"/>
			<point x="887" y="249" type="curve" smooth="yes"/>
			<point x="764" y="234"/>
			<point x="671" y="33"/>
			<point x="531" y="33" type="curve"/>
			<point x="530" y="29" type="line"/>
			<point x="670" y="29"/>
			<point x="670" y="-172"/>
			<point x="787" y="-187" type="curve" smooth="yes"/>
			<point x="801" y="-189"/>
			<point x="810" y="-189"/>
		</contour>
		<contour>
			<point x="527" y="24" type="curve"/>
			<point x="531" y="24" type="line"/>
			<point x="593" y="294"/>
			<point x="752" y="400"/>
			<point x="845" y="500" type="curve"/>
			<point x="433" y="500" type="line"/>
			<point x="480" y="400"/>
			<point x="589" y="294"/>
		</contour>
		<contour>
			<point x="433" y="500" type="curve"/>
			<point x="845" y="500" type="line"/>
			<point x="798" y="600"/>
			<point x="689" y="706"/>
			<point x="751" y="976" type="curve"/>
			<point x="747" y="976" type="line"/>
			<point x="685" y="706"/>
			<point x="526" y="600"/>
		</contour>
		<contour>
			<point x="355" y="749" type="curve" smooth="yes"/>
			<point x="367" y="749"/>
			<point x="377" y="749"/>
			<point x="391" y="751" type="curve" smooth="yes"/>
			<point x="514" y="766"/>
			<point x="607" y="967"/>
			<point x="747" y="967" type="curve"/>
			<point x="748" y="971" type="line"/>
			<point x="608" y="971"/>
			<point x="609" y="1172"/>
			<point x="492" y="1187" type="curve" smooth="yes"/>
			<point x="478" y="1189"/>
			<point x="469" y="1189"/>
			<point x="457" y="1189" type="curve" smooth="yes"/>
			<point x="339" y="1189"/>
			<point x="231" y="1087"/>
			<point x="204" y="969" type="curve" smooth="yes"/>
			<point x="177" y="851"/>
			<point x="237" y="749"/>
		</contour>
		<contour>
			<point x="1039" y="749" type="curve" smooth="yes"/>
			<point x="1157" y="749"/>
			<point x="1265" y="851"/>
			<point x="1292" y="969" type="curve" smooth="yes"/>
			<point x="1319" y="1087"/>
			<point x="1259" y="1189"/>
			<point x="1141" y="1189" type="curve" smooth="yes"/>
			<point x="1129" y="1189"/>
			<point x="1118" y="1189"/>
			<point x="1104" y="1187" type="curve" smooth="yes"/>
			<point x="981" y="1172"/>
			<point x="888" y="971"/>
			<point x="748" y="971" type="curve"/>
			<point x="747" y="967" type="line"/>
			<point x="887" y="967"/>
			<point x="886" y="766"/>
			<point x="1003" y="751" type="curve" smooth="yes"/>
			<point x="1017" y="749"/>
			<point x="1027" y="749"/>
		</contour>
	</outline>
</glyph>
<glyph name="guilsinglleft" format="2">
  <advance width="830"/>
  <unicode hex="2039"/>
  <outline>
    <contour>
      <point x="402" y="775" type="line"/>
      <point x="712" y="292" type="line"/>
      <point x="710" y="290" type="line"/>
      <point x="150" y="750" type="line"/>
      <point x="150" y="800" type="line"/>
      <point x="930" y="1260" type="line"/>
      <point x="932" y="1258" type="line"/>
    </contour>
  </outline>
</glyph>
<glyph name="uni203D" format="2">
	<advance width="1279"/>
	<unicode hex="203D"/>
	<outline>
		<contour>
			<point x="610" y="670" type="curve"/>
			<point x="610" y="670" type="line"/>
			<point x="972" y="670"/>
			<point x="1370" y="860"/>
			<point x="1370" y="1180" type="curve" smooth="yes"/>
			<point x="1370" y="1440"/>
			<point x="1094" y="1520"/>
			<point x="792" y="1520" type="curve" smooth="yes"/>
			<point x="488" y="1520"/>
			<point x="140" y="1306"/>
			<point x="140" y="1102" type="curve" smooth="yes"/>
			<point x="140" y="980"/>
			<point x="214" y="898"/>
			<point x="314" y="898" type="curve" smooth="yes"/>
			<point x="404" y="898"/>
			<point x="528" y="960"/>
			<point x="528" y="1100" type="curve" smooth="yes"/>
			<point x="528" y="1220"/>
			<point x="432" y="1284"/>
			<point x="354" y="1284" type="curve" smooth="yes"/>
			<point x="292" y="1284"/>
			<point x="210" y="1240"/>
			<point x="178" y="1206" type="curve"/>
			<point x="258" y="1362"/>
			<point x="544" y="1512"/>
			<point x="772" y="1512" type="curve" smooth="yes"/>
			<point x="970" y="1512"/>
			<point x="1008" y="1368"/>
			<point x="1008" y="1220" type="curve" smooth="yes"/>
			<point x="1008" y="974"/>
			<point x="844" y="732"/>
		</contour>
		<contour>
			<point x="576" y="556" type="curve"/>
			<point x="580" y="556" type="line"/>
			<point x="660" y="856"/>
			<point x="884" y="904"/>
			<point x="916" y="1118" type="curve" smooth="yes"/>
			<point x="932" y="1220"/>
			<point x="858" y="1296"/>
			<point x="748" y="1296" type="curve" smooth="yes"/>
			<point x="610" y="1296"/>
			<point x="560" y="1190"/>
			<point x="560" y="1038" type="curve" smooth="yes"/>
			<point x="560" y="886"/>
			<point x="636" y="856"/>
		</contour>
		<component base="period" xOffset="218"/>
	</outline>
</glyph>
<glyph name="Euro" format="2">
	<advance width="1639"/>
	<unicode hex="20AC"/>
	<outline>
		<contour>
			<point x="906" y="-20" type="curve" smooth="yes"/>
			<point x="1148" y="-20"/>
			<point x="1394" y="162"/>
			<point x="1466" y="356" type="curve"/>
			<point x="1462" y="356" type="line"/>
			<point x="1388" y="158"/>
			<point x="1142" y="-4"/>
			<point x="970" y="-4" type="curve" smooth="yes"/>
			<point x="832" y="-4"/>
			<point x="698" y="102"/>
			<point x="698" y="330" type="curve" smooth="yes"/>
			<point x="698" y="758"/>
			<point x="864" y="1508"/>
			<point x="1242" y="1508" type="curve" smooth="yes"/>
			<point x="1470" y="1508"/>
			<point x="1638" y="1344"/>
			<point x="1666" y="1254" type="curve"/>
			<point x="1632" y="1316"/>
			<point x="1562" y="1370"/>
			<point x="1480" y="1370" type="curve" smooth="yes"/>
			<point x="1382" y="1370"/>
			<point x="1262" y="1290"/>
			<point x="1262" y="1160" type="curve" smooth="yes"/>
			<point x="1262" y="1020"/>
			<point x="1386" y="948"/>
			<point x="1476" y="948" type="curve" smooth="yes"/>
			<point x="1576" y="948"/>
			<point x="1690" y="1030"/>
			<point x="1690" y="1172" type="curve" smooth="yes"/>
			<point x="1690" y="1336"/>
			<point x="1462" y="1520"/>
			<point x="1218" y="1520" type="curve" smooth="yes"/>
			<point x="696" y="1520"/>
			<point x="266" y="1130"/>
			<point x="266" y="550" type="curve" smooth="yes"/>
			<point x="266" y="130"/>
			<point x="624" y="-20"/>
		</contour>
		<component base="equal" xOffset="-60" yOffset="-140"/>
	</outline>
</glyph>
<glyph name="uni2116" format="2">
  <advance width="2411"/>
  <unicode hex="2116"/>
  <outline>
    <contour>
      <point x="1728" y="632" type="line"/>
      <point x="2268" y="632" type="line"/>
      <point x="2266" y="628" type="line"/>
      <point x="1726" y="628" type="line"/>
    </contour>
    <contour>
      <point x="2206" y="1520" type="curve" smooth="yes"/>
      <point x="2394" y="1520"/>
      <point x="2530" y="1434"/>
      <point x="2530" y="1248" type="curve" smooth="yes"/>
      <point x="2530" y="924"/>
      <point x="2272" y="760"/>
      <point x="2030" y="760" type="curve" smooth="yes"/>
      <point x="1842" y="760"/>
      <point x="1706" y="846"/>
      <point x="1706" y="1032" type="curve" smooth="yes"/>
      <point x="1706" y="1356"/>
      <point x="1964" y="1520"/>
    </contour>
    <contour>
      <point x="1974" y="888" type="curve" smooth="yes"/>
      <point x="1974" y="796"/>
      <point x="1996" y="764"/>
      <point x="2040" y="764" type="curve" smooth="yes"/>
      <point x="2142" y="764"/>
      <point x="2262" y="1184"/>
      <point x="2262" y="1392" type="curve" smooth="yes"/>
      <point x="2262" y="1484"/>
      <point x="2240" y="1516"/>
      <point x="2196" y="1516" type="curve" smooth="yes"/>
      <point x="2094" y="1516"/>
      <point x="1974" y="1096"/>
    </contour>
    <component base="N" xOffset="52"/>
  </outline>
</glyph>
<glyph name="partialdiff" format="2">
  <advance width="1319"/>
  <unicode hex="2202"/>
  <outline>
    <contour>
      <point x="720" y="1516" type="line"/>
      <point x="546" y="1516"/>
      <point x="372" y="1408"/>
      <point x="337" y="1256" type="curve"/>
      <point x="335" y="1256" type="line"/>
      <point x="358" y="1354"/>
      <point x="458" y="1426"/>
      <point x="541" y="1426" type="curve" smooth="yes"/>
      <point x="628" y="1426"/>
      <point x="700" y="1358"/>
      <point x="677" y="1260" type="curve" smooth="yes"/>
      <point x="652" y="1150"/>
      <point x="548" y="1086"/>
      <point x="463" y="1086" type="curve" smooth="yes"/>
      <point x="372" y="1086"/>
      <point x="309" y="1154"/>
      <point x="333" y="1256" type="curve" smooth="yes"/>
      <point x="369" y="1410"/>
      <point x="547" y="1521"/>
      <point x="720" y="1520" type="curve"/>
    </contour>
    <contour>
      <point x="515" y="500" type="curve" smooth="yes"/>
      <point x="577" y="768"/>
      <point x="621" y="948"/>
      <point x="719" y="948" type="curve" smooth="yes"/>
      <point x="805" y="948"/>
      <point x="820" y="782"/>
      <point x="769" y="561" type="curve"/>
      <point x="773" y="561" type="line"/>
      <point x="819" y="785"/>
      <point x="833" y="980"/>
      <point x="653" y="980" type="curve" smooth="yes"/>
      <point x="451" y="980"/>
      <point x="131" y="840"/>
      <point x="53" y="500" type="curve" smooth="yes"/>
      <point x="-16" y="200"/>
      <point x="204" y="-20"/>
      <point x="506" y="-20" type="curve" smooth="yes"/>
      <point x="888" y="-20"/>
      <point x="1163" y="280"/>
      <point x="1272" y="750" type="curve" smooth="yes"/>
      <point x="1389" y="1256"/>
      <point x="1045" y="1520"/>
      <point x="720" y="1520" type="curve"/>
      <point x="720" y="1516" type="line"/>
      <point x="978" y="1516"/>
      <point x="878" y="1084"/>
      <point x="836" y="900" type="curve"/>
      <point x="769" y="561" type="line"/>
      <point x="707" y="293"/>
      <point x="624" y="-16"/>
      <point x="506" y="-16" type="curve" smooth="yes"/>
      <point x="408" y="-16"/>
      <point x="462.021" y="270.995"/>
    </contour>
  </outline>
</glyph>
<glyph name="emptyset" format="2">
  <advance width="1140"/>
  <unicode hex="2205"/>
  <outline>
    <contour>
      <point x="-80" y="311" type="line"/>
      <point x="1152" y="1231" type="line"/>
      <point x="1156" y="1229" type="line"/>
      <point x="-76" y="309" type="line"/>
    </contour>
    <contour>
      <point x="84" y="770" type="curve" smooth="yes"/>
      <point x="25.9688" y="524.536"/>
      <point x="154" y="314"/>
      <point x="433" y="314" type="curve" smooth="yes"/>
      <point x="715" y="314"/>
      <point x="933.969" y="524.536"/>
      <point x="992" y="770" type="curve" smooth="yes"/>
      <point x="1051.07" y="1019.86"/>
      <point x="926" y="1225"/>
      <point x="645" y="1225" type="curve" smooth="yes"/>
      <point x="364" y="1225"/>
      <point x="143.072" y="1019.86"/>
    </contour>
    <contour>
      <point x="80" y="770" type="curve" smooth="yes"/>
      <point x="138" y="1020"/>
      <point x="363" y="1229"/>
      <point x="645" y="1229" type="curve" smooth="yes"/>
      <point x="927" y="1229"/>
      <point x="1054" y="1020"/>
      <point x="996" y="770" type="curve" smooth="yes"/>
      <point x="938" y="520"/>
      <point x="715" y="310"/>
      <point x="433" y="310" type="curve" smooth="yes"/>
      <point x="151" y="310"/>
      <point x="22" y="520"/>
    </contour>
  </outline>
</glyph>
<glyph name="emptyset" format="2">
	<advance width="1140"/>
	<unicode hex="2205"/>
	<outline>
		<contour>
			<point x="-76" y="309" type="line"/>
			<point x="1156" y="1229" type="line"/>
			<point x="1152" y="1231" type="line"/>
			<point x="-80" y="311" type="line"/>
		</contour>
		<contour>
			<point x="433" y="310" type="curve" smooth="yes"/>
			<point x="715" y="310"/>
			<point x="938" y="520"/>
			<point x="996" y="770" type="curve" smooth="yes"/>
			<point x="1054" y="1020"/>
			<point x="927" y="1229"/>
			<point x="645" y="1229" type="curve" smooth="yes"/>
			<point x="363" y="1229"/>
			<point x="138" y="1020"/>
			<point x="80" y="770" type="curve" smooth="yes"/>
			<point x="22" y="520"/>
			<point x="151" y="310"/>
		</contour>
		<contour>
			<point x="433" y="314" type="curve" smooth="yes"/>
			<point x="154" y="314"/>
			<point x="25.9688" y="524.536"/>
			<point x="84" y="770" type="curve" smooth="yes"/>
			<point x="143.072" y="1019.86"/>
			<point x="364" y="1225"/>
			<point x="645" y="1225" type="curve" smooth="yes"/>
			<point x="926" y="1225"/>
			<point x="1051.07" y="1019.86"/>
			<point x="992" y="770" type="curve" smooth="yes"/>
			<point x="933.969" y="524.536"/>
			<point x="715" y="314"/>
		</contour>
	</outline>
</glyph>
<glyph name="product" format="2">
	<advance width="1696"/>
	<unicode hex="220F"/>
	<outline>
		<contour>
			<point x="939" y="0" type="line"/>
			<point x="1369" y="0" type="line"/>
			<point x="1715" y="1500" type="line"/>
			<point x="1285" y="1500" type="line"/>
		</contour>
		<contour>
			<point x="-92" y="0" type="line"/>
			<point x="678" y="0" type="line"/>
			<point x="678" y="4" type="line"/>
			<point x="-92" y="4" type="line"/>
		</contour>
		<contour>
			<point x="779" y="0" type="line"/>
			<point x="1548" y="0" type="line"/>
			<point x="1548" y="4" type="line"/>
			<point x="779" y="4" type="line"/>
		</contour>
		<contour>
			<point x="89" y="0" type="line"/>
			<point x="519" y="0" type="line"/>
			<point x="865" y="1500" type="line"/>
			<point x="435" y="1500" type="line"/>
		</contour>
		<contour>
			<point x="237" y="1496" type="line"/>
			<point x="1877" y="1496" type="line"/>
			<point x="1877" y="1500" type="line"/>
			<point x="237" y="1500" type="line"/>
		</contour>
	</outline>
</glyph>
<glyph name="summation" format="2">
	<advance width="1395"/>
	<unicode hex="2211"/>
	<outline>
		<contour>
			<point x="-34" y="0" type="line"/>
			<point x="1159" y="0" type="line"/>
			<point x="1263" y="450" type="line"/>
			<point x="1259" y="450" type="line"/>
			<point x="1150" y="196"/>
			<point x="876" y="4"/>
			<point x="603" y="4" type="curve" smooth="yes"/>
			<point x="-22" y="4" type="line"/>
			<point x="1055" y="813" type="line"/>
			<point x="802" y="1496" type="line"/>
			<point x="963" y="1496" type="line" smooth="yes"/>
			<point x="1197" y="1496"/>
			<point x="1387" y="1304"/>
			<point x="1388" y="1090" type="curve"/>
			<point x="1392" y="1090" type="line"/>
			<point x="1486" y="1500" type="line"/>
			<point x="312" y="1500" type="line"/>
			<point x="312" y="1496" type="line"/>
			<point x="677" y="536" type="line"/>
		</contour>
	</outline>
</glyph>
<glyph name="infinity" format="2">
	<advance width="2023"/>
	<unicode hex="221E"/>
	<outline>
		<contour>
			<point x="475.501" y="181" type="curve" smooth="yes"/>
			<point x="687.501" y="181"/>
			<point x="846.443" y="380"/>
			<point x="1022" y="560" type="curve" smooth="yes"/>
			<point x="1156.86" y="698"/>
			<point x="1349.73" y="927"/>
			<point x="1542.73" y="927" type="curve" smooth="yes"/>
			<point x="1715.73" y="927"/>
			<point x="1683.24" y="678"/>
			<point x="1656" y="560" type="curve"/>
			<point x="1957" y="560" type="line"/>
			<point x="2010.1" y="790"/>
			<point x="1857.5" y="939"/>
			<point x="1565.5" y="939" type="curve" smooth="yes"/>
			<point x="1353.5" y="939"/>
			<point x="1196.02" y="742"/>
			<point x="1018" y="560" type="curve" smooth="yes"/>
			<point x="884.371" y="423"/>
			<point x="691.271" y="193"/>
			<point x="498.271" y="193" type="curve" smooth="yes"/>
			<point x="325.271" y="193"/>
			<point x="357.758" y="442"/>
			<point x="385" y="560" type="curve"/>
			<point x="84" y="560" type="line"/>
			<point x="26.2832" y="310"/>
			<point x="183.501" y="181"/>
		</contour>
		<contour>
			<point x="1390.5" y="181" type="curve" smooth="yes"/>
			<point x="1682.5" y="181"/>
			<point x="1903.9" y="330"/>
			<point x="1957" y="560" type="curve"/>
			<point x="1656" y="560" type="line"/>
			<point x="1628.76" y="442"/>
			<point x="1546.27" y="193"/>
			<point x="1373.27" y="193" type="curve" smooth="yes"/>
			<point x="1180.27" y="193"/>
			<point x="1092.37" y="423"/>
			<point x="1022" y="560" type="curve" smooth="yes"/>
			<point x="928.018" y="742"/>
			<point x="862.499" y="939"/>
			<point x="650.499" y="939" type="curve" smooth="yes"/>
			<point x="358.499" y="939"/>
			<point x="137.1" y="790"/>
			<point x="84" y="560" type="curve"/>
			<point x="385" y="560" type="line"/>
			<point x="412.242" y="678"/>
			<point x="494.729" y="927"/>
			<point x="667.729" y="927" type="curve" smooth="yes"/>
			<point x="860.729" y="927"/>
			<point x="946.859" y="698"/>
			<point x="1018" y="560" type="curve" smooth="yes"/>
			<point x="1110.44" y="380"/>
			<point x="1188.5" y="181"/>
		</contour>
	</outline>
</glyph>
<glyph name="approxequal" format="2">
  <advance width="1200"/>
  <unicode hex="2248"/>
  <outline>
    <contour>
      <point x="798" y="893" type="curve" smooth="yes"/>
      <point x="936" y="893"/>
      <point x="1048" y="1006"/>
      <point x="1012" y="1156" type="curve"/>
      <point x="1008" y="1156" type="line"/>
      <point x="1044" y="1008"/>
      <point x="934" y="897"/>
      <point x="798" y="897" type="curve" smooth="yes"/>
      <point x="696" y="897"/>
      <point x="640.178" y="948.654"/>
      <point x="589" y="1021" type="curve" smooth="yes"/>
      <point x="545.906" y="1081.9189999999999"/>
      <point x="503" y="1145"/>
      <point x="367" y="1145" type="curve" smooth="yes"/>
      <point x="215" y="1145"/>
      <point x="96" y="1022"/>
      <point x="136" y="882" type="curve"/>
      <point x="140" y="882" type="line"/>
      <point x="101" y="1021"/>
      <point x="219" y="1141"/>
      <point x="367" y="1141" type="curve" smooth="yes"/>
      <point x="501" y="1141"/>
      <point x="542.174" y="1077.395"/>
      <point x="586" y="1018" type="curve" smooth="yes"/>
      <point x="637.282" y="948.501"/>
      <point x="690" y="893"/>
    </contour>
    <contour>
      <point x="798" y="393" type="curve" smooth="yes"/>
      <point x="936" y="393"/>
      <point x="1048" y="506"/>
      <point x="1012" y="656" type="curve"/>
      <point x="1008" y="656" type="line"/>
      <point x="1044" y="508"/>
      <point x="934" y="397"/>
      <point x="798" y="397" type="curve" smooth="yes"/>
      <point x="696" y="397"/>
      <point x="640.178" y="448.654"/>
      <point x="589" y="521" type="curve" smooth="yes"/>
      <point x="545.906" y="581.919"/>
      <point x="503" y="645"/>
      <point x="367" y="645" type="curve" smooth="yes"/>
      <point x="215" y="645"/>
      <point x="96" y="522"/>
      <point x="136" y="382" type="curve"/>
      <point x="140" y="382" type="line"/>
      <point x="101" y="521"/>
      <point x="219" y="641"/>
      <point x="367" y="641" type="curve" smooth="yes"/>
      <point x="501" y="641"/>
      <point x="542.174" y="577.395"/>
      <point x="586" y="518" type="curve" smooth="yes"/>
      <point x="637.282" y="448.501"/>
      <point x="690" y="393"/>
    </contour>
  </outline>
</glyph>
<glyph name="lozenge" format="2">
	<advance width="1200"/>
	<unicode hex="25CA"/>
	<outline>
		<contour>
			<point x="409" y="30" type="line"/>
			<point x="954" y="712" type="line"/>
			<point x="723" y="1392" type="line"/>
			<point x="154" y="712" type="line"/>
		</contour>
		<contour>
			<point x="411" y="39" type="line"/>
			<point x="158" y="712" type="line"/>
			<point x="721" y="1383" type="line"/>
			<point x="950" y="712" type="line"/>
		</contour>
	</outline>
</glyph>
<glyph name="uniFB00" format="2">
	<advance width="1687"/>
	<unicode hex="FB00"/>
	<outline>
		<contour>
			<point x="620" y="-420" type="curve" smooth="yes"/>
			<point x="980" y="-420"/>
			<point x="1189.28" y="-248.844"/>
			<point x="1246" y="77" type="curve" smooth="yes"/>
			<point x="1424" y="1080" type="line" smooth="yes"/>
			<point x="1467" y="1322.32"/>
			<point x="1514" y="1516"/>
			<point x="1655" y="1516" type="curve" smooth="yes"/>
			<point x="1900" y="1516"/>
			<point x="1998" y="1351"/>
			<point x="1998" y="1262" type="curve"/>
			<point x="2000" y="1262" type="line"/>
			<point x="2000" y="1362"/>
			<point x="1897" y="1448"/>
			<point x="1790" y="1448" type="curve" smooth="yes"/>
			<point x="1671" y="1448"/>
			<point x="1584" y="1357"/>
			<point x="1584" y="1247" type="curve" smooth="yes"/>
			<point x="1584" y="1137"/>
			<point x="1699" y="1058"/>
			<point x="1809" y="1058" type="curve" smooth="yes"/>
			<point x="1930" y="1058"/>
			<point x="2002" y="1150"/>
			<point x="2002" y="1262" type="curve" smooth="yes"/>
			<point x="2002" y="1346"/>
			<point x="1907" y="1520"/>
			<point x="1655" y="1520" type="curve" smooth="yes"/>
			<point x="1285" y="1520"/>
			<point x="1103.95" y="1331.35"/>
			<point x="1050" y="1023" type="curve" smooth="yes"/>
			<point x="871" y="20" type="line" smooth="yes"/>
			<point x="827.844" y="-221.82"/>
			<point x="761" y="-416"/>
			<point x="620" y="-416" type="curve" smooth="yes"/>
			<point x="421" y="-416"/>
			<point x="298" y="-272"/>
			<point x="298" y="-152" type="curve"/>
			<point x="296" y="-152" type="line"/>
			<point x="296" y="-262"/>
			<point x="428" y="-338"/>
			<point x="512" y="-338" type="curve" smooth="yes"/>
			<point x="601" y="-338"/>
			<point x="700" y="-247"/>
			<point x="700" y="-137" type="curve" smooth="yes"/>
			<point x="700" y="-17"/>
			<point x="588" y="42"/>
			<point x="498" y="42" type="curve" smooth="yes"/>
			<point x="397" y="42"/>
			<point x="294" y="-30"/>
			<point x="294" y="-152" type="curve" smooth="yes"/>
			<point x="294" y="-276"/>
			<point x="418" y="-420"/>
		</contour>
		<contour>
			<point x="-80" y="-520" type="curve" smooth="yes"/>
			<point x="280" y="-520"/>
			<point x="489.28" y="-348.844"/>
			<point x="546" y="-23" type="curve" smooth="yes"/>
			<point x="724" y="980" type="line" smooth="yes"/>
			<point x="767.004" y="1222.32"/>
			<point x="814" y="1416"/>
			<point x="955" y="1416" type="curve" smooth="yes"/>
			<point x="1197" y="1416"/>
			<point x="1298" y="1252"/>
			<point x="1298" y="1162" type="curve"/>
			<point x="1300" y="1162" type="line"/>
			<point x="1300" y="1262"/>
			<point x="1177" y="1348"/>
			<point x="1080" y="1348" type="curve" smooth="yes"/>
			<point x="971" y="1348"/>
			<point x="884" y="1247"/>
			<point x="884" y="1147" type="curve" smooth="yes"/>
			<point x="884" y="1037"/>
			<point x="999" y="958"/>
			<point x="1109" y="958" type="curve" smooth="yes"/>
			<point x="1230" y="958"/>
			<point x="1302" y="1050"/>
			<point x="1302" y="1162" type="curve" smooth="yes"/>
			<point x="1302" y="1246"/>
			<point x="1207" y="1420"/>
			<point x="955" y="1420" type="curve" smooth="yes"/>
			<point x="585" y="1420"/>
			<point x="403.954" y="1231.35"/>
			<point x="350" y="923" type="curve" smooth="yes"/>
			<point x="171" y="-80" type="line" smooth="yes"/>
			<point x="127.844" y="-321.82"/>
			<point x="61" y="-516"/>
			<point x="-80" y="-516" type="curve" smooth="yes"/>
			<point x="-284" y="-516"/>
			<point x="-402" y="-372"/>
			<point x="-402" y="-252" type="curve"/>
			<point x="-404" y="-252" type="line"/>
			<point x="-404" y="-374"/>
			<point x="-282" y="-438"/>
			<point x="-188" y="-438" type="curve" smooth="yes"/>
			<point x="-99" y="-438"/>
			<point x="0" y="-357"/>
			<point x="0" y="-237" type="curve" smooth="yes"/>
			<point x="0" y="-117"/>
			<point x="-112" y="-58"/>
			<point x="-202" y="-58" type="curve" smooth="yes"/>
			<point x="-303" y="-58"/>
			<point x="-406" y="-130"/>
			<point x="-406" y="-252" type="curve" smooth="yes"/>
			<point x="-406" y="-376"/>
			<point x="-282" y="-520"/>
		</contour>
		<contour>
			<point x="182" y="916" type="line"/>
			<point x="1684" y="916" type="line"/>
			<point x="1684" y="920" type="line"/>
			<point x="182" y="920" type="line"/>
		</contour>
	</outline>
</glyph>
<glyph name="uniFB01" format="2">
	<advance width="1586"/>
	<unicode hex="FB01"/>
	<outline>
		<contour>
			<point x="-74" y="-520" type="curve" smooth="yes"/>
			<point x="286" y="-520"/>
			<point x="495.28" y="-348.843"/>
			<point x="552" y="-23" type="curve" smooth="yes"/>
			<point x="744" y="1080" type="line" smooth="yes"/>
			<point x="786.207" y="1322.47"/>
			<point x="884" y="1516"/>
			<point x="1025" y="1516" type="curve" smooth="yes"/>
			<point x="1309" y="1516"/>
			<point x="1418" y="1360"/>
			<point x="1418" y="1262" type="curve"/>
			<point x="1420" y="1262" type="line"/>
			<point x="1420" y="1362"/>
			<point x="1317" y="1448"/>
			<point x="1200" y="1448" type="curve" smooth="yes"/>
			<point x="1081" y="1448"/>
			<point x="1004" y="1347"/>
			<point x="1004" y="1247" type="curve" smooth="yes"/>
			<point x="1004" y="1137"/>
			<point x="1119" y="1058"/>
			<point x="1229" y="1058" type="curve" smooth="yes"/>
			<point x="1350" y="1058"/>
			<point x="1422" y="1150"/>
			<point x="1422" y="1262" type="curve" smooth="yes"/>
			<point x="1422" y="1346"/>
			<point x="1327" y="1520"/>
			<point x="1025" y="1520" type="curve" smooth="yes"/>
			<point x="655" y="1520"/>
			<point x="423.954" y="1331.35"/>
			<point x="370" y="1023" type="curve" smooth="yes"/>
			<point x="177" y="-80" type="line" smooth="yes"/>
			<point x="134.661" y="-321.966"/>
			<point x="67" y="-516"/>
			<point x="-74" y="-516" type="curve" smooth="yes"/>
			<point x="-275" y="-516"/>
			<point x="-396" y="-372"/>
			<point x="-396" y="-252" type="curve"/>
			<point x="-398" y="-252" type="line"/>
			<point x="-398" y="-362"/>
			<point x="-286" y="-438"/>
			<point x="-182" y="-438" type="curve" smooth="yes"/>
			<point x="-73" y="-438"/>
			<point x="6" y="-347"/>
			<point x="6" y="-237" type="curve" smooth="yes"/>
			<point x="6" y="-117"/>
			<point x="-106" y="-58"/>
			<point x="-196" y="-58" type="curve" smooth="yes"/>
			<point x="-297" y="-58"/>
			<point x="-400" y="-130"/>
			<point x="-400" y="-252" type="curve" smooth="yes"/>
			<point x="-400" y="-376"/>
			<point x="-276" y="-520"/>
		</contour>
		<contour>
			<point x="1092" y="-20" type="curve" smooth="yes"/>
			<point x="1324" y="-20"/>
			<point x="1461" y="126"/>
			<point x="1537" y="326" type="curve"/>
			<point x="1533" y="327" type="line"/>
			<point x="1464" y="142"/>
			<point x="1332" y="21"/>
			<point x="1237" y="21" type="curve" smooth="yes"/>
			<point x="1212" y="21"/>
			<point x="1200" y="38"/>
			<point x="1200" y="59" type="curve" smooth="yes"/>
			<point x="1200" y="69"/>
			<point x="1202" y="84"/>
			<point x="1205" y="96" type="curve" smooth="yes"/>
			<point x="1414" y="920" type="line"/>
			<point x="182" y="920" type="line"/>
			<point x="182" y="916" type="line"/>
			<point x="1035" y="916" type="line"/>
			<point x="854" y="210" type="line" smooth="yes"/>
			<point x="851.016" y="197.001"/>
			<point x="850" y="176"/>
			<point x="850" y="166" type="curve" smooth="yes"/>
			<point x="850" y="25"/>
			<point x="928" y="-20"/>
		</contour>
	</outline>
</glyph>
<glyph name="uniFB02" format="2">
	<advance width="1696"/>
	<unicode hex="FB02"/>
	<outline>
		<contour>
			<point x="-24" y="-520" type="curve" smooth="yes"/>
			<point x="266" y="-520"/>
			<point x="495.28" y="-348.843"/>
			<point x="552" y="-23" type="curve" smooth="yes"/>
			<point x="744" y="1080" type="line" smooth="yes"/>
			<point x="786.201" y="1322.43"/>
			<point x="854" y="1516"/>
			<point x="1025" y="1516" type="curve" smooth="yes"/>
			<point x="1220" y="1516"/>
			<point x="1378" y="1374"/>
			<point x="1378" y="1262" type="curve"/>
			<point x="1380" y="1262" type="line"/>
			<point x="1380" y="1372"/>
			<point x="1257" y="1438"/>
			<point x="1170" y="1438" type="curve" smooth="yes"/>
			<point x="1071" y="1438"/>
			<point x="974" y="1367"/>
			<point x="974" y="1247" type="curve" smooth="yes"/>
			<point x="974" y="1137"/>
			<point x="1089" y="1058"/>
			<point x="1179" y="1058" type="curve" smooth="yes"/>
			<point x="1280" y="1058"/>
			<point x="1382" y="1150"/>
			<point x="1382" y="1262" type="curve" smooth="yes"/>
			<point x="1382" y="1376"/>
			<point x="1218" y="1520"/>
			<point x="1025" y="1520" type="curve" smooth="yes"/>
			<point x="655" y="1520"/>
			<point x="432.443" y="1379.86"/>
			<point x="370" y="1023" type="curve" smooth="yes"/>
			<point x="177" y="-80" type="line" smooth="yes"/>
			<point x="134.661" y="-321.966"/>
			<point x="117" y="-516"/>
			<point x="-24" y="-516" type="curve" smooth="yes"/>
			<point x="-251" y="-516"/>
			<point x="-396" y="-392"/>
			<point x="-396" y="-262" type="curve"/>
			<point x="-398" y="-262" type="line"/>
			<point x="-398" y="-392"/>
			<point x="-276" y="-438"/>
			<point x="-192" y="-438" type="curve" smooth="yes"/>
			<point x="-103" y="-438"/>
			<point x="6" y="-377"/>
			<point x="6" y="-247" type="curve" smooth="yes"/>
			<point x="6" y="-127"/>
			<point x="-96" y="-58"/>
			<point x="-196" y="-58" type="curve" smooth="yes"/>
			<point x="-307" y="-58"/>
			<point x="-400" y="-140"/>
			<point x="-400" y="-262" type="curve" smooth="yes"/>
			<point x="-400" y="-396"/>
			<point x="-256" y="-520"/>
		</contour>
		<contour>
			<point x="183" y="916" type="line"/>
			<point x="1003" y="916" type="line"/>
			<point x="1003" y="920" type="line"/>
			<point x="183" y="920" type="line"/>
		</contour>
		<contour>
			<point x="1211" y="-20" type="curve" smooth="yes"/>
			<point x="1429" y="-20"/>
			<point x="1572" y="126"/>
			<point x="1648" y="326" type="curve"/>
			<point x="1644" y="327" type="line"/>
			<point x="1567" y="110"/>
			<point x="1401" y="11"/>
			<point x="1343" y="11" type="curve" smooth="yes"/>
			<point x="1318" y="11"/>
			<point x="1308" y="29"/>
			<point x="1308" y="50" type="curve" smooth="yes"/>
			<point x="1308" y="60"/>
			<point x="1309" y="74"/>
			<point x="1312" y="86" type="curve" smooth="yes"/>
			<point x="1648" y="1540" type="line"/>
			<point x="1250" y="1450" type="line"/>
			<point x="965" y="210" type="line" smooth="yes"/>
			<point x="962" y="198"/>
			<point x="960" y="176"/>
			<point x="960" y="166" type="curve" smooth="yes"/>
			<point x="960" y="66"/>
			<point x="987" y="-20"/>
		</contour>
	</outline>
</glyph>
<glyph name="uniFB03" format="2">
	<advance width="2265"/>
	<unicode hex="FB03"/>
	<outline>
		<contour>
			<point x="621" y="-420" type="curve" smooth="yes"/>
			<point x="981" y="-420"/>
			<point x="1190.28" y="-248.844"/>
			<point x="1247" y="77" type="curve" smooth="yes"/>
			<point x="1425" y="1080" type="line" smooth="yes"/>
			<point x="1468" y="1322.32"/>
			<point x="1565" y="1516"/>
			<point x="1706" y="1516" type="curve" smooth="yes"/>
			<point x="2011" y="1516"/>
			<point x="2099" y="1352"/>
			<point x="2099" y="1262" type="curve"/>
			<point x="2101" y="1262" type="line"/>
			<point x="2101" y="1362"/>
			<point x="2018" y="1448"/>
			<point x="1891" y="1448" type="curve" smooth="yes"/>
			<point x="1772" y="1448"/>
			<point x="1685" y="1357"/>
			<point x="1685" y="1247" type="curve" smooth="yes"/>
			<point x="1685" y="1137"/>
			<point x="1800" y="1058"/>
			<point x="1910" y="1058" type="curve" smooth="yes"/>
			<point x="2031" y="1058"/>
			<point x="2103" y="1150"/>
			<point x="2103" y="1262" type="curve" smooth="yes"/>
			<point x="2103" y="1346"/>
			<point x="2018" y="1520"/>
			<point x="1706" y="1520" type="curve" smooth="yes"/>
			<point x="1336" y="1520"/>
			<point x="1104.95" y="1331.35"/>
			<point x="1051" y="1023" type="curve" smooth="yes"/>
			<point x="872" y="20" type="line" smooth="yes"/>
			<point x="828.844" y="-221.82"/>
			<point x="762" y="-416"/>
			<point x="621" y="-416" type="curve" smooth="yes"/>
			<point x="426" y="-416"/>
			<point x="299" y="-280"/>
			<point x="299" y="-152" type="curve"/>
			<point x="297" y="-152" type="line"/>
			<point x="297" y="-262"/>
			<point x="429" y="-338"/>
			<point x="513" y="-338" type="curve" smooth="yes"/>
			<point x="602" y="-338"/>
			<point x="701" y="-247"/>
			<point x="701" y="-137" type="curve" smooth="yes"/>
			<point x="701" y="-17"/>
			<point x="589" y="42"/>
			<point x="499" y="42" type="curve" smooth="yes"/>
			<point x="398" y="42"/>
			<point x="295" y="-30"/>
			<point x="295" y="-152" type="curve" smooth="yes"/>
			<point x="295" y="-276"/>
			<point x="419" y="-420"/>
		</contour>
		<contour>
			<point x="-79" y="-520" type="curve" smooth="yes"/>
			<point x="281" y="-520"/>
			<point x="490.28" y="-348.844"/>
			<point x="547" y="-23" type="curve" smooth="yes"/>
			<point x="725" y="980" type="line" smooth="yes"/>
			<point x="768.005" y="1222.32"/>
			<point x="815" y="1416"/>
			<point x="956" y="1416" type="curve" smooth="yes"/>
			<point x="1198" y="1416"/>
			<point x="1299" y="1252"/>
			<point x="1299" y="1162" type="curve"/>
			<point x="1301" y="1162" type="line"/>
			<point x="1301" y="1262"/>
			<point x="1178" y="1348"/>
			<point x="1081" y="1348" type="curve" smooth="yes"/>
			<point x="972" y="1348"/>
			<point x="885" y="1247"/>
			<point x="885" y="1147" type="curve" smooth="yes"/>
			<point x="885" y="1037"/>
			<point x="1000" y="958"/>
			<point x="1110" y="958" type="curve" smooth="yes"/>
			<point x="1231" y="958"/>
			<point x="1303" y="1050"/>
			<point x="1303" y="1162" type="curve" smooth="yes"/>
			<point x="1303" y="1246"/>
			<point x="1208" y="1420"/>
			<point x="956" y="1420" type="curve" smooth="yes"/>
			<point x="586" y="1420"/>
			<point x="404.954" y="1231.35"/>
			<point x="351" y="923" type="curve" smooth="yes"/>
			<point x="172" y="-80" type="line" smooth="yes"/>
			<point x="128.844" y="-321.82"/>
			<point x="62" y="-516"/>
			<point x="-79" y="-516" type="curve" smooth="yes"/>
			<point x="-274" y="-516"/>
			<point x="-401" y="-376"/>
			<point x="-401" y="-252" type="curve"/>
			<point x="-403" y="-252" type="line"/>
			<point x="-403" y="-362"/>
			<point x="-301" y="-438"/>
			<point x="-197" y="-438" type="curve" smooth="yes"/>
			<point x="-88" y="-438"/>
			<point x="1" y="-347"/>
			<point x="1" y="-237" type="curve" smooth="yes"/>
			<point x="1" y="-117"/>
			<point x="-111" y="-58"/>
			<point x="-201" y="-58" type="curve" smooth="yes"/>
			<point x="-302" y="-58"/>
			<point x="-405" y="-130"/>
			<point x="-405" y="-252" type="curve" smooth="yes"/>
			<point x="-405" y="-376"/>
			<point x="-281" y="-520"/>
		</contour>
		<contour>
			<point x="1771" y="-20" type="curve" smooth="yes"/>
			<point x="2003" y="-20"/>
			<point x="2142" y="126"/>
			<point x="2218" y="326" type="curve"/>
			<point x="2214" y="327" type="line"/>
			<point x="2138" y="125"/>
			<point x="2004" y="21"/>
			<point x="1915" y="21" type="curve" smooth="yes"/>
			<point x="1890" y="21"/>
			<point x="1879" y="38"/>
			<point x="1879" y="59" type="curve" smooth="yes"/>
			<point x="1879" y="69"/>
			<point x="1880" y="84"/>
			<point x="1883" y="96" type="curve" smooth="yes"/>
			<point x="2093" y="920" type="line"/>
			<point x="183" y="920" type="line"/>
			<point x="183" y="916" type="line"/>
			<point x="1714" y="916" type="line"/>
			<point x="1534" y="210" type="line" smooth="yes"/>
			<point x="1531.03" y="196.995"/>
			<point x="1528" y="176"/>
			<point x="1528" y="166" type="curve" smooth="yes"/>
			<point x="1528" y="25"/>
			<point x="1607" y="-20"/>
		</contour>
	</outline>
</glyph>
<glyph name="uniFB04" format="2">
	<advance width="2375"/>
	<unicode hex="FB04"/>
	<outline>
		<contour>
			<point x="620" y="-420" type="curve" smooth="yes"/>
			<point x="980" y="-420"/>
			<point x="1189.28" y="-248.844"/>
			<point x="1246" y="77" type="curve" smooth="yes"/>
			<point x="1424" y="1080" type="line" smooth="yes"/>
			<point x="1467" y="1322.32"/>
			<point x="1524" y="1516"/>
			<point x="1715" y="1516" type="curve" smooth="yes"/>
			<point x="1950" y="1516"/>
			<point x="2058" y="1352"/>
			<point x="2058" y="1262" type="curve"/>
			<point x="2060" y="1262" type="line"/>
			<point x="2060" y="1362"/>
			<point x="1937" y="1448"/>
			<point x="1840" y="1448" type="curve" smooth="yes"/>
			<point x="1731" y="1448"/>
			<point x="1644" y="1347"/>
			<point x="1644" y="1247" type="curve" smooth="yes"/>
			<point x="1644" y="1137"/>
			<point x="1759" y="1058"/>
			<point x="1869" y="1058" type="curve" smooth="yes"/>
			<point x="1990" y="1058"/>
			<point x="2062" y="1150"/>
			<point x="2062" y="1262" type="curve" smooth="yes"/>
			<point x="2062" y="1346"/>
			<point x="1959" y="1520"/>
			<point x="1715" y="1520" type="curve" smooth="yes"/>
			<point x="1295" y="1520"/>
			<point x="1103.95" y="1331.35"/>
			<point x="1050" y="1023" type="curve" smooth="yes"/>
			<point x="871" y="20" type="line" smooth="yes"/>
			<point x="827.844" y="-221.82"/>
			<point x="761" y="-416"/>
			<point x="620" y="-416" type="curve" smooth="yes"/>
			<point x="419" y="-416"/>
			<point x="298" y="-272"/>
			<point x="298" y="-152" type="curve"/>
			<point x="296" y="-152" type="line"/>
			<point x="296" y="-262"/>
			<point x="428" y="-338"/>
			<point x="512" y="-338" type="curve" smooth="yes"/>
			<point x="601" y="-338"/>
			<point x="700" y="-247"/>
			<point x="700" y="-137" type="curve" smooth="yes"/>
			<point x="700" y="-17"/>
			<point x="588" y="42"/>
			<point x="498" y="42" type="curve" smooth="yes"/>
			<point x="397" y="42"/>
			<point x="294" y="-30"/>
			<point x="294" y="-152" type="curve" smooth="yes"/>
			<point x="294" y="-276"/>
			<point x="418" y="-420"/>
		</contour>
		<contour>
			<point x="-80" y="-520" type="curve" smooth="yes"/>
			<point x="280" y="-520"/>
			<point x="489.28" y="-348.844"/>
			<point x="546" y="-23" type="curve" smooth="yes"/>
			<point x="724" y="980" type="line" smooth="yes"/>
			<point x="767.004" y="1222.32"/>
			<point x="814" y="1416"/>
			<point x="955" y="1416" type="curve" smooth="yes"/>
			<point x="1189" y="1416"/>
			<point x="1298" y="1259"/>
			<point x="1298" y="1162" type="curve"/>
			<point x="1300" y="1162" type="line"/>
			<point x="1300" y="1262"/>
			<point x="1197" y="1348"/>
			<point x="1080" y="1348" type="curve" smooth="yes"/>
			<point x="971" y="1348"/>
			<point x="884" y="1267"/>
			<point x="884" y="1147" type="curve" smooth="yes"/>
			<point x="884" y="1037"/>
			<point x="999" y="958"/>
			<point x="1109" y="958" type="curve" smooth="yes"/>
			<point x="1230" y="958"/>
			<point x="1302" y="1050"/>
			<point x="1302" y="1162" type="curve" smooth="yes"/>
			<point x="1302" y="1246"/>
			<point x="1207" y="1420"/>
			<point x="955" y="1420" type="curve" smooth="yes"/>
			<point x="585" y="1420"/>
			<point x="403.954" y="1231.35"/>
			<point x="350" y="923" type="curve" smooth="yes"/>
			<point x="171" y="-80" type="line" smooth="yes"/>
			<point x="127.844" y="-321.82"/>
			<point x="61" y="-516"/>
			<point x="-80" y="-516" type="curve" smooth="yes"/>
			<point x="-283" y="-516"/>
			<point x="-402" y="-372"/>
			<point x="-402" y="-252" type="curve"/>
			<point x="-404" y="-252" type="line"/>
			<point x="-404" y="-372"/>
			<point x="-282" y="-438"/>
			<point x="-198" y="-438" type="curve" smooth="yes"/>
			<point x="-89" y="-438"/>
			<point x="0" y="-347"/>
			<point x="0" y="-237" type="curve" smooth="yes"/>
			<point x="0" y="-117"/>
			<point x="-112" y="-58"/>
			<point x="-202" y="-58" type="curve" smooth="yes"/>
			<point x="-303" y="-58"/>
			<point x="-406" y="-130"/>
			<point x="-406" y="-252" type="curve" smooth="yes"/>
			<point x="-406" y="-376"/>
			<point x="-282" y="-520"/>
		</contour>
		<contour>
			<point x="182" y="916" type="line"/>
			<point x="1684" y="916" type="line"/>
			<point x="1684" y="920" type="line"/>
			<point x="182" y="920" type="line"/>
		</contour>
		<contour>
			<point x="1879" y="-20" type="curve" smooth="yes"/>
			<point x="2111" y="-20"/>
			<point x="2250" y="126"/>
			<point x="2326" y="326" type="curve"/>
			<point x="2322" y="328" type="line"/>
			<point x="2251" y="137"/>
			<point x="2128" y="31"/>
			<point x="2031" y="31" type="curve" smooth="yes"/>
			<point x="2006" y="31"/>
			<point x="1994" y="48"/>
			<point x="1994" y="69" type="curve" smooth="yes"/>
			<point x="1994" y="79"/>
			<point x="1995" y="94"/>
			<point x="1998" y="106" type="curve" smooth="yes"/>
			<point x="2326" y="1540" type="line"/>
			<point x="1929" y="1460" type="line"/>
			<point x="1643" y="210" type="line" smooth="yes"/>
			<point x="1641" y="198"/>
			<point x="1638" y="176"/>
			<point x="1638" y="166" type="curve" smooth="yes"/>
			<point x="1638" y="25"/>
			<point x="1715" y="-20"/>
		</contour>
	</outline>
</glyph>
<glyph name="uniFB05" format="2">
	<advance width="1649"/>
	<unicode hex="FB05"/>
	<outline>
		<contour>
			<point x="-104" y="-520" type="curve" smooth="yes"/>
			<point x="256" y="-520"/>
			<point x="484.192" y="-338.654"/>
			<point x="542" y="-23" type="curve" smooth="yes"/>
			<point x="744" y="1080" type="line" smooth="yes"/>
			<point x="788.309" y="1321.94"/>
			<point x="864" y="1516"/>
			<point x="995" y="1516" type="curve" smooth="yes"/>
			<point x="1160" y="1516"/>
			<point x="1156.23" y="1299.38"/>
			<point x="1100" y="1080" type="curve" smooth="yes"/>
			<point x="876" y="206" type="line" smooth="yes"/>
			<point x="873" y="194"/>
			<point x="871" y="172"/>
			<point x="871" y="162" type="curve" smooth="yes"/>
			<point x="871" y="72"/>
			<point x="906" y="-20"/>
			<point x="1120" y="-20" type="curve" smooth="yes"/>
			<point x="1347" y="-20"/>
			<point x="1490" y="126"/>
			<point x="1566" y="326" type="curve"/>
			<point x="1562" y="328" type="line"/>
			<point x="1494" y="146"/>
			<point x="1359" y="21"/>
			<point x="1261" y="21" type="curve" smooth="yes"/>
			<point x="1236" y="21"/>
			<point x="1224" y="38"/>
			<point x="1224" y="59" type="curve" smooth="yes"/>
			<point x="1224" y="69"/>
			<point x="1225" y="83"/>
			<point x="1228" y="95" type="curve" smooth="yes"/>
			<point x="1467" y="1023" type="line" smooth="yes"/>
			<point x="1532.91" y="1335.8"/>
			<point x="1337" y="1520"/>
			<point x="995" y="1520" type="curve" smooth="yes"/>
			<point x="665" y="1520"/>
			<point x="430.73" y="1370.07"/>
			<point x="370" y="1023" type="curve" smooth="yes"/>
			<point x="177" y="-80" type="line" smooth="yes"/>
			<point x="134.666" y="-321.942"/>
			<point x="37" y="-516"/>
			<point x="-104" y="-516" type="curve" smooth="yes"/>
			<point x="-263" y="-516"/>
			<point x="-396" y="-392"/>
			<point x="-396" y="-262" type="curve"/>
			<point x="-398" y="-262" type="line"/>
			<point x="-398" y="-342"/>
			<point x="-312.809" y="-437"/>
			<point x="-196" y="-437" type="curve" smooth="yes"/>
			<point x="-78" y="-437"/>
			<point x="6" y="-333"/>
			<point x="6" y="-247" type="curve" smooth="yes"/>
			<point x="6" y="-127"/>
			<point x="-86" y="-58"/>
			<point x="-196" y="-58" type="curve" smooth="yes"/>
			<point x="-307" y="-58"/>
			<point x="-400" y="-140"/>
			<point x="-400" y="-262" type="curve" smooth="yes"/>
			<point x="-400" y="-396"/>
			<point x="-266" y="-520"/>
		</contour>
		<contour>
			<point x="890" y="916" type="line"/>
			<point x="1630" y="916" type="line"/>
			<point x="1630" y="920" type="line"/>
			<point x="890" y="920" type="line"/>
		</contour>
	</outline>
</glyph>
<glyph name="a.smcp" format="2">
	<advance width="1242"/>
	<anchor x="788" y="0" name="cedilla"/>
	<anchor x="328" y="0" name="bottom"/>
	<anchor x="687.639" y="1012" name="top"/>
	<outline>
		<contour>
			<point x="-30" y="0" type="line"/>
			<point x="-26" y="0" type="line"/>
			<point x="391.754" y="627" type="line"/>
			<point x="522" y="0" type="line"/>
			<point x="1022" y="0" type="line"/>
			<point x="822.103" y="1040" type="line"/>
			<point x="662.103" y="1040" type="line"/>
		</contour>
		<contour>
			<point x="-130" y="0" type="line"/>
			<point x="144" y="0" type="line"/>
			<point x="144.924" y="4" type="line"/>
			<point x="-129.076" y="4" type="line"/>
		</contour>
		<contour>
			<point x="153.334" y="270" type="line"/>
			<point x="742.334" y="270" type="line"/>
			<point x="743.258" y="274" type="line"/>
			<point x="154.258" y="274" type="line"/>
		</contour>
		<contour>
			<point x="348" y="0" type="line"/>
			<point x="1112" y="0" type="line"/>
			<point x="1112.92" y="4" type="line"/>
			<point x="348.924" y="4" type="line"/>
		</contour>
	</outline>
</glyph>
<glyph name="ae.smcp" format="2">
	<advance width="1858"/>
	<outline>
		<contour>
			<point x="37" y="0" type="line"/>
			<point x="42" y="0" type="line"/>
			<point x="973" y="1020" type="line"/>
			<point x="968" y="1020" type="line"/>
		</contour>
		<contour>
			<point x="-120" y="0" type="line"/>
			<point x="240" y="0" type="line"/>
			<point x="240" y="4" type="line"/>
			<point x="-120" y="4" type="line"/>
		</contour>
		<contour>
			<point x="343" y="333" type="line"/>
			<point x="933" y="333" type="line"/>
			<point x="934" y="337" type="line"/>
			<point x="347" y="337" type="line"/>
		</contour>
		<contour>
			<point x="605" y="0" type="line"/>
			<point x="1628" y="0" type="line"/>
			<point x="1709" y="350" type="line"/>
			<point x="1705" y="350" type="line"/>
			<point x="1608" y="146"/>
			<point x="1438" y="4"/>
			<point x="1265" y="4" type="curve" smooth="yes"/>
			<point x="605" y="4" type="line"/>
		</contour>
		<contour>
			<point x="736" y="0" type="line"/>
			<point x="1166" y="0" type="line"/>
			<point x="1401" y="1020" type="line"/>
			<point x="971" y="1020" type="line"/>
		</contour>
		<contour>
			<point x="1492" y="377" type="curve"/>
			<point x="1496" y="377" type="line"/>
			<point x="1572" y="706" type="line"/>
			<point x="1568" y="706" type="line"/>
			<point x="1514" y="602"/>
			<point x="1372" y="547"/>
			<point x="1319" y="547" type="curve" smooth="yes"/>
			<point x="1209" y="547" type="line"/>
			<point x="1193" y="543" type="line"/>
			<point x="1303" y="543" type="line" smooth="yes"/>
			<point x="1356" y="543"/>
			<point x="1486" y="481"/>
		</contour>
		<contour>
			<point x="1779" y="710" type="curve"/>
			<point x="1783" y="710" type="line"/>
			<point x="1854" y="1020" type="line"/>
			<point x="1050" y="1020" type="line"/>
			<point x="1050" y="1016" type="line"/>
			<point x="1531" y="1016" type="line" smooth="yes"/>
			<point x="1665" y="1016"/>
			<point x="1767" y="874"/>
		</contour>
	</outline>
</glyph>
